<?xml version="1.0" encoding="UTF-8" standalone="no"?>
<!-- Created with Inkscape (http://www.inkscape.org/) -->

<svg
   width="512"
   height="512"
   viewBox="0 0 135.46667 135.46667"
   version="1.1"
   id="svg1"
   inkscape:export-filename="ä½å›¾.svg"
   inkscape:export-xdpi="96"
   inkscape:export-ydpi="96"
   sodipodi:docname="io.poly000.waylyrics.svg"
   inkscape:version="1.3 (0e150ed6c4, 2023-07-21)"
   xmlns:inkscape="http://www.inkscape.org/namespaces/inkscape"
   xmlns:sodipodi="http://sodipodi.sourceforge.net/DTD/sodipodi-0.dtd"
   xmlns="http://www.w3.org/2000/svg"
   xmlns:svg="http://www.w3.org/2000/svg">
  <sodipodi:namedview
     id="namedview1"
     pagecolor="#ffffff"
     bordercolor="#000000"
     borderopacity="0.25"
     inkscape:showpageshadow="2"
     inkscape:pageopacity="0.0"
     inkscape:pagecheckerboard="0"
     inkscape:deskcolor="#d1d1d1"
     inkscape:document-units="mm"
     inkscape:zoom="0.56140411"
     inkscape:cx="-32.953089"
     inkscape:cy="-0.89062404"
     inkscape:window-width="1920"
     inkscape:window-height="1009"
     inkscape:window-x="-8"
     inkscape:window-y="-8"
     inkscape:window-maximized="1"
     inkscape:current-layer="layer1" />
  <defs
     id="defs1">
    <rect
       x="266.04489"
       y="194.77415"
       width="95.13665"
       height="86.024876"
       id="rect8" />
  </defs>
  <g
     inkscape:label="å›¾å±‚ 1"
     inkscape:groupmode="layer"
     id="layer1">
    <text
       xml:space="preserve"
       transform="matrix(0.51805694,0,0,0.51901939,-61.939326,-19.982502)"
       id="text8"
       style="font-size:64px;white-space:pre;shape-inside:url(#rect8);shape-padding:0;fill:#000000;stroke-width:50;stroke-dasharray:none"><tspan
         x="266.04492"
         y="253.16258"
         id="tspan2">ðŸŽµ</tspan></text>
    <path
       style="fill:#000000;fill-rule:nonzero;stroke-width:13.2292;stroke-dasharray:none"
       d="m 18.083026,23.197417 c 13.638375,0.852398 27.276751,1.704797 40.915128,2.557195"
       id="path10" />
    <path
       style="fill:none;fill-rule:evenodd;stroke:#000000;stroke-width:0.264583px;stroke-linecap:butt;stroke-linejoin:miter;stroke-opacity:1"
       d="m 32.330257,98.086716 v 0"
       id="path80"
       inkscape:connector-type="polyline"
       inkscape:connector-curvature="0" />
    <path
       style="fill:#000000;fill-rule:nonzero;stroke-width:13.229;stroke-dasharray:none;paint-order:stroke fill markers"
       id="path81"
       d="m 71.193799,109.46321 c -2.966767,0 -5.933537,0 -8.900305,0 -3.044534,-0.10112 -6.084327,-0.3017 -9.128194,-0.42098 -1.759188,-0.0686 -3.519604,-0.0898 -5.279945,-0.0978 -1.208048,-0.0416 -2.444525,-0.13815 -3.630189,-0.3881 -1.250159,-0.34036 -2.562289,-0.34854 -3.823857,-0.60426 -1.503664,-0.2829 -2.998536,-0.59333 -4.516897,-0.79229 -1.222653,-0.2088 -2.473156,-0.40448 -3.589933,-0.96964 -0.403119,-0.40502 -0.906362,-0.70397 -1.31181,-1.10444 -0.209674,-0.2071 -0.346506,-0.47709 -0.531063,-0.70686 -0.701191,-1.2002 -1.457635,-2.39008 -1.968693,-3.68786 C 27.93746,99.541391 27.678369,98.31827 27.53968,97.052688 27.284304,95.407536 26.893207,93.794389 26.673482,92.1429 26.382625,90.573315 26.12124,88.999732 25.979224,87.409266 c -0.117212,-1.780781 -0.08884,-3.568094 -0.09146,-5.351777 -3.97e-4,-2.581376 0.0027,-5.162754 0.0046,-7.744129 0.0014,-2.127253 0.0017,-4.254508 0.0019,-6.381761 -0.0763,-1.568717 0.05511,-3.117755 0.219405,-4.674772 0.326115,-1.642949 0.563307,-3.296055 0.695252,-4.965501 0.117819,-1.991749 0.11837,-3.98824 0.1241,-5.98279 -0.0021,-1.702861 -0.05266,-3.399367 0.129077,-5.093669 0.207047,-1.543402 0.294244,-3.097101 0.347197,-4.652192 -0.0612,-1.161405 0.179435,-2.289956 0.328179,-3.434009 0.177421,-1.372915 0.306131,-2.76924 0.600223,-4.123608 0.351364,-0.770704 0.656733,-1.560128 1.04109,-2.316416 0.326589,-0.876157 0.921076,-1.54041 1.565016,-2.201804 0.985914,-1.000681 2.21025,-1.719903 3.333001,-2.555156 0.78503,-0.527608 1.638303,-1.00416 2.529443,-1.331491 1.016093,-0.481259 2.123512,-0.701673 3.194254,-1.027076 1.719651,-0.528215 3.43775,-1.064927 5.199158,-1.437754 1.243391,-0.158325 2.461641,-0.456752 3.697576,-0.658422 0.902567,-0.132976 1.815996,-0.151028 2.726502,-0.165332 1.339471,0.05443 2.665002,-0.115105 3.994218,-0.251434 1.523043,-0.143987 3.051575,-0.212417 4.580499,-0.249669 1.403919,-0.02389 2.808121,-0.01993 4.212188,-0.01936 1.371782,0.001 2.743565,0.0022 4.11535,0.0028 1.20909,4.23e-4 2.41818,4.76e-4 3.627268,5.03e-4 1.267108,7e-6 2.534213,-7e-6 3.801322,-1.3e-5 1.462447,-6e-6 2.924894,-8e-6 4.387344,-9e-6 1.097164,0.06654 2.221101,-0.112807 3.310459,0.04771 1.177195,0.20836 2.362655,0.335671 3.555341,0.406336 1.149353,0.162453 2.296073,0.308443 3.427153,0.569115 1.091994,0.197804 2.170853,0.429952 3.254161,0.668947 0.748458,0.278566 1.5197,0.453451 2.234491,0.82002 0.869667,0.422844 1.660316,0.976021 2.535507,1.39771 0.497994,0.454977 1.250233,0.942885 1.860902,1.379548 -0.0236,0.0021 -0.0844,-0.01259 -0.0708,0.0067 0.35257,0.499004 0.7815,0.883793 1.02217,1.464074 0.45123,0.807387 0.9135,1.58945 1.31972,2.405819 0.38639,0.731163 0.37731,1.574697 0.42217,2.381761 0.0622,1.512745 0.0595,3.027222 0.0588,4.540964 -0.002,1.131721 -0.005,2.263439 -0.007,3.39516 -0.001,1.08144 -0.001,2.162882 -0.001,3.244321 -3e-5,1.395508 1e-5,2.791015 2e-5,4.186523 2e-5,1.483252 2e-5,2.966503 3e-5,4.449755 0,1.196469 0,2.392936 0,3.589406 0,1.146326 0,2.292654 0,3.43898 0,1.342231 0,2.68446 0,4.026691 0,1.134324 0,2.268646 0,3.40297 0.092,1.126125 0.3312,2.229776 0.43469,3.354898 0.0403,0.60206 0.0231,0.299003 0.0516,0.909177 0.17908,3.737486 5.46468,3.48423 5.2856,-0.253256 v 0 c -0.0374,-0.765088 -0.0146,-0.380786 -0.0689,-1.15289 -0.0921,-0.958615 -0.21979,-1.913647 -0.41131,-2.857929 0,-1.134324 0,-2.268646 0,-3.40297 0,-1.342231 0,-2.68446 0,-4.026691 0,-1.146326 0,-2.292654 0,-3.43898 0,-1.196472 0,-2.392942 0,-3.589414 0,-1.48327 -1e-5,-2.96654 -2e-5,-4.449808 -2e-5,-1.395365 -6e-5,-2.790727 -2e-5,-4.186089 8e-5,-1.079048 1.1e-4,-2.158098 0.001,-3.237145 0.002,-1.133422 0.005,-2.266836 0.007,-3.400256 8e-4,-1.6197 0.003,-3.240254 -0.0682,-4.858731 -0.096,-1.530919 -0.23895,-3.078576 -0.98214,-4.454261 -0.41157,-0.789858 -0.82062,-1.56374 -1.27974,-2.325055 -0.66579,-1.313911 -1.52421,-2.493548 -2.63784,-3.469682 -0.89413,-0.63815 -1.78052,-1.284606 -2.70841,-1.873241 -0.87018,-0.361523 -1.58092,-1.037228 -2.47061,-1.367043 -1.094873,-0.511923 -2.235174,-0.876112 -3.392514,-1.219545 -1.067115,-0.233114 -2.130952,-0.465513 -3.206023,-0.658137 -1.418838,-0.324314 -2.858542,-0.521876 -4.30336,-0.694205 -1.113962,-0.06325 -2.216409,-0.203611 -3.317145,-0.387082 -1.283091,-0.11203 -2.568403,-0.07265 -3.855807,-0.07589 -1.462453,1e-6 -2.924908,3e-6 -4.387363,9e-6 -1.267061,6e-6 -2.534121,2e-5 -3.801182,1.3e-5 -1.208309,-2.6e-5 -2.416619,-5.9e-5 -3.624931,-5.03e-4 -1.371889,-6.35e-4 -2.743777,-0.0018 -4.115666,-0.0028 -1.448088,-5.82e-4 -2.896325,-0.0046 -4.344249,0.02096 -1.666118,0.04122 -3.331795,0.116941 -4.991341,0.275777 -1.179779,0.121384 -2.349002,0.285745 -3.538595,0.224416 -1.171528,0.01925 -2.346029,0.05393 -3.505814,0.235734 -1.316569,0.220409 -2.616144,0.525733 -3.939945,0.704382 -1.913686,0.412763 -3.786825,0.976228 -5.655336,1.556805 -1.19566,0.379259 -2.443538,0.61584 -3.581345,1.163408 -1.309766,0.53546 -2.59258,1.178136 -3.741613,2.007871 -1.365279,1.01978 -2.851343,1.900033 -4.015943,3.16261 -0.971369,1.044581 -1.920368,2.133968 -2.455955,3.476977 -0.576636,1.171144 -1.109898,2.370159 -1.490214,3.620842 -0.291595,1.488493 -0.488072,2.999898 -0.66356,4.505711 -0.164931,1.306674 -0.425056,2.603936 -0.368224,3.929076 -0.04785,1.429289 -0.12761,2.85696 -0.32096,4.275198 -0.195396,1.875033 -0.174745,3.750432 -0.158308,5.634193 -0.0053,1.863048 -0.0051,3.7278 -0.108265,5.588532 -0.12301,1.622206 -0.393538,3.219524 -0.68191,4.819735 -0.183526,1.740262 -0.321142,3.477239 -0.248605,5.22946 -1.77e-4,2.12611 -4.5e-4,4.252219 -0.0019,6.378332 -0.0019,2.58527 -0.005,5.170543 -0.0046,7.755816 0.0029,1.940377 -0.02697,3.884866 0.113051,5.821486 0.152832,1.666682 0.403658,3.32028 0.720208,4.963835 0.220544,1.615379 0.568392,3.200106 0.852936,4.803407 0.205722,1.74634 0.57333,3.456888 1.3384,5.053858 0.740165,1.75061 1.682104,3.41954 2.74337,4.99474 1.051779,1.29788 2.248405,2.44392 3.7105,3.27704 1.641285,0.74474 3.375269,1.18894 5.162394,1.42824 1.432817,0.18145 2.840638,0.49116 4.259731,0.75264 1.250995,0.21088 2.522013,0.2952 3.759623,0.59232 1.515988,0.27674 3.064153,0.4594 4.60511,0.48317 1.699331,0.008 3.398745,0.0277 5.096973,0.0938 3.112786,0.12162 6.221224,0.33214 9.3351,0.42502 2.966768,0 5.933538,0 8.900306,0 3.741774,0 3.741774,-5.29166 0,-5.29166 z" />
    <path
       style="fill:#000000;fill-rule:nonzero;stroke-width:13.229;stroke-dasharray:none;paint-order:stroke fill markers"
       id="path82"
       d="m 40.06737,43.976356 c 3.787671,0 7.575341,0 11.363012,0 4.094705,0 8.189413,0 12.284118,0 3.460837,0 6.921674,0 10.382511,0 2.742875,0 5.485749,0 8.228627,0 2.264928,-0.08723 4.517858,0.139292 6.773193,0.304162 1.591974,0.08755 0.803306,0.04894 2.365978,0.116393 3.738314,0.160811 3.965734,-5.125969 0.227417,-5.286777 v 0 c -1.469112,-0.06296 -0.733171,-0.02726 -2.207815,-0.107215 -2.383444,-0.174027 -4.765413,-0.40445 -7.158773,-0.31823 -2.742878,0 -5.485752,0 -8.228627,0 -3.460837,0 -6.921674,0 -10.382511,0 -4.094705,0 -8.189413,0 -12.284118,0 -3.787671,0 -7.575341,0 -11.363012,0 -3.741775,0 -3.741775,5.291667 0,5.291667 z" />
    <path
       style="fill:#000000;fill-rule:nonzero;stroke-width:13.229;stroke-dasharray:none;paint-order:stroke fill markers"
       id="path83"
       d="m 39.303547,63.608351 c 3.215015,0 6.430033,0 9.645049,0 3.697856,-0.07267 7.388897,0.05718 11.081604,0.231032 3.31265,0.169159 6.628959,0.233661 9.945304,0.268388 2.791233,0.02297 5.582584,0.02125 8.373885,0.02056 2.153558,-0.0013 4.307115,-0.0024 6.460675,-0.0029 1.634964,-5.3e-4 3.269928,-5.3e-4 4.904894,-5.3e-4 3.741772,-9.8e-5 3.741634,-5.291764 -1.4e-4,-5.291666 v 0 c -1.63539,4.2e-5 -3.270782,7.9e-5 -4.906172,5.29e-4 -2.153533,5.29e-4 -4.307067,0.0016 -6.460601,0.0029 -2.772423,7.94e-4 -5.544899,0.0024 -8.317253,-0.02027 -3.251812,-0.0339 -6.503594,-0.09672 -9.751772,-0.262823 -3.77552,-0.1777 -7.549719,-0.308878 -11.330424,-0.236885 -3.215016,0 -6.430034,0 -9.645049,0 -3.741775,0 -3.741775,5.291667 0,5.291667 z" />
    <path
       style="fill:#000000;fill-rule:nonzero;stroke-width:13.229;stroke-dasharray:none;paint-order:stroke fill markers"
       id="path84"
       d="m 40.940079,84.564846 c 2.843898,-0.557789 5.727637,-0.843555 8.613302,-1.074497 2.713082,-0.196101 5.43343,-0.237551 8.152423,-0.255997 2.241399,-0.0082 4.48282,-0.0021 6.724221,0.0016 1.000874,0.0016 2.001745,0.0028 3.002619,0.0037 3.741772,0.0031 3.746198,-5.288536 0.0044,-5.291666 v 0 c -0.999498,-7.94e-4 -1.998996,-0.0019 -2.998494,-0.0036 -2.256287,-0.0037 -4.512588,-0.0099 -6.76887,-0.0016 -2.848287,0.01953 -5.697947,0.06516 -8.539882,0.272854 -3.232388,0.260384 -6.468478,0.57718 -9.643478,1.261123 -3.597804,1.027943 -2.144072,6.116008 1.453732,5.088062 z" />
    <path
       style="fill:#000000;fill-rule:nonzero;stroke-width:13.229;stroke-dasharray:none;paint-order:stroke fill markers"
       id="path85"
       d="m 41.886703,100.80582 c 2.688836,-0.04 5.372624,-0.25923 8.059518,-0.37693 2.360152,-0.18783 4.714031,-0.438169 7.078649,-0.565667 1.755076,-0.07532 3.506398,-0.03139 5.249799,-0.26725 1.224065,-0.170217 2.44897,-0.247224 3.65524,-0.525515 3.64273,-0.855213 2.433277,-6.006809 -1.209453,-5.151596 v 0 c -1.041252,0.251227 -2.117818,0.25097 -3.17391,0.435779 -1.593009,0.229764 -3.204567,0.116578 -4.808503,0.224695 -2.346195,0.12814 -4.68294,0.363439 -7.023748,0.562969 -2.609649,0.114652 -5.21652,0.32493 -7.827592,0.371849 -3.741772,0 -3.741772,5.291666 0,5.291666 z" />
  </g>
</svg>
