<?xml version="1.0" encoding="UTF-8" standalone="no"?>
<!-- Created with Inkscape (http://www.inkscape.org/) -->

<svg
   version="1.1"
   id="svg1"
   width="1024"
   height="1024"
   viewBox="0 0 1024 1024"
   sodipodi:docname="logo.svg"
   inkscape:version="1.3 (0e150ed6c4, 2023-07-21)"
   xmlns:inkscape="http://www.inkscape.org/namespaces/inkscape"
   xmlns:sodipodi="http://sodipodi.sourceforge.net/DTD/sodipodi-0.dtd"
   xmlns="http://www.w3.org/2000/svg"
   xmlns:svg="http://www.w3.org/2000/svg">
  <defs
     id="defs1" />
  <sodipodi:namedview
     id="namedview1"
     pagecolor="#ffffff"
     bordercolor="#000000"
     borderopacity="0.25"
     inkscape:showpageshadow="2"
     inkscape:pageopacity="0.0"
     inkscape:pagecheckerboard="0"
     inkscape:deskcolor="#d1d1d1"
     showgrid="false"
     inkscape:zoom="1.0673828"
     inkscape:cx="512"
     inkscape:cy="512"
     inkscape:window-width="2240"
     inkscape:window-height="1366"
     inkscape:window-x="-11"
     inkscape:window-y="-11"
     inkscape:window-maximized="1"
     inkscape:current-layer="g1" />
  <g
     inkscape:groupmode="layer"
     inkscape:label="Image"
     id="g1">
    <g
       id="g1534">
      <path
         style="fill:#c6c6c6"
         d="m 210.23888,1018.6662 c -5.02594,-1.8244 -9.80101,-6.1302 -12.12716,-10.9354 L 196,1003.3686 l 0.022,-491.43432 c 0.0213,-475.885834 0.0805,-491.563074 1.87085,-495.505021 2.51322,-5.533403 8.34552,-10.1259302 14.55052,-11.4575007 C 215.72735,4.267018 230.64587,3.9941269 255,4.1933068 L 292.5,4.5 v 6 6 l -39,0.5 c -21.45,0.275 -39.72423,0.861367 -40.60941,1.303037 C 208.25422,20.616429 208.5,-7.020385 208.5,512 c 0,519.0204 -0.24578,491.3836 4.39059,493.697 0.88518,0.4416 109.15941,1.028 240.60941,1.303 l 239,0.5 v 6 6 l -239.5,0.175 c -182.32696,0.1332 -240.27849,-0.1076 -242.76112,-1.0088 z m 521.16992,-0.043 c -0.29063,-0.7573 -0.38901,-3.5698 -0.21861,-6.25 L 731.5,1007.5 l 39,-0.5 c 21.45,-0.275 39.72423,-0.8614 40.60941,-1.303 C 815.74578,1003.3836 815.5,1031.0204 815.5,512 815.5,-7.020385 815.74578,20.616429 811.10941,18.303037 810.22423,17.861367 701.95,17.275 570.5,17 l -239,-0.5 v -6 -6 H 572 812.5 l 4,2.152682 c 5.02071,2.7020004 7.97178,5.838857 9.95227,10.578847 C 827.84211,20.55789 828,71.045226 828,512.15216 v 491.21644 l -2.08979,4.3169 c -2.49774,5.1596 -7.60575,9.6071 -12.83249,11.1731 -2.56961,0.7698 -16.39609,1.1414 -42.47512,1.1414 -31.91253,0 -38.75766,-0.2405 -39.1938,-1.3771 z M 588.5,951.85393 c -4.42208,-1.6349 -9.29573,-5.55824 -11.00105,-8.85596 C 576.61463,941.28789 576,937.41368 576,933.54966 V 927 H 421 c -153.66667,0 -155.0172,-0.0172 -157,-2 -2.57133,-2.57133 -2.57133,-7.42867 0,-10 1.98324,-1.98324 3.33333,-2 161.06672,-2 h 159.06672 l 3.22547,-2.46019 c 6.80706,-5.19199 14.61544,-7.96339 23.14109,-8.21338 l 8,-0.23457 0.5,-59.29593 0.5,-59.29593 4.3239,-0.31111 c 2.37815,-0.17111 4.96565,0.22149 5.75,0.87245 1.20756,1.00218 1.4261,10.97227 1.4261,65.0611 V 913 h 62.86514 c 62.08478,0 62.89785,0.0257 65.5,2.07258 3.34291,2.62953 3.47943,6.78536 0.32041,9.75311 L 757.3711,927 h -63.54969 -63.54969 l -1.73959,4.55504 c -2.4766,6.4849 -11.31663,15.67198 -17.77167,18.46938 -6.03131,2.61377 -17.5734,3.56237 -22.26046,1.82951 z M 264.00295,825.00295 C 262.88922,823.88922 262,821.66814 262,820 c 0,-1.66814 0.88922,-3.88922 2.00295,-5.00295 1.98988,-1.98988 3.08477,-2.0013 167.75,-1.75 L 597.5,813.5 v 6.5 6.5 l -165.74705,0.25295 c -164.66523,0.2513 -165.76012,0.23988 -167.75,-1.75 z m 387.40887,0.62785 c -0.28898,-0.75306 -0.38735,-3.79056 -0.21862,-6.75 L 651.5,813.5 l 52.604,-0.25877 c 51.97161,-0.25565 52.6358,-0.23374 55.25,1.82258 3.3541,2.63834 3.4951,6.78987 0.33155,9.76188 L 757.3711,827 h -52.71694 c -43.69874,0 -52.80681,-0.23423 -53.24234,-1.3692 z M 264,725 c -1.11111,-1.11111 -2,-3.33333 -2,-5 0,-1.66667 0.88889,-3.88889 2,-5 1.98913,-1.98913 3.33333,-2 247.36514,-2 h 245.36514 l 2.63486,2.07258 c 3.34291,2.62953 3.47943,6.78536 0.32041,9.75311 L 757.3711,727 H 511.68555 C 267.33333,727 265.98915,726.98915 264,725 Z m 67.5,-75.14176 c -4.42741,-1.64323 -9.29719,-5.56537 -11.00105,-8.86027 C 319.67453,639.40371 319,635.60197 319,632.54966 V 627 h -26.5 c -25.16667,0 -26.60063,-0.10063 -28.5,-2 -1.11111,-1.11111 -2,-3.33333 -2,-5 0,-1.66667 0.88889,-3.88889 2,-5 1.90996,-1.90996 3.33333,-2 31.61798,-2 h 29.61799 l 3.58465,-3.14736 c 1.97155,-1.73105 6.53096,-4.53464 10.13201,-6.2302 5.37026,-2.52858 7.98565,-3.12308 14.54737,-3.3067 l 8,-0.22388 0.5,-59.29593 0.5,-59.29593 4.3239,-0.31111 c 2.37815,-0.17111 4.96565,0.22149 5.75,0.87245 1.20798,1.00253 1.4261,11.10642 1.4261,66.0611 V 613 h 191.36514 191.36514 l 2.63486,2.07258 c 3.34291,2.62953 3.47943,6.78536 0.32041,9.75311 L 757.3711,627 H 565.28101 373.19092 l -2.97892,5.27835 c -6.034,10.69167 -16.80535,17.49315 -28.92156,18.26229 -3.73474,0.23708 -8.14044,-0.07 -9.79044,-0.6824 z M 264.01216,525.01216 C 262.89024,523.89024 262,521.67271 262,520 c 0,-1.67271 0.89024,-3.89024 2.01216,-5.01216 1.95399,-1.95399 3.08866,-2.00458 39.25,-1.75 L 340.5,513.5 v 6.5 6.5 l -37.23784,0.26216 c -36.16134,0.25458 -37.29601,0.20399 -39.25,-1.75 z m 130.39966,0.61864 c -0.28898,-0.75306 -0.38735,-3.79056 -0.21862,-6.75 L 394.5,513.5 l 181.11171,-0.2527 181.11172,-0.25269 2.63828,2.07527 c 3.34635,2.63224 3.48426,6.78675 0.32384,9.75581 L 757.3711,527 H 576.15416 c -152.46508,0 -181.30029,-0.21724 -181.74234,-1.3692 z M 677,471.62616 c -10.76019,-2.9623 -17.65043,-8.16839 -21.66164,-16.36701 -3.58492,-7.32731 -3.82057,-17.47704 -0.55383,-23.85383 2.5325,-4.94353 8.24611,-10.16477 11.98381,-10.9511 1.50241,-0.31608 3.59769,-0.75099 4.65618,-0.96647 1.05848,-0.21548 4.20848,0.0899 7,0.67854 3.88569,0.81942 6.01957,2.04712 9.10283,5.23721 8.6757,8.97627 8.63034,21.99601 -0.10531,30.2348 L 683.8576,459 h 4.35931 c 6.56361,0 12.67249,-3.53915 16.27146,-9.42679 2.86314,-4.68387 3.00391,-5.42346 2.85499,-15 -0.10526,-6.76969 -0.95112,-13.35273 -2.57921,-20.07321 l -2.42257,-10 -11.42079,-0.62376 c -18.38983,-1.00438 -28.72885,-5.6392 -42.02052,-18.83715 C 641.9315,378.11946 639.51951,374.88795 636.18236,368 621.9296,338.58205 628.95901,309.53146 657.77581,278.76027 663.06054,273.11712 668.83521,266.925 670.60839,265 l 3.22399,-3.5 -1.92398,-8.5 c -2.56889,-11.3492 -3.47138,-29.29105 -2.01919,-40.14215 3.15427,-23.56938 16.42974,-44.84133 27.99271,-44.85411 4.58891,-0.005 9.01713,4.82172 14.06435,15.33028 6.37384,13.27062 7.49192,18.84584 7.45349,37.16598 -0.0277,13.1883 -0.40885,17.35736 -2.16912,23.72405 -4.06545,14.70432 -10.85043,27.82451 -19.91214,38.50435 l -4.43624,5.2284 2.27563,10.94188 2.27562,10.94187 6.7336,0.67623 c 29.19311,2.93175 46.78031,38.90006 32.96695,67.42207 -3.37599,6.97079 -10.76801,15.05854 -16.58231,18.14302 -2.50346,1.32808 -4.55175,3.12937 -4.55175,4.00287 0,0.87349 1.34635,8.07427 2.99188,16.00172 4.63336,22.32149 3.89161,32.67892 -3.03062,42.31795 -8.2385,11.47191 -24.84588,17.10773 -38.96126,13.22175 z m 21.55543,-81.84826 c 0.71075,-0.71074 -8.17787,-47.74853 -9.21254,-48.75198 -1.03947,-1.0081 -8.34641,8.2538 -9.46985,12.00349 -2.16213,7.21656 1.15167,15.01381 8.50246,20.00598 5.24742,3.56369 6.18119,5.46605 4.18123,8.51838 -4.59986,7.02027 -22.22683,-3.16773 -28.30969,-16.36239 -7.67181,-16.64131 0.11009,-38.83262 17.60761,-50.21088 2.28181,-1.48381 2.30778,-1.67171 1.10593,-8 -0.67693,-3.56428 -1.62421,-6.91223 -2.10507,-7.4399 -0.53476,-0.5868 -3.22876,1.355 -6.93686,5 -26.03497,25.592 -31.81806,54.27838 -14.71494,72.99191 8.87375,9.7093 17.8708,13.53654 30.96676,13.17288 4.21876,-0.11715 7.99199,-0.53452 8.38496,-0.92749 z m 21.89356,-15.91809 c 3.39543,-11.43364 1.33108,-22.00515 -5.57688,-28.55913 -3.31669,-3.14674 -10.15609,-6.68337 -11.09979,-5.73967 -0.56959,0.56959 7.85272,43.02328 8.85801,44.64987 1.16529,1.88547 6.14104,-4.70189 7.81866,-10.35107 z M 695.41302,237.93998 c 8.96981,-15.07929 12.29858,-30.22838 7.66119,-34.86577 -7.27406,-7.27406 -19.04279,15.2341 -19.04577,36.42579 -6.2e-4,4.4 0.29186,9.09528 0.64995,10.43396 l 0.65109,2.43396 2.61099,-3.12755 c 1.43605,-1.72015 4.7987,-6.80533 7.47255,-11.30039 z M 264,425 c -1.11111,-1.11111 -2,-3.33333 -2,-5 0,-1.66667 0.88889,-3.88889 2,-5 1.98339,-1.98339 3.33333,-2 162.54545,-2 h 160.54546 l 2.45454,2.45455 C 590.89545,416.80455 592,418.85 592,420 c 0,1.15 -1.10455,3.19545 -2.45455,4.54545 L 587.09091,427 H 426.54545 C 267.33333,427 265.98339,426.98339 264,425 Z m 0,-100 c -1.11111,-1.11111 -2,-3.33333 -2,-5 0,-1.66667 0.88889,-3.88889 2,-5 1.98339,-1.98339 3.33333,-2 162.54545,-2 h 160.54546 l 2.45454,2.45455 C 590.89545,316.80455 592,318.85 592,320 c 0,1.15 -1.10455,3.19545 -2.45455,4.54545 L 587.09091,327 H 426.54545 C 267.33333,327 265.98339,326.98339 264,325 Z M 382.93035,248.25 C 375.62802,244.55059 373,240.47562 373,232.85212 V 227 h -53.5 c -52.16667,0 -53.54984,-0.0498 -55.5,-2 -1.11111,-1.11111 -2,-3.33333 -2,-5 0,-1.66667 0.88889,-3.88889 2,-5 1.9528,-1.9528 3.33333,-2 58.49135,-2 h 56.49134 l 4.75866,-3.65357 c 8.01956,-6.15721 14.65015,-8.66891 23.74275,-8.99389 l 8.0159,-0.2865 0.5,-59.28302 0.5,-59.28302 4.3239,-0.311109 c 2.37815,-0.17111 4.96565,0.22149 5.75,0.872445 C 427.78188,83.063868 428,93.167756 428,148.12244 V 213 h 79.54545 79.54546 l 2.45454,2.45455 C 590.89545,216.80455 592,218.85 592,220 c 0,1.15 -1.10455,3.19545 -2.45455,4.54545 L 587.09091,227 H 507.0623 427.03369 l -2.43266,4.75 c -2.45066,4.78516 -8.78515,11.46515 -13.82482,14.57888 C 407.16817,248.55809 397.59786,251 392.46922,251 c -2.50167,0 -6.23527,-1.07638 -9.53887,-2.75 z M 264.18116,124.69283 c -2.99172,-3.18454 -2.8055,-7.05657 0.46304,-9.6276 2.6232,-2.06341 3.14947,-2.07789 66.25,-1.82258 L 394.5,113.5 v 6.5 6.5 l -64.06884,0.25729 -64.06884,0.25728 z m 184.23066,0.93797 c -0.28898,-0.75306 -0.38735,-3.79056 -0.21862,-6.75 L 448.5,113.5 l 154.11113,-0.25316 154.11113,-0.25315 2.63887,2.07573 c 3.34694,2.6327 3.48508,6.78698 0.32442,9.75627 L 757.3711,127 603.15416,127 c -129.61145,0 -154.30076,-0.21846 -154.74234,-1.3692 z"
         id="path1540" />
      <path
         style="fill:#a8a8a8"
         d="m 210.02988,1017.8874 c -4.40146,-1.7566 -8.99666,-5.9066 -11.28911,-10.1953 L 196.5,1003.5 196.1976,515 c -0.21501,-347.31036 0.01,-489.961514 0.77845,-493.556673 1.32589,-6.203033 5.55126,-11.5519974 11.33846,-14.3535347 C 212.47035,5.0779885 214.10842,5 252.20874,5 c 35.16681,0 39.64492,0.1762734 40.18427,1.5817875 0.8385,2.1851011 0.73395,6.6702805 -0.18935,8.1229255 -0.57006,0.896891 -10.5951,1.280162 -39.23469,1.5 -41.30899,0.317087 -41.53159,0.345172 -43.89781,5.538444 C 208.31429,23.404321 208,167.27748 208,512.09671 c 0,427.33999 0.18268,488.35589 1.46962,490.84449 0.82203,1.5897 2.87068,3.3304 4.64922,3.9504 2.29251,0.7992 69.36964,1.1084 240.42339,1.1084 215.41282,0 237.29965,0.1456 237.85078,1.5818 0.77822,2.028 0.77822,5.8084 0,7.8364 -0.55125,1.4366 -22.61235,1.576 -240.25,1.5184 -154.9743,-0.041 -240.51573,-0.4117 -242.11313,-1.0492 z m 521.58935,-0.4373 c -0.78912,-2.0564 -0.79498,-5.8285 -0.0122,-7.8683 0.53856,-1.4035 4.83367,-1.5818 38.09887,-1.5818 40.77752,0 42.71564,-0.2402 45.15558,-5.5952 1.57664,-3.46038 1.64356,-977.202349 0.0674,-980.661643 -2.55618,-5.610203 14.68023,-5.221383 -243.87489,-5.501348 -188.60043,-0.204218 -238.6109,-0.517783 -239.23468,-1.5 -1.02192,-1.609122 -1.01643,-6.8830246 0.009,-8.4979204 0.63718,-1.0036216 49.16049,-1.2046307 241.3986,-1 L 813.82783,5.5 818.16391,8.5444047 C 820.54876,10.218827 823.625,13.593827 825,16.044405 L 827.5,20.5 V 512 1003.5 l -2.5,4.4556 c -1.375,2.4506 -4.45066,5.8256 -6.8348,7.5 l -4.33481,3.0444 -40.79597,0.2819 c -36.78108,0.2541 -40.85691,0.1231 -41.41519,-1.3318 z M 586.45863,950.12034 C 578.79713,946.6402 575.5226,940.18635 576.25005,930 L 576.5,926.5 420.83325,926 c -85.61671,-0.275 -155.86826,-0.725 -156.11455,-1 -0.24628,-0.275 -0.97458,-1.5125 -1.61843,-2.75 -1.21784,-2.34072 -0.1374,-5.85757 2.29943,-7.48469 0.60517,-0.40408 72.39393,-0.74158 159.53058,-0.75 L 583.36056,914 l 6.06972,-3.91021 C 597.45309,904.92138 603.57909,903 612.03495,903 H 619 l 0.0153,-58.25 c 0.008,-32.0375 0.39052,-58.84169 0.84911,-59.56487 0.53882,-0.84969 2.39076,-1.20348 5.23469,-1 L 629.5,784.5 630,849 l 0.5,64.5 63.42957,0.25752 c 57.27523,0.23254 63.6062,0.41737 65.25,1.90499 2.34085,2.11844 2.3366,6.56039 -0.008,8.6825 C 757.50991,925.84851 751.51541,926 693.68122,926 h -63.66131 l -2.85372,6.25 c -3.62729,7.94421 -10.71896,14.69068 -18.50428,17.60354 -7.23993,2.7088 -16.58014,2.82104 -22.20328,0.2668 z M 265.3997,825.23469 c -2.44779,-1.63444 -3.51876,-5.14222 -2.28518,-7.48469 0.65169,-1.2375 1.68002,-2.58061 2.28518,-2.98469 0.60517,-0.40408 75.41466,-0.74158 166.24331,-0.75 149.6753,-0.0139 165.19986,0.13284 165.75,1.56648 0.78051,2.03396 0.78051,6.80246 0,8.83642 -0.55014,1.43364 -16.0747,1.58036 -165.75,1.56648 -90.82865,-0.008 -165.63814,-0.34592 -166.24331,-0.75 z m 386.20729,-0.81648 C 651.27314,823.54823 651,821.56003 651,820 c 0,-6.44534 -4.0045,-6 53.952,-6 49.82175,0 52.82954,0.10112 54.39301,1.82874 2.1857,2.41517 2.10326,6.4556 -0.17375,8.51627 -1.65284,1.4958 -6.88473,1.65499 -54.39301,1.65499 -47.00925,0 -52.62842,-0.16716 -53.17126,-1.58179 z M 265.3997,725.23469 c -2.44779,-1.63444 -3.51876,-5.14222 -2.28518,-7.48469 0.65169,-1.2375 1.68002,-2.58061 2.28518,-2.98469 0.60517,-0.40408 111.61806,-0.74158 246.69531,-0.75 236.66917,-0.0148 245.65516,0.0512 247.25,1.81343 2.1857,2.41517 2.10326,6.4556 -0.17375,8.51627 -1.6913,1.53061 -20.27317,1.65384 -247.25,1.63968 -134.98169,-0.008 -245.91639,-0.34592 -246.52156,-0.75 z M 329.45863,648.1824 C 322.0617,644.70885 318.16892,637.43292 319.19563,629 L 319.5,626.5 292.33154,626 c -14.94265,-0.275 -27.3692,-0.725 -27.61454,-1 -0.24535,-0.275 -0.97288,-1.5125 -1.61673,-2.75 -1.21784,-2.34072 -0.1374,-5.85757 2.29943,-7.48469 0.60517,-0.40408 14.16241,-0.74158 30.12721,-0.75 L 324.55382,614 l 5.47309,-4.12965 c 8.2913,-6.25609 13.21814,-8.08823 23.22309,-8.63596 l 8.75,-0.47903 0.0153,-58.12768 c 0.008,-31.97022 0.39052,-58.71937 0.84911,-59.44255 0.53882,-0.84969 2.39076,-1.20348 5.23469,-1 L 372.5,482.5 373,548 l 0.5,65.5 191.92409,0.25256 c 176.84725,0.23273 192.06753,0.38238 193.75,1.90499 2.34456,2.12179 2.34455,6.56311 0,8.6849 -1.68252,1.52266 -16.93722,1.67227 -194.24606,1.90499 L 372.50789,626.5 l -2.58321,4.78299 c -3.56037,6.59228 -9.42004,12.32254 -15.78601,15.43737 -7.24682,3.54584 -18.78682,4.22946 -24.68004,1.46204 z M 265.3997,525.23469 c -2.44779,-1.63444 -3.51876,-5.14222 -2.28518,-7.48469 0.65169,-1.2375 1.68002,-2.58061 2.28518,-2.98469 0.60517,-0.40408 17.58966,-0.74158 37.74331,-0.75 C 343.3451,513.99851 341,513.62778 341,520 c 0,6.37222 2.3451,6.00149 -37.85699,5.98469 -20.15365,-0.008 -37.13814,-0.34592 -37.74331,-0.75 z m 129.20729,-0.81648 C 394.27314,523.54823 394,521.56003 394,520 c 0,-1.56003 0.27314,-3.54823 0.60699,-4.41821 C 395.15739,514.14746 412.10912,514 576.452,514 c 174.31046,0 181.30128,0.0699 182.89301,1.82874 2.1857,2.41517 2.10326,6.4556 -0.17375,8.51627 C 757.48377,525.87217 743.35714,526 576.27825,526 412.09381,526 395.15739,525.85254 394.60699,524.41821 Z M 674.9688,470.52118 c -2.49216,-0.79976 -6.94739,-3.15669 -9.90051,-5.23764 -16.46164,-11.59985 -15.80283,-36.66222 1.14959,-43.73286 8.26149,-3.44576 17.8852,-0.46211 23.20456,7.19414 6.01304,8.65466 4.04831,22.14513 -4.02405,27.63044 -3.89367,2.64581 -3.51496,3.62474 1.40226,3.62474 14.17051,0 23.42422,-11.74033 21.79417,-27.65059 -0.35551,-3.46998 -1.75978,-11.24135 -3.1206,-17.2697 C 704.1134,409.05136 703,403.9162 703,403.66823 c 0,-0.24796 -4.44158,-0.45084 -9.87019,-0.45084 -17.58546,0 -30.54677,-5.54058 -43.67669,-18.67051 -24.45591,-24.4559 -25.99261,-59.20307 -3.98234,-90.04688 2.35489,-3.3 9.76637,-11.85 16.46995,-19 13.80538,-14.72474 12.75255,-11.46839 9.53784,-29.5 -2.06744,-11.59648 -1.58751,-34.1776 0.92453,-43.5 3.75175,-13.92307 13.69653,-29.42127 21.14766,-32.95706 4.75597,-2.25686 8.50011,-0.78852 12.36427,4.84891 7.31447,10.67109 11.69975,23.25408 12.93638,37.11929 2.29449,25.72606 -5.22998,50.14932 -21.57095,70.01597 l -5.21953,6.34569 1.97869,9.3136 c 1.08828,5.12248 2.20815,10.3261 2.48859,11.5636 0.42273,1.86536 1.18202,2.25 4.44162,2.25 17.9841,0 33.62551,13.84309 38.98182,34.5 2.48054,9.56635 0.71793,24.32523 -4.01491,33.61793 -2.78456,5.46735 -11.26568,14.24815 -16.38499,16.96394 -2.50346,1.32808 -4.55175,2.94197 -4.55175,3.58641 0,0.64444 1.15529,6.49522 2.56732,13.00172 6.09876,28.10264 4.87485,38.61872 -5.73628,49.28699 -6.46952,6.50436 -13.49879,9.37354 -23.83104,9.72727 -5.45296,0.18669 -10.12432,-0.23025 -13.0312,-1.16308 z m 24.19932,-80.2893 c 1.08954,-1.08954 -7.77366,-47.99916 -9.39645,-49.73188 -1.52747,-1.63096 -9.34342,7.74206 -10.59222,12.70238 -2.04406,8.11909 0.82241,14.66641 8.91539,20.36373 4.69017,3.3018 5.81747,5.6297 3.86529,7.98193 -1.79455,2.16231 -6.41429,1.76225 -11.9308,-1.03318 -6.07843,-3.08017 -11.42145,-8.47231 -14.87807,-15.01486 -2.31897,-4.38926 -2.64224,-6.16298 -2.64645,-14.52103 -0.004,-8.81118 0.24858,-10.03573 3.39389,-16.42476 3.21504,-6.53069 10.01726,-14.46399 16.34369,-19.06134 2.5301,-1.83861 2.6737,-2.30249 1.85505,-5.99287 -0.48803,-2.2 -1.18,-5.6875 -1.5377,-7.75 -0.36518,-2.10564 -1.22781,-3.75 -1.96723,-3.75 -1.91686,0 -16.44703,15.50331 -21.02124,22.42909 -2.15376,3.261 -5.29095,9.111 -6.97152,13 -2.81354,6.51076 -3.05734,7.98192 -3.07767,18.57091 -0.0196,10.19977 0.25473,12.06532 2.42615,16.5 3.02121,6.17017 10.82605,14.59164 16.72964,18.05137 2.43663,1.42796 7.21841,3.22892 10.62618,4.00213 6.6041,1.49844 18.23228,1.31017 19.86407,-0.32162 z m 19.50686,-10.1209 c 3.91243,-5.72768 5.50149,-18.29872 3.18692,-25.21176 -1.57033,-4.69015 -5.31429,-9.48999 -10.11498,-12.96759 C 707.53082,338.8775 703,338.04304 703,340.32067 c 0,1.19882 7.20044,37.95014 8.52718,43.52304 0.51612,2.16795 0.72349,2.23526 2.76539,0.89753 1.21409,-0.79539 3.18617,-2.87901 4.38241,-4.63026 z M 695.87891,238.59715 c 9.00212,-15.73368 12.41653,-29.44492 8.73256,-35.06737 -5.3694,-8.19474 -16.16579,4.40952 -20.23423,23.62248 -1.60187,7.56476 -1.54042,22.15665 0.10452,24.81822 1.17636,1.90341 5.68014,-3.3813 11.39715,-13.37333 z M 265.3997,425.23469 c -2.44779,-1.63444 -3.51876,-5.14222 -2.28518,-7.48469 0.65169,-1.2375 1.68002,-2.58061 2.28518,-2.98469 0.60517,-0.40408 73.2128,-0.74158 161.3503,-0.75 158.927,-0.0152 160.26651,0.001 162.25,1.98469 2.40261,2.40261 2.53847,4.78621 0.4433,7.77749 L 587.88659,426 427.1933,425.98469 c -88.38132,-0.008 -161.18843,-0.34592 -161.7936,-0.75 z m 0,-100 c -2.44779,-1.63444 -3.51876,-5.14222 -2.28518,-7.48469 0.65169,-1.2375 1.68002,-2.58061 2.28518,-2.98469 0.60517,-0.40408 73.2128,-0.74158 161.3503,-0.75 158.927,-0.0152 160.26651,0.001 162.25,1.98469 2.40261,2.40261 2.53847,4.78621 0.4433,7.77749 L 587.88659,326 427.1933,325.98469 c -88.38132,-0.008 -161.18843,-0.34592 -161.7936,-0.75 z M 385.14516,248.9905 c -7.8139,-3.33024 -11.28735,-8.43316 -11.50284,-16.89907 L 373.5,226.5 319.33275,226 c -29.79199,-0.275 -54.36854,-0.725 -54.61455,-1 -0.24601,-0.275 -0.97408,-1.5125 -1.61793,-2.75 -1.21784,-2.34072 -0.1374,-5.85757 2.29943,-7.48469 0.60517,-0.40408 26.40891,-0.74158 57.34165,-0.75 L 378.98269,214 l 4.75866,-3.65357 c 8.13632,-6.24686 14.70334,-8.7574 24.00865,-9.1784 l 8.25,-0.37326 0.0136,-57.14739 c 0.008,-31.43106 0.29082,-58.182155 0.62958,-59.446879 0.54634,-2.039708 1.13792,-2.265663 5.23635,-2 L 426.5,82.5 427,148 l 0.5,65.5 80.33084,0.5 c 78.06077,0.48587 80.37094,0.55485 81.75,2.44113 1.89147,2.58716 1.78938,4.88864 -0.33084,7.45807 l -1.75,2.12078 -80.42279,0.24001 -80.4228,0.24001 -2.6003,4.72547 c -6.34488,11.5304 -16.34383,17.90813 -28.91544,18.44341 -4.20127,0.17889 -8.69835,-0.12638 -9.99351,-0.67838 z M 264.65499,124.17126 c -2.1857,-2.41517 -2.10326,-6.4556 0.17375,-8.51627 C 266.49003,114.15154 272.47785,114 330.22175,114 400.12505,114 395,113.5253 395,120 c 0,6.47509 5.14305,6 -64.952,6 -60.47837,0 -63.82266,-0.0935 -65.39301,-1.82874 z m 183.952,0.24695 C 448.27314,123.54823 448,121.56003 448,120 c 0,-1.56003 0.27314,-3.54823 0.60699,-4.41821 C 449.15685,114.14886 463.72959,114 603.452,114 c 148.1533,0 154.30331,0.0721 155.89301,1.82874 2.1857,2.41517 2.10326,6.4556 -0.17375,8.51627 C 757.48625,125.86992 745.23335,126 603.27825,126 c -139.56398,0 -154.1214,-0.14888 -154.67126,-1.58179 z"
         id="path1539" />
      <path
         style="fill:#909090"
         d="m 209.49142,1017.1361 c -4.30349,-1.9562 -10.0401,-7.8188 -11.55841,-11.8123 C 197.36026,1003.8174 197,813.29403 197,511.90278 c 0,-409.39407 0.22382,-491.50166 1.34713,-494.184899 1.86016,-4.443357 8.74063,-10.3951524 13.49807,-11.6761968 2.56061,-0.6895025 17.32431,-0.97336 41.80667,-0.803805 L 291.5,5.5 v 5 5 L 252.35367,16 c -43.81699,0.559656 -42.2247,0.27598 -44.34248,7.899909 -1.38419,4.983034 -1.38419,971.217151 0,976.200191 0.55002,1.98 1.94473,4.455 3.09937,5.5 2.04687,1.8524 8.07562,1.9124 241.24439,2.3999 L 691.5,1008.5 v 5 5 l -239,0.2292 c -229.36441,0.2199 -239.16161,0.1557 -243.00858,-1.5931 z m 522.91056,0.4691 c -0.29439,-0.7672 -0.39276,-3.1297 -0.21861,-5.25 L 732.5,1008.5 771.64614,1008 c 43.8168,-0.5597 42.22491,-0.2761 44.34267,-7.8999 1.38419,-4.98304 1.38419,-971.217157 0,-976.200191 -0.55002,-1.980051 -1.94473,-4.455051 -3.09936,-5.5 C 810.84259,16.547479 804.81385,16.487505 571.64507,16 L 332.5,15.5 v -5 -5 L 570.38544,5.2479262 c 164.60027,-0.1744177 239.09345,0.07321 241.80668,0.803805 4.72494,1.2722954 11.60616,7.2361048 13.46075,11.6661498 C 826.77618,20.40112 827,102.50871 827,511.90278 c 0,301.39125 -0.36026,491.91462 -0.93301,493.42102 -1.51857,3.9941 -7.25533,9.8564 -11.55841,11.8112 -3.65375,1.6599 -7.44143,1.823 -42.78996,1.843 -32.26509,0.018 -38.87133,-0.2124 -39.31664,-1.3728 z M 588.92142,950.63287 C 579.93069,947.4187 577.0156,943.1658 577.00659,933.25 L 577,926 H 422.22251 C 251.684,926 263,926.42642 263,920 c 0,-6.43075 -11.70035,-6 162.9757,-6 h 158.53069 l 4.95811,-3.52509 c 6.68236,-4.75098 16.37748,-7.69139 24.0355,-7.28966 l 6,0.31475 0.5,-59.5 0.5,-59.5 3.45586,-0.32871 c 2.42738,-0.23089 3.841,0.198 4.75,1.44113 C 629.73245,787.01636 630,800.47079 630,850.69113 V 914 h 63.5 c 62.16667,0 63.54199,0.042 65.5,2 2.35445,2.35445 2.54768,4.86857 0.58095,7.55887 -1.37247,1.87741 -3.52814,1.95754 -65.66579,2.44113 l -64.24674,0.5 -3.20876,6.28264 c -3.74067,7.32411 -5.5016,9.44424 -10.98774,13.22911 -7.73355,5.33536 -19.04541,7.30419 -26.5505,4.62112 z M 265.22672,824.44625 c -3.05221,-2.13785 -2.99769,-6.89499 0.10231,-8.92618 2.06805,-1.35504 20.7528,-1.49769 166.75,-1.27306 L 596.5,814.5 v 5.5 5.5 l -164.52328,0.25295 c -147.68688,0.22707 -164.75114,0.0933 -166.75,-1.3067 z m 387.17881,0.16815 c -0.29244,-0.76207 -0.39082,-3.34957 -0.21862,-5.75 L 652.5,814.5 l 52.24109,-0.25891 c 51.16259,-0.25357 52.28255,-0.21745 54.25,1.75 2.55465,2.55465 2.55788,5.45994 0.009,8.00891 -1.94875,1.94875 -3.33333,2 -54.03138,2 -43.41828,0 -52.11941,-0.22937 -52.56309,-1.3856 z M 265.22251,724.4433 C 263.79865,723.44599 263,721.8493 263,720 c 0,-6.4947 -20.54836,-6 249.22251,-6 243.44416,0 244.78838,0.0109 246.77749,2 1.1,1.1 2,2.9 2,4 0,1.1 -0.9,2.9 -2,4 -1.98911,1.98911 -3.33333,2 -246.77749,2 -219.92428,0 -245.00316,-0.15806 -247,-1.5567 z m 67.54153,-75.37964 c -4.14461,-1.3379 -9.08838,-4.67657 -10.74567,-7.25686 -0.81489,-1.26874 -1.71489,-5.2318 -2,-8.8068 L 319.5,626.5 292.90143,626 C 264.02878,625.45725 263,625.24855 263,619.93426 263,614.24804 264.40497,614 296.61362,614 h 29.16861 l 4.85889,-4.01905 c 6.96936,-5.76473 14.14602,-8.31845 23.85888,-8.48984 l 8,-0.14117 0.5,-59.42497 0.5,-59.42497 3.45586,-0.32871 c 2.42738,-0.23089 3.841,0.198 4.75,1.44113 C 372.73295,485.01705 373,498.6526 373,549.69113 V 614 h 192 c 190.66667,0 192.01389,0.0139 194,2 1.1,1.1 2,2.9 2,4 0,1.1 -0.9,2.9 -2,4 -1.98614,1.98614 -3.33333,2 -194.44136,2 H 372.11728 l -3.28974,6.1722 c -3.64015,6.82961 -12.0211,13.93692 -18.6514,15.81696 -5.42067,1.53705 -14.28467,2.08405 -17.4121,1.0745 z M 265.23995,524.45552 c -3.0727,-2.15221 -3.01747,-6.89996 0.10406,-8.94527 2.01776,-1.32208 7.34157,-1.49927 38.25,-1.27305 L 339.5,514.5 v 5.5 5.5 l -36.01005,0.26222 c -31.37793,0.22849 -36.29818,0.0604 -38.25,-1.3067 z m 130.16558,0.15888 c -0.29244,-0.76207 -0.39082,-3.34957 -0.21862,-5.75 L 395.5,514.5 576.24729,514.24729 c 179.66535,-0.2512 180.75928,-0.24072 182.75,1.75 2.54881,2.54881 2.54979,5.45563 0.003,8.00271 -1.98523,1.98523 -3.33333,2 -182.53138,2 -152.92503,0 -180.6127,-0.21188 -181.06309,-1.3856 z m 282.56672,-53.97294 c -10.04607,-2.16437 -18.96203,-9.04677 -22.57839,-17.42869 -2.44397,-5.66457 -2.17649,-15.96462 0.56145,-21.62045 3.34781,-6.91565 7.87166,-9.92284 15.67483,-10.41971 7.74994,-0.49348 11.19939,0.78942 15.79252,5.87346 5.60492,6.20398 6.98895,14.24959 3.69768,21.4953 -1.7421,3.83522 -7.21,9.45863 -9.19707,9.45863 -0.5078,0 -0.92327,0.45 -0.92327,1 0,1.56727 10.65592,1.1703 14.78212,-0.55068 9.57598,-3.99402 13.83531,-12.50804 12.9335,-25.85289 -0.51968,-7.6902 -4.00625,-25.63831 -5.51209,-28.37504 -0.4885,-0.88782 -4.06554,-1.36958 -11.70353,-1.57623 -12.37938,-0.33492 -19.30142,-2.24724 -29.25902,-8.08323 -22.24759,-13.03896 -34.98717,-39.35414 -31.29066,-64.63473 2.8028,-19.16851 10.77102,-32.75406 32.93834,-56.15879 C 669.9999,267.31603 675,261.89497 675,261.72159 c 0,-0.17338 -0.9863,-4.56916 -2.19178,-9.76841 -3.09245,-13.3378 -3.08723,-37.85261 0.0105,-49.2399 3.05151,-11.2174 9.2659,-22.55743 15.69224,-28.63519 9.16471,-8.6676 14.14707,-6.65019 21.97748,8.89893 15.09376,29.97221 9.06334,72.9311 -13.84603,98.63483 l -4.9994,5.60921 2.28443,11.13947 c 1.25644,6.12671 2.66076,11.60425 3.12071,12.17231 0.45996,0.56806 3.33915,1.13757 6.3982,1.26557 9.0426,0.3784 16.18003,3.65251 23.1382,10.61408 21.04359,21.05385 18.33379,56.68344 -5.48281,72.09032 l -6.81967,4.41162 3.35506,16.29279 c 1.84756,8.97208 3.35682,19.30885 3.35897,23.00527 0.01,16.6687 -10.89904,29.67379 -27.42975,32.70093 -7.08513,1.29744 -8.41747,1.2742 -15.59409,-0.27196 z M 697.75,391.36971 c 1.44152,-0.38631 2.25019,-1.36954 2.25053,-2.73634 C 700.00186,383.34107 690.63426,340 689.48908,340 c -2.46056,0 -6.43444,4.18898 -9.05492,9.54504 -2.11889,4.33086 -2.58196,6.45131 -2.18261,9.99436 0.66023,5.85751 4.7365,11.9037 9.74957,14.46117 2.89915,1.47903 3.99888,2.66701 3.99888,4.31975 0,10.70885 -19.43337,1.16488 -26.5313,-13.02984 -2.50236,-5.00432 -2.90044,-6.95155 -2.93209,-14.34234 -0.0338,-7.88764 0.25163,-9.13508 3.67441,-16.0606 3.49092,-7.0634 11.70645,-16.34162 17.18511,-19.40803 1.68978,-0.94577 1.73337,-1.57783 0.59537,-8.63224 -0.67535,-4.18646 -1.59819,-8.21087 -2.05075,-8.94314 -2.10554,-3.40684 -21.02115,17.66355 -27.32832,30.44143 -7.42061,15.03366 -8.30706,28.29898 -2.6928,40.29638 4.84262,10.34846 14.13964,18.32819 25.58037,21.95591 4.20469,1.33326 16.41803,1.79879 20.25,0.77186 z m 19.15667,-8.58545 c 6.43873,-6.58569 8.17818,-22.20783 3.51474,-31.56613 -1.41823,-2.84601 -4.31074,-6.54645 -6.42781,-8.2232 -4.46324,-3.53495 -9.76034,-5.64037 -10.99254,-4.36917 -0.69132,0.71321 6.85473,41.81494 8.46816,46.12424 0.73771,1.97034 2.05468,1.49423 5.43745,-1.96574 z M 691.74561,245.75 C 701.3577,231.79967 706,220.26863 706,210.34345 c 0,-5.01012 -0.42038,-6.76383 -2,-8.34345 -2.44425,-2.44425 -3.82601,-2.50243 -7.02749,-0.29589 -3.53773,2.43828 -4.72604,4.04334 -7.99276,10.79589 -4.21233,8.70721 -5.98159,16.70229 -5.9661,26.9601 0.0242,16.01565 1.36515,16.98159 8.73196,6.2899 z M 265.22251,424.4433 C 263.79865,423.44599 263,421.8493 263,420 c 0,-6.4311 -11.73236,-6 163.28825,-6 106.35571,0 159.47481,0.33801 160.75457,1.02292 4.16931,2.23134 4.46262,7.60423 0.55748,10.21177 -0.60517,0.40408 -72.88767,0.74158 -160.62779,0.75 -142.78251,0.0137 -159.76079,-0.14809 -161.75,-1.54139 z m 0,-100 C 263.79865,323.44599 263,321.8493 263,320 c 0,-6.4311 -11.73236,-6 163.28825,-6 106.35571,0 159.47481,0.33801 160.75457,1.02292 4.16931,2.23134 4.46262,7.60423 0.55748,10.21177 -0.60517,0.40408 -72.88767,0.74158 -160.62779,0.75 -142.78251,0.0137 -159.76079,-0.14809 -161.75,-1.54139 z M 386.76404,249.06171 C 377.96214,246.22668 374,240.80596 374,231.59887 V 226 H 320.72251 C 261.99077,226 263,226.10491 263,220 c 0,-6.13186 -1.3421,-6 61.06752,-6 55.24407,0 56.66632,-0.0484 58.42214,-1.98857 5.78528,-6.39267 19.28066,-11.46391 28.85903,-10.84453 L 416.5,201.5 417,142 l 0.5,-59.5 3.31532,-0.318231 C 427.35376,81.55416 427,77.725175 427,149.12244 V 214 h 79.06574 c 51.97912,0 79.72054,0.35043 80.97708,1.02292 4.16931,2.23134 4.46262,7.60423 0.55748,10.21177 -0.60517,0.40408 -37.15999,0.74158 -81.23295,0.75 L 426.2347,226 l -2.6783,5.47425 c -4.87743,9.96911 -15.6711,16.99977 -27.5564,17.94937 -3.575,0.28563 -7.73118,0.12277 -9.23596,-0.36191 z M 265.00745,124.00745 C 263.90335,122.90335 263,121.1 263,120 c 0,-1.1 0.90335,-2.90335 2.00745,-4.00745 1.9732,-1.9732 3.0868,-2.00307 65.25,-1.75 L 393.5,114.5 v 5.5 5.5 l -63.24255,0.25745 c -62.1632,0.25307 -63.2768,0.2232 -65.25,-1.75 z m 184.39808,0.60695 c -0.29244,-0.76207 -0.39082,-3.34957 -0.21862,-5.75 L 449.5,114.5 603.24683,114.24683 c 152.66512,-0.2514 153.76092,-0.23908 155.75,1.75 2.54924,2.54924 2.55039,5.45595 0.003,8.00317 -1.98263,1.98263 -3.33333,2 -155.53138,2 -129.91583,0 -153.61317,-0.21313 -154.06309,-1.3856 z"
         id="path1538" />
      <path
         style="fill:#7c7c7c"
         d="m 213.34024,1018.0424 c -5.1153,-1.2188 -9.60556,-4.3438 -12.8264,-8.9265 L 197.5,1004.8277 197.20852,514.16387 c -0.20543,-345.80939 0.0239,-491.757646 0.77664,-494.368804 1.3968,-4.845013 5.2676,-9.348468 10.39063,-12.0889158 4.00769,-2.143821 5.18133,-2.2150934 41.54101,-2.522695 20.57923,-0.1740996 38.46673,-0.053026 39.75,0.2690521 1.99939,0.5018164 2.3332,1.2113719 2.3332,4.9595557 0,3.065988 -0.47301,4.555471 -1.58179,4.980948 C 289.54823,15.726855 272.00533,16 251.43399,16 l -37.40244,0 -3.26577,2.917971 L 207.5,21.835942 V 511.85231 1001.8687 l 2.93709,3.0656 2.93709,3.0657 H 451.1053 c 130.75212,0 238.44293,0.2731 239.31291,0.607 2.21115,0.8485 2.21115,8.9375 0,9.786 -2.30999,0.8864 -473.33909,0.5403 -477.07797,-0.3506 z m 519.90976,0.3232 c -1.90457,-0.811 -1.6259,-9.0074 0.33179,-9.7586 0.86998,-0.3339 18.56079,-0.607 39.31291,-0.607 h 37.73112 l 2.93709,-3.0657 2.93709,-3.0656 V 511.85231 21.835942 L 813.23422,18.917971 809.96845,16 572.56601,16 C 441.99467,16 334.45177,15.726855 333.58179,15.393011 332.47301,14.967534 332,13.478051 332,10.412063 332,6.7049966 332.34305,5.9546263 334.25,5.4905968 335.4875,5.1894678 443.375,5.0683944 574,5.2215448 L 811.5,5.5 l 4.12421,2.2061502 c 5.12303,2.7404478 8.99383,7.2439028 10.39063,12.0889158 0.75279,2.611158 0.98207,148.559414 0.77664,494.368804 L 826.5,1004.8277 l -3.0444,4.3362 c -1.67443,2.3848 -5.04943,5.4611 -7.5,6.8361 l -4.4556,2.5 -38.5,0.1989 c -21.175,0.1094 -39.0625,-0.041 -39.75,-0.3333 z M 591.90509,951.03975 c -5.09953,-0.9568 -10.01805,-4.08499 -12.72607,-8.09382 -1.96243,-2.9051 -2.27686,-4.46609 -2.00339,-9.94593 L 577.5,926.5 421.6693,926 c -152.80054,-0.49028 -155.85829,-0.53775 -157.25,-2.44113 -2.65399,-3.62977 -1.56895,-6.79108 2.91615,-8.49631 C 269.26537,914.32881 318.86865,914 427.63182,914 h 157.50162 l 3.18328,-2.38578 c 7.83471,-5.8719 18.2289,-8.85034 27.43328,-7.86097 l 4.25,0.45682 V 844.62409 785.0381 l 2.42783,-0.60934 c 1.3353,-0.33514 3.35701,-0.31444 4.49267,0.046 2.05465,0.65212 2.06612,0.97241 2.32217,64.84029 L 629.5,913.5 l 63.83881,0.5 63.8388,0.5 1.9112,2.36078 c 2.37005,2.92759 2.37004,3.35088 -10e-5,6.27844 l -1.91128,2.36078 -64.25563,0.5 -64.25564,0.5 -1.4336,4.30158 c -2.13813,6.41549 -11.13746,15.65278 -17.54559,18.00951 -6.26571,2.30436 -12.92798,3.13936 -17.78188,2.22866 z M 266.33794,825.00137 c -4.64872,-1.87462 -4.10616,-8.18931 0.85214,-9.91779 3.34198,-1.16502 325.21619,-1.63238 328.22813,-0.47659 2.23501,0.85765 2.23501,9.92837 0,10.78602 -2.51291,0.96429 -326.67447,0.57851 -329.08027,-0.39164 z M 653.25,825.33772 c -0.76119,-0.30715 -1.25,-2.41958 -1.25,-5.402 0,-4.24781 0.29853,-4.97129 2.25,-5.45292 1.2375,-0.30541 24.9025,-0.42649 52.58888,-0.26905 l 50.33889,0.28625 1.91111,2.36078 c 2.46716,3.04766 2.41173,3.72952 -0.54343,6.68467 L 756.09091,826 l -50.79546,-0.0789 c -27.9375,-0.0434 -51.35795,-0.30592 -52.04545,-0.58333 z M 266.33794,725.00137 c -4.98589,-2.01058 -4.04274,-8.43027 1.47245,-10.02239 2.57747,-0.74406 76.88693,-0.97677 246.52799,-0.77205 l 242.83839,0.29307 1.91161,2.36078 c 2.46771,3.04754 2.41233,3.72942 -0.54293,6.68467 L 756.09091,726 512.29545,725.93661 c -136.15219,-0.0354 -244.75007,-0.44834 -245.95751,-0.93524 z M 334.90509,649.0426 C 325.48176,647.26707 320,640.94479 320,631.85212 V 626 h -25.4349 c -13.9892,0 -26.55069,-0.42422 -27.91443,-0.94272 -2.74677,-1.04432 -4.10966,-4.03576 -3.1772,-6.9737 C 264.59648,614.54529 269.24255,614 298.26721,614 h 27.96876 l 3.41893,-3.00186 c 7.48201,-6.56929 19.23727,-10.3045 29.0951,-9.24489 l 4.25,0.45682 V 542.62409 483.0381 l 2.42783,-0.60934 c 1.3353,-0.33514 3.35706,-0.31442 4.49278,0.046 2.05527,0.65232 2.06616,0.96084 2.32217,65.8403 L 372.5,613.5 l 192.33841,0.5 192.33842,0.5 1.91158,2.36078 c 2.37053,2.92758 2.37053,3.35087 -10e-6,6.27844 l -1.9116,2.36078 -192.75781,0.5 -192.75781,0.5 -2.37651,4.5 c -3.0944,5.85935 -8.34061,11.17087 -14.1366,14.31258 -4.10561,2.22544 -6.3197,2.84592 -14.64807,4.10501 -1.1,0.1663 -3.61771,-0.002 -5.59491,-0.37499 z M 266.33794,525.00137 c -4.64872,-1.87462 -4.10616,-8.18931 0.85214,-9.91779 3.30957,-1.15372 68.32983,-1.58878 71.22813,-0.47659 2.23501,0.85765 2.23501,9.92837 0,10.78602 -2.4759,0.95009 -69.65821,0.58506 -72.08027,-0.39164 z M 396.25,525.33772 c -0.76119,-0.30715 -1.25,-2.41958 -1.25,-5.402 0,-4.25074 0.29718,-4.96965 2.25,-5.44302 1.2375,-0.29997 82.72728,-0.42104 181.08841,-0.26905 l 178.8384,0.27635 1.9116,2.36078 c 2.46768,3.04754 2.41229,3.72943 -0.54296,6.68467 L 756.09091,526 576.79545,525.92105 C 478.18295,525.87763 396.9375,525.61513 396.25,525.33772 Z m 278.59418,-55.67538 c -13.99814,-5.21475 -20.86696,-14.08199 -20.82222,-26.88022 0.0503,-14.37646 9.11919,-23.04075 22.53413,-21.52869 15.89755,1.79189 21.64595,25.56204 8.35692,34.55665 -1.87715,1.27054 -3.54511,2.67934 -3.70656,3.13066 -0.56358,1.57539 5.06108,2.14552 10.34493,1.04859 7.43863,-1.54425 11.40973,-4.56215 14.847,-11.28319 2.47156,-4.83275 2.92697,-6.88094 2.88442,-12.97249 -0.0447,-6.39956 -2.03607,-17.67892 -5.18523,-29.36995 l -1.04074,-3.8637 -10.27842,-0.0422 c -7.62597,-0.0313 -12.08482,-0.6011 -17.27841,-2.20807 -16.20274,-5.01334 -30.4192,-17.25561 -38.03104,-32.74976 -4.8376,-9.84711 -6.52205,-17.33692 -6.52205,-29 0,-21.8942 7.48993,-36.87889 31.2536,-62.52738 l 13.0769,-14.1141 -1.68515,-7.66903 c -5.59062,-25.44272 -3.21889,-51.88894 6.1153,-68.18949 5.8771,-10.26333 13.06816,-16.98825 18.17436,-16.99626 8.00467,-0.0126 18.95368,23.9315 20.68168,45.22816 1.7728,21.84881 -6.81372,48.77107 -21.0656,66.04929 -6.30624,7.64535 -6.33651,7.85284 -3.1685,21.71881 l 2.1705,9.5 7.50897,0.61102 c 9.01615,0.73366 16.16482,4.01014 22.43945,10.28477 21.25987,21.25987 17.49409,58.89662 -7.29261,72.88537 -4.74009,2.67514 -5.28433,3.31201 -4.80088,5.61801 7.10704,33.89967 7.49051,37.25213 5.25794,45.96671 -2.53741,9.90447 -7.58111,15.96273 -17.64355,21.19258 -5.55564,2.88749 -21.19689,3.81234 -27.12514,1.60388 z m 24.41483,-78.83017 c 1.18114,-0.61251 1.58285,-1.63821 1.22278,-3.12218 -0.29493,-1.21549 -2.47665,-12.24016 -4.84827,-24.49925 -2.37162,-12.25909 -4.77913,-22.75635 -5.35002,-23.32724 -1.5013,-1.5013 -7.6728,4.22351 -10.21557,9.47617 -4.70865,9.72677 -1.25523,19.4975 9.18207,25.97876 3.4059,2.11497 3.5693,5.33115 0.34547,6.80002 -5.20719,2.37256 -18.87397,-6.88355 -23.47237,-15.89715 -4.63888,-9.09296 -4.45661,-21.43251 0.47041,-31.84738 2.88518,-6.09877 9.94898,-14.33001 14.95002,-17.42082 2.12598,-1.31393 3.45647,-2.92653 3.45647,-4.18936 0,-4.81748 -2.48345,-15.03203 -3.77523,-15.52773 -1.68793,-0.64772 -12.51476,9.79825 -18.90869,18.24351 -13.63623,18.01108 -17.81839,37.98638 -11.04889,52.77292 5.52684,12.07222 18.29209,21.72809 31.23281,23.6251 6.3459,0.93025 13.82795,0.45462 16.75901,-1.06537 z m 17.51783,-7.09463 c 4.20532,-4.47635 6.51982,-11.61807 6.55281,-20.21961 0.0341,-8.90082 -1.33607,-12.65941 -6.6916,-18.35556 C 711.40096,339.5922 702,335.83549 702,339.31287 c 0,0.72207 2.025,11.38128 4.5,23.68713 2.475,12.30585 4.5,22.51506 4.5,22.68713 0,1.25386 4.05207,-0.11365 5.77684,-1.94959 z M 696.35438,239.16228 c 6.6139,-10.97263 9.82616,-20.06252 10.00306,-28.30611 0.11297,-5.26478 -0.25285,-7.081 -1.76243,-8.75 -5.75634,-6.36426 -14.34131,2.30589 -19.6984,19.89383 -2.8248,9.27415 -3.37682,27.51094 -0.92227,30.46886 1.38503,1.66906 1.65761,1.56378 4.5,-1.73818 1.66411,-1.93318 5.21013,-7.13896 7.88004,-11.5684 z M 266.33794,425.00137 c -4.64872,-1.87462 -4.10616,-8.18931 0.85214,-9.91779 4.84669,-1.68956 316.45964,-1.48427 319.80992,0.21069 1.93725,0.98009 2.5,2.03934 2.5,4.70573 0,2.66639 -0.56275,3.72564 -2.5,4.70573 -1.98542,1.00445 -35.02146,1.25477 -160.5,1.21614 -87.40073,-0.0269 -158.96607,-0.43822 -160.16206,-0.9205 z m 0,-100 c -4.64872,-1.87462 -4.10616,-8.18931 0.85214,-9.91779 4.84669,-1.68956 316.45964,-1.48427 319.80992,0.21069 1.93725,0.98009 2.5,2.03934 2.5,4.70573 0,2.66639 -0.56275,3.72564 -2.5,4.70573 -1.98542,1.00445 -35.02146,1.25477 -160.5,1.21614 -87.40073,-0.0269 -158.96607,-0.43822 -160.16206,-0.9205 z M 388.90509,249.0426 c -9.27742,-1.74804 -14.12947,-7.20261 -14.72488,-16.55337 L 373.76701,226 H 321.4486 c -30.33938,0 -53.36005,-0.39604 -54.79793,-0.94272 -4.93674,-1.87694 -4.59566,-8.1836 0.53941,-9.9737 C 269.27596,214.35644 288.3348,214 325.12894,214 h 54.83049 l 5.27028,-4.00792 c 7.63836,-5.80878 14.65285,-8.19881 24.0124,-8.18168 l 7.7421,0.0142 0.2579,-59.05343 c 0.28278,-64.753094 -0.002,-61.931706 6.10311,-60.399342 L 426,83.038104 v 63.899156 c 0,35.14454 0.27314,64.61097 0.60699,65.48095 0.54631,1.42366 8.46901,1.58326 79.25,1.59653 61.39663,0.0115 79.19126,0.29211 81.14301,1.27953 1.93725,0.98009 2.5,2.03934 2.5,4.70573 0,2.66639 -0.56275,3.72564 -2.5,4.70573 -1.95222,0.98766 -19.86005,1.26802 -81.72968,1.27953 L 426.04065,226 l -2.1249,4.25 c -2.86384,5.72794 -9.42172,12.40906 -14.97098,15.25233 -4.02514,2.06236 -6.34137,2.69018 -14.44477,3.91526 -1.1,0.1663 -3.61771,-0.002 -5.59491,-0.37499 z M 265.45455,123.54545 c -2.95519,-2.95518 -3.0106,-3.63705 -0.54328,-6.68467 l 1.91126,-2.36078 61.33874,-0.28389 c 33.7363,-0.15614 62.35123,-0.0351 63.58873,0.26905 1.94994,0.4792 2.25,1.20293 2.25,5.4269 0,3.52193 -0.43879,5.04234 -1.58179,5.48095 C 391.54823,125.72686 363.17777,126 329.37276,126 H 267.90909 Z M 450.25,125.33772 c -0.76119,-0.30715 -1.25,-2.41958 -1.25,-5.402 0,-4.25053 0.29728,-4.96977 2.25,-5.44375 1.2375,-0.30037 70.57729,-0.42144 154.08843,-0.26905 l 151.83842,0.27708 1.91158,2.36078 c 2.46765,3.04755 2.41227,3.72943 -0.54298,6.68467 L 756.09091,126 603.79545,125.92105 C 520.03295,125.87763 450.9375,125.61513 450.25,125.33772 Z"
         id="path1537" />
      <path
         style="fill:#545454"
         d="m 209.5,1016.4317 c -3.95094,-2.0521 -8.27858,-6.2092 -10.33928,-9.9317 -1.5403,-2.7825 -1.67921,-38.48579 -1.91576,-492.37443 -0.17823,-341.99958 0.0638,-490.558621 0.80381,-493.306674 0.58236,-2.162735 2.63824,-5.68045 4.56861,-7.817143 C 208.93489,6.009029 209.63658,5.9146432 253,6.2247093 L 291.5,6.5 v 4 4 L 253,15 c -40.48834,0.525823 -41.21337,0.611136 -44.44872,5.230243 C 207.1547,22.224147 207,71.265381 207,512 c 0,440.73462 0.1547,489.7759 1.55128,491.7698 3.48327,4.973 -9.36584,4.6981 244.44872,5.2302 l 238.5,0.5 v 4 4 l -239.5,0.245 c -215.22595,0.2201 -239.80406,0.087 -242.5,-1.3133 z m 522.90654,0.1853 c -0.30563,-0.7964 -0.40963,-2.7236 -0.23111,-4.2825 L 732.5,1009.5 771.04599,1009 c 34.94278,-0.4533 38.80293,-0.6685 41.29464,-2.3023 1.51175,-0.9913 3.17855,-2.9331 3.704,-4.3151 C 816.64706,1000.7981 817,819.32372 817,511.15741 817,71.18414 816.84529,22.224134 815.44872,20.230243 811.96545,15.257185 824.81456,15.532106 571,15 L 332.5,14.5 v -4 -4 l 238,-0.290985 c 169.07266,-0.2067127 239.09084,0.023559 241.76658,0.795109 4.4226,1.2752574 10.13353,6.011084 12.5345,10.39432 1.59084,2.904246 1.71764,34.082779 1.99314,490.101556 0.16182,267.85 0.0198,489.33979 -0.31565,492.19954 -0.69554,5.92986 -3.28915,10.25466 -8.82025,14.70766 l -3.84168,3.0928 -40.42721,0.2826 c -34.55087,0.2415 -40.50797,0.072 -40.98289,-1.1656 z M 585.92025,948.67623 C 579.69314,945.38325 577.5,941.16999 577.5,932.5 v -7 l -155.729,-0.25313 -155.729,-0.25314 -1.63601,-2.49686 c -1.51482,-2.31192 -1.51467,-2.68206 0.002,-4.99687 l 1.63807,-2.5 h 159.23014 159.23014 l 4.90504,-3.48736 c 7.6626,-5.4479 14.82649,-7.7274 23.0855,-7.34564 L 619.5,904.4907 620,844.99535 620.5,785.5 h 4 4 l 0.5,64.5 0.5,64.5 64,0.5 c 35.2,0.275 64.5625,0.86406 65.25,1.30902 1.6617,1.07547 1.59889,6.15654 -0.0935,7.56108 -0.94979,0.78825 -20.06807,1.19043 -65.24227,1.37244 l -63.89879,0.25746 -3.2115,6.5 c -5.9846,12.1127 -16.7448,19 -29.68419,19 -4.67068,0 -7.44436,-0.6024 -10.69952,-2.32377 z M 264.40998,822.50296 c -1.52,-2.31982 -1.52,-2.6861 0,-5.00592 l 1.64,-2.50295 165.22501,0.25295 L 596.5,815.5 v 4.5 4.5 l -165.22501,0.25296 -165.22501,0.25295 z m 387.98818,1.09224 c -0.29649,-0.77265 -0.39487,-2.91015 -0.21862,-4.75 L 652.5,815.5 l 51.79888,-0.25903 c 34.56995,-0.17287 52.44784,0.0883 53.75,0.78519 2.20835,1.18187 2.66076,5.8642 0.75112,7.77384 -0.90276,0.90276 -14.16253,1.2 -53.53138,1.2 -44.0182,0 -52.41703,-0.22316 -52.87046,-1.4048 z M 264.40804,722.5 c -1.51741,-2.31587 -1.51741,-2.68413 0,-5 l 1.63807,-2.5 h 245.04268 c 167.00178,0 245.65871,0.32968 246.97695,1.03518 2.19222,1.17324 2.63573,5.86335 0.73426,7.76482 -0.92682,0.92682 -57.15043,1.2 -246.97695,1.2 H 266.04611 Z m 64.49924,-75.79375 c -5.74886,-2.99198 -9.27595,-9.33021 -8.51254,-15.29718 0.31387,-2.45327 0.0594,-4.55493 -0.63567,-5.25 C 318.93912,625.33912 310.9118,625 292.32305,625 h -26.27694 l -1.63807,-2.5 c -1.51741,-2.31587 -1.51741,-2.68413 0,-5 l 1.63807,-2.5 h 29.88233 29.88233 l 4.34462,-3.65316 c 7.56524,-6.3612 14.12544,-8.82914 23.84461,-8.97028 l 8.5,-0.12343 0.5,-59.37657 0.5,-59.37656 h 4 4 l 0.5,65.5 0.5,65.5 192.5,0.5 c 105.875,0.275 193.0625,0.86406 193.75,1.30902 1.66446,1.07726 1.59772,6.15751 -0.0994,7.56598 -0.98328,0.81605 -53.66831,1.18842 -194.18209,1.37245 l -192.8327,0.25255 -2.98193,5.85639 c -7.20873,14.15771 -27.20165,21.87883 -39.74661,15.34986 z M 264.4161,522.51229 c -1.52816,-2.33226 -1.52816,-2.69232 0,-5.02458 l 1.64611,-2.51229 36.71889,0.26229 L 339.5,515.5 v 4.5 4.5 l -36.7189,0.26229 -36.71889,0.26229 z m 130.98206,1.08291 c -0.29649,-0.77265 -0.39487,-2.91015 -0.21862,-4.75 L 395.5,515.5 575.81066,515.24728 c 123.15407,-0.17261 180.92541,0.0763 182.25,0.78518 2.19708,1.17585 2.64328,5.8636 0.73934,7.76754 -0.92449,0.92449 -42.71809,1.2 -182.03138,1.2 -154.37029,0 -180.91027,-0.20557 -181.37046,-1.4048 z m 278.76592,-54.65551 c -8.97322,-2.92453 -16.33151,-10.1487 -18.6975,-18.3567 -4.9199,-17.06794 5.61686,-31.44712 21.31839,-29.09253 3.23035,0.48442 5.60121,1.74609 8.77005,4.66702 5.17465,4.76983 6.83196,9.16249 6.22381,16.49606 -0.50238,6.05803 -2.6125,9.58758 -7.87078,13.16528 -4.69738,3.19606 -4.32845,4.62188 1.28956,4.98383 13.5797,0.8749 23.43729,-8.07444 24.53369,-22.27324 0.32433,-4.20029 -0.34516,-9.93663 -2.20688,-18.90898 -3.97208,-19.14303 -2.24153,-17.2966 -16.70287,-17.82121 -11.06024,-0.40122 -13.0977,-0.77451 -19.90366,-3.64652 -34.93702,-14.74294 -49.69216,-54.3331 -33.0406,-88.6527 5.52353,-11.38424 12.12133,-20.21181 25.66704,-34.3414 l 11.83142,-12.34139 -1.26621,-7.15861 c -2.84275,-16.07173 -3.30381,-21.74672 -2.77516,-34.1586 0.30454,-7.15 1.28768,-15.7 2.18476,-19 4.73937,-17.43422 18.46904,-35.22547 25.46925,-33.00368 4.86436,1.54388 12.32567,14.09909 16.64203,28.00368 1.52082,4.89909 1.85231,9.11924 1.80664,23 -0.0511,15.53284 -0.28855,17.75788 -2.75126,25.78155 -3.53198,11.50742 -9.87752,24.2325 -15.59396,31.27147 -2.52551,3.1098 -5.40035,6.64303 -6.38853,7.85161 -1.73641,2.12369 -1.71125,2.59262 0.75,13.97639 1.40068,6.47844 2.54669,11.90752 2.54669,12.06461 0,0.1571 3.05762,0.50441 6.7947,0.77179 16.86867,1.20695 30.91482,13.85751 35.84395,32.28258 1.58591,5.92815 1.72317,17.21775 0.28519,23.45773 -2.4627,10.6867 -10.07968,21.42003 -18.62217,26.24111 -3.01142,1.69954 -5.6983,3.67117 -5.97084,4.38141 -0.27254,0.71024 0.89152,8.0613 2.58682,16.33569 5.10794,24.93085 4.0419,35.46378 -4.55732,45.02818 -9.02634,10.03947 -24.1006,13.5896 -38.19625,8.99557 z m 26.09578,-77.79955 c 0.65864,-0.65864 -0.41893,-8.35647 -3.194,-22.81706 C 691.9434,341.63048 691.27351,339 689.5983,339 c -0.72854,0 -3.37955,2.19689 -5.89113,4.88198 -5.01182,5.35803 -7.2418,11.30387 -6.17021,16.4517 1.11781,5.36982 5.31128,11.51997 9.48306,13.90787 4.43871,2.5407 5.54815,4.36892 3.87479,6.3852 -4.19767,5.05788 -18.91991,-4.25751 -25.13591,-15.90455 -1.8826,-3.52748 -2.25383,-5.78534 -2.25614,-13.7222 -0.003,-8.7616 0.25452,-10.01247 3.30738,-16.0933 3.3503,-6.67331 10.34634,-14.70463 15.41973,-17.70156 1.52499,-0.90083 2.97944,-2.32801 3.23212,-3.17151 0.68943,-2.30146 -2.78834,-17.31575 -4.11225,-17.75348 -1.56745,-0.51826 -14.02923,11.92194 -19.83547,19.80111 -9.45628,12.83235 -13.67216,24.15754 -13.67216,36.72772 0,5.29503 0.6251,9.39917 1.97117,12.94172 4.99174,13.13721 16.88227,23.35194 30.59343,26.28175 5.02414,1.07356 18.49262,0.46822 19.85315,-0.89231 z m 17.00309,-8.00943 c 4.72312,-5.22794 6.21223,-10.04295 6.2257,-20.13071 0.01,-7.44587 -0.32355,-9.06967 -2.6891,-13.09352 -2.93616,-4.99446 -7.77905,-9.16432 -13.34396,-11.48948 C 703.36695,336.70866 702,337.20043 702,340.37969 c 0,1.86501 6.65313,36.57964 8.50366,44.37031 0.77421,3.25939 2.78742,2.77709 6.75929,-1.61929 z M 689.15588,250.67135 C 700.24805,236.76966 707.7825,218.49548 706.76935,207.95136 706.18801,201.90126 704.68748,200 700.49392,200 c -5.83773,0 -12.6773,9.69398 -16.58038,23.5 -1.48212,5.24257 -1.97498,25.63277 -0.69492,28.75 1.07985,2.62972 2.98321,2.12364 5.93726,-1.57865 z M 264.40804,422.5 c -1.51741,-2.31587 -1.51741,-2.68413 0,-5 l 1.63807,-2.5 h 160.40551 c 144.48987,0 160.56144,0.15592 161.97695,1.57143 2.00703,2.00703 2.00703,4.85011 0,6.85714 C 587.01306,424.84408 570.94149,425 426.45162,425 H 266.04611 Z m 0,-100 c -1.51741,-2.31587 -1.51741,-2.68413 0,-5 l 1.63807,-2.5 h 160.40551 c 144.48987,0 160.56144,0.15592 161.97695,1.57143 2.00703,2.00703 2.00703,4.85011 0,6.85714 C 587.01306,324.84408 570.94149,325 426.45162,325 H 266.04611 Z M 383.5,246.67796 c -6.3882,-3.10322 -7.85522,-5.55393 -8.48711,-14.17796 l -0.51289,-7 -54.23258,-0.2586 -54.23259,-0.25861 -1.63242,-2.49139 c -1.5103,-2.30501 -1.50988,-2.67844 0.006,-4.9914 l 1.63807,-2.5 h 56.88233 56.88233 l 4.34462,-3.65316 c 7.39814,-6.2207 14.14372,-8.79456 23.50945,-8.97032 4.49067,-0.0843 8.65317,-0.45503 9.25,-0.82389 C 417.67521,201.0827 418,183.22286 418,141.88062 V 82.879269 l 3.75,0.310366 3.75,0.310365 0.25736,64.94553 c 0.19985,50.43212 0.53506,65.12189 1.5,65.73469 0.68345,0.43403 36.873,0.79605 80.42121,0.80447 70.63393,0.0137 79.34816,0.18489 80.75,1.58674 C 589.29286,217.43571 590,218.97857 590,220 c 0,1.02143 -0.70714,2.56429 -1.57143,3.42857 C 587.02606,224.83109 578.21343,225 506.44297,225 h -80.41418 l -2.97048,5.88449 c -5.36072,10.61952 -15.43548,17.16211 -27.45353,17.82843 -5.9896,0.33209 -7.88959,0.0127 -12.10478,-2.03496 z M 265.20733,123.80733 c -1.91449,-1.91449 -1.46847,-6.59721 0.741,-7.77968 1.30777,-0.69989 22.59615,-0.95804 64.75,-0.78518 L 393.5,115.5 v 4.5 4.5 l -63.54267,0.25733 c -48.59146,0.19678 -63.82675,-0.0267 -64.75,-0.95 z m 184.19083,-0.21213 c -0.29649,-0.77265 -0.39487,-2.91015 -0.21862,-4.75 L 449.5,115.5 602.80978,115.24681 c 104.54184,-0.17265 153.92697,0.0771 155.25,0.78519 2.19792,1.17629 2.64458,5.86364 0.74022,7.768 -0.92293,0.92293 -36.71809,1.2 -155.03138,1.2 -131.18347,0 -153.91076,-0.20682 -154.37046,-1.4048 z"
         id="path1536" />
      <path
         style="fill:#373737"
         d="m 212,1016.8261 c -5.12848,-1.4589 -9.5111,-5.1847 -11.89763,-10.1146 L 198,1002.3686 V 512.15216 C 198,73.264277 198.16105,21.550311 199.53814,18.25448 201.53226,13.481878 203.59049,11.274582 208.5,8.6435903 212.39335,6.5571552 213.53987,6.5 251.5,6.5 h 39 v 4 4 L 252,15 c -27.57418,0.358106 -39.10153,0.844922 -40.61965,1.715423 -1.16581,0.668483 -2.85513,2.765326 -3.75405,4.659652 -1.50667,3.175085 -1.61454,41.60501 -1.38034,491.784575 0.24417,469.37069 0.32435,488.44395 2.06403,491.00635 0.9955,1.4664 2.5705,3.0414 3.5,3.5 0.92951,0.4587 109.01501,1.059 240.19001,1.334 l 238.5,0.5 v 4 4 l -237.5,0.1609 c -155.12186,0.1051 -238.71399,-0.1845 -241,-0.8348 z m 521.41095,-0.1976 c -0.30805,-0.8027 -0.41404,-2.7351 -0.23552,-4.294 L 733.5,1009.5 772,1009 c 21.175,-0.275 39.2605,-0.8753 40.19001,-1.334 0.9295,-0.4586 2.5045,-2.0336 3.5,-3.5 1.73968,-2.5624 1.81986,-21.63566 2.06403,-491.00635 0.2342,-450.179565 0.12633,-488.60949 -1.38034,-491.784575 -0.89892,-1.894326 -2.58824,-3.991169 -3.75405,-4.659652 C 810.97912,15.774731 756.59002,15.386981 572,15 L 333.5,14.5 v -4 -4 h 239 239 l 4.15547,2.2221002 c 4.94941,2.6466468 7.96723,6.2357498 9.38644,11.1632988 0.71686,2.488986 0.95028,156.411131 0.74957,494.278471 L 825.5,1004.8277 l -3,4.2471 c -1.65,2.3359 -4.8,5.1872 -7,6.3361 -3.82474,1.9976 -5.6985,2.102 -42.76448,2.3832 -33.24586,0.2522 -38.84421,0.086 -39.32457,-1.1656 z M 590.64596,949.89356 c -9.10678,-2.13971 -12.9909,-7.66617 -12.48111,-17.75856 L 578.5,925.5 423.07525,925.24685 c -142.88347,-0.23273 -155.57202,-0.38645 -157.25,-1.90499 -2.45682,-2.2234 -2.30037,-4.89566 0.39726,-6.78516 C 268.21134,915.16367 285.10225,915 426.87812,915 h 158.4331 l 3.35893,-2.56198 c 7.03338,-5.36462 13.88908,-7.67395 23.18796,-7.81082 L 620.5,904.5 621,845 l 0.5,-59.5 h 3 3 l 0.51839,64.5 c 0.28511,35.475 0.62261,64.6125 0.75,64.75 0.12738,0.1375 28.80661,0.25 63.73161,0.25 62.16667,0 63.54199,0.042 65.5,2 1.1,1.1 2,2.45 2,3 0,0.55 -0.9,1.9 -2,3 -1.95801,1.95801 -3.33333,2 -65.51261,2 h -63.51261 l -2.3771,5.37504 c -4.67259,10.56556 -13.32593,17.60445 -24.03134,19.54781 -6.68102,1.21282 -6.63337,1.21294 -11.92038,-0.0293 z M 265.65767,823.17423 c -2.30316,-2.54497 -2.06977,-4.8581 0.67139,-6.65418 2.06797,-1.35499 20.64842,-1.49769 165.75,-1.27305 L 595.5,815.5 v 4.5 4.5 l -164.09233,0.25297 c -157.97381,0.24353 -164.15413,0.18467 -165.75,-1.57874 z m 387.74049,0.42097 c -0.29649,-0.77265 -0.39487,-2.91015 -0.21862,-4.75 L 653.5,815.5 l 51.24092,-0.25908 c 50.16254,-0.25362 51.28321,-0.21679 53.25,1.75 2.51578,2.51578 2.51726,3.5009 0.009,6.00908 -1.94774,1.94774 -3.33333,2 -53.03138,2 -42.90179,0 -51.11727,-0.22379 -51.57046,-1.4048 z M 265.65499,723.17126 c -2.2682,-2.50633 -2.0745,-4.76402 0.56752,-6.61456 1.99678,-1.3986 26.9808,-1.5567 246,-1.5567 242.44416,0 243.78843,0.0109 245.77749,2 1.1,1.1 2,2.45 2,3 0,0.55 -0.9,1.9 -2,3 -1.98909,1.98909 -3.33333,2 -246.34501,2 -235.44749,0 -244.40528,-0.0666 -246,-1.82874 z m 67.99097,-75.27795 c -4.51064,-1.05952 -9.14087,-4.1293 -10.87935,-7.21285 C 322.09048,639.48121 321.3039,635.575 321.01864,632 L 320.5,625.5 294.05998,625.23303 c -22.84188,-0.23065 -26.68633,-0.48989 -28.25,-1.90499 -2.44255,-2.21048 -2.27957,-4.88572 0.41253,-6.77134 1.8869,-1.32163 6.58034,-1.5567 31.0817,-1.5567 h 28.8592 l 4.23816,-3.47286 c 7.53254,-6.17235 14.63037,-8.75531 24.45654,-8.89994 L 363.5,602.5 364,543 l 0.5,-59.5 h 3 3 l 0.51812,65.5 c 0.28497,36.025 0.62247,65.6125 0.75,65.75 C 371.89565,614.8875 458.4,615 564,615 c 190.66667,0 192.01389,0.0139 194,2 1.1,1.1 2,2.45 2,3 0,0.55 -0.9,1.9 -2,3 -1.98614,1.98614 -3.33333,2 -194.38265,2 H 371.2347 l -2.64713,5.41054 c -6.11194,12.49236 -22.10996,20.49685 -34.94161,17.48277 z m -67.9797,-124.7096 c -2.31511,-2.55816 -2.08054,-4.86615 0.67826,-6.67379 2.01589,-1.32086 7.23722,-1.49931 37.25,-1.27306 L 338.5,515.5 v 4.5 4.5 l -35.58374,0.26245 c -33.47894,0.24693 -35.68231,0.15354 -37.25,-1.57874 z m 130.7319,0.41149 c -0.29649,-0.77265 -0.39487,-2.91015 -0.21862,-4.75 L 396.5,515.5 576.24728,515.24728 c 178.66533,-0.25121 179.75933,-0.24067 181.75,1.75 2.50923,2.50923 2.50968,3.49576 0.003,6.00272 -1.98515,1.98515 -3.33333,2 -181.53138,2 -153.25388,0 -179.61029,-0.20562 -180.07046,-1.4048 z m 284.21015,-53.67801 c -15.90534,-2.57495 -25.63351,-12.78872 -25.58635,-26.86353 0.0485,-14.48606 8.1476,-22.30908 21.53413,-20.80023 8.84561,0.99703 14.82419,8.5683 14.88011,18.84416 0.0365,6.70174 -2.82873,11.63068 -8.66902,14.91311 -6.19593,3.4823 -4.69282,5.31397 4.25666,5.18707 14.39206,-0.20406 23.04758,-9.57325 23.09041,-24.9943 0.0177,-6.37928 -3.02521,-23.70564 -5.48009,-31.20347 l -1.14594,-3.5 -8.49411,0.30786 c -17.12195,0.62056 -31.49217,-5.26813 -44.58769,-18.27134 -12.72719,-12.63746 -18.66511,-26.9649 -18.66511,-45.03652 0,-20.48975 8.55217,-38.11118 29.00871,-59.7714 5.3131,-5.62573 10.94379,-11.62675 12.51264,-13.33559 l 2.85246,-3.107 -2.2303,-11.393 c -4.20006,-21.45519 -2.65228,-44.32696 4.02056,-59.412 C 682.91301,180.16042 692.19602,170 697.53138,170 c 3.39201,0 8.20648,5.61777 12.42663,14.5 14.04403,29.5588 8.9774,67.16543 -12.75117,94.64427 l -6.52488,8.25164 2.26772,11.76981 c 1.24724,6.4734 2.7813,12.17709 3.40902,12.67487 0.62771,0.49778 4.2913,1.12073 8.1413,1.38433 12.98232,0.88886 23.32578,8.51364 29.97649,22.09745 10.90918,22.28156 3.39975,49.53753 -16.43645,59.6572 -2.14739,1.09552 -4.16419,2.4123 -4.48179,2.92618 -0.31759,0.51388 0.84202,7.38281 2.57693,15.26429 4.14418,18.82649 4.49657,32.0321 1.04195,39.04622 -3.12043,6.33559 -11.88589,14.21739 -17.91559,16.10951 -6.39558,2.00693 -12.74207,2.54838 -18.65323,1.59142 z m 16.54514,-77.38677 c 2.0094,-0.32165 3.87307,-1.15714 4.14149,-1.85664 0.89125,-2.32255 -9.45207,-51.5201 -10.95267,-52.09593 -1.99507,-0.76558 -8.87029,5.81573 -11.28384,10.80145 -1.13214,2.33868 -2.05843,5.92453 -2.05843,7.96854 0,7.03928 4.85888,14.92885 11.25,18.26712 1.6085,0.84016 2.75,2.26895 2.75,3.4421 0,7.66439 -18.69336,-2.65518 -24.13635,-13.32434 -8.08596,-15.84978 -1.49888,-35.88987 16.05351,-48.84008 l 3.41716,-2.52119 -1.26979,-7.87139 C 683.4894,296.73592 683.20703,296 681.03558,296 c -2.05627,0 -17.13263,15.35458 -21.92083,22.32535 -7.30437,10.63388 -12.12838,24.3746 -12.10288,34.47387 0.0493,19.51858 16.31575,37.61293 36.03784,40.08745 3.54766,0.44512 7.35029,0.67864 8.45029,0.51893 1.1,-0.1597 3.64405,-0.55354 5.65345,-0.87518 z m 20.0453,-8.28042 c 3.83045,-4.09407 5.68957,-8.40395 6.6986,-15.52898 0.97351,-6.87424 0.10338,-13.91155 -2.28217,-18.45732 -4.14592,-7.90027 -17.70211,-16.16812 -20.11318,-12.26694 -0.56113,0.90792 8.09375,46.50629 9.15879,48.25324 0.96646,1.58525 4.07255,0.63508 6.53796,-2 z M 689.17208,251.10136 c 14.21974,-16.65836 22.4224,-42.79265 15.69692,-50.0116 -6.20827,-6.66379 -16.85856,4.6921 -21.4867,22.91024 -2.86767,11.28827 -1.90432,31 1.51503,31 0.52075,0 2.44439,-1.75439 4.27475,-3.89864 z m -423.51709,172.0699 c -2.2682,-2.50633 -2.0745,-4.76402 0.56752,-6.61456 1.98873,-1.39296 18.81133,-1.5567 159.9349,-1.5567 100.05307,0 158.65019,0.35655 160.27749,0.97525 3.24028,1.23195 3.64642,6.37568 0.63084,7.98957 C 585.75569,424.66594 533.84959,425 426.22073,425 273.54057,425 267.24509,424.9283 265.65499,423.17126 Z m 0,-100 c -2.2682,-2.50633 -2.0745,-4.76402 0.56752,-6.61456 1.98873,-1.39296 18.81133,-1.5567 159.9349,-1.5567 100.05307,0 158.65019,0.35655 160.27749,0.97525 3.24028,1.23195 3.64642,6.37568 0.63084,7.98957 C 585.75569,324.66594 533.84959,325 426.22073,325 273.54057,325 267.24509,324.9283 265.65499,323.17126 Z m 122.68525,-75.12887 c -9.02505,-2.15041 -13.3361,-7.73931 -13.33869,-17.29239 L 375,225 h -53.84501 c -50.89418,0 -53.93571,-0.10022 -55.5,-1.82874 -2.2682,-2.50633 -2.0745,-4.76402 0.56752,-6.61456 1.9471,-1.3638 9.13955,-1.5567 58.0429,-1.5567 h 55.8204 l 5.2071,-3.88361 c 2.8639,-2.13599 6.59749,-4.58526 8.29687,-5.44283 3.55425,-1.7936 14.0532,-3.54697 19.91022,-3.32509 l 4,0.15153 0.5,-59.5 0.5,-59.5 2.5856,-0.300558 c 1.42207,-0.165307 3.10624,0.326788 3.74259,1.093544 0.84357,1.016434 1.22674,18.842074 1.41441,65.800554 L 426.5,214.5 l 80,0.5 c 44,0.275 80.5625,0.86406 81.25,1.30902 1.99123,1.28875 1.52797,6.47184 -0.68426,7.6558 C 585.77871,224.65362 558.39784,225 505.23668,225 h -79.89481 l -2.30681,4.92515 c -4.2878,9.15463 -13.45583,16.06854 -23.94511,18.05779 -5.94896,1.1282 -6.25716,1.1299 -10.74971,0.0594 z M 266.00757,123.00757 c -2.51568,-2.51568 -2.51568,-3.49946 0,-6.01514 1.97275,-1.97275 3.08684,-2.0031 64.25,-1.75 L 392.5,115.5 v 4.5 4.5 l -62.24243,0.25757 c -61.16316,0.2531 -62.27725,0.22275 -64.25,-1.75 z m 184.39059,0.58763 c -0.29649,-0.77265 -0.39487,-2.91015 -0.21862,-4.75 L 450.5,115.5 603.24681,115.24681 c 151.66511,-0.25141 152.76099,-0.23901 154.75,1.75 2.50972,2.50972 2.51024,3.49614 0.003,6.00319 -1.98252,1.98252 -3.33333,2 -154.53138,2 -130.06706,0 -152.61078,-0.20689 -153.07046,-1.4048 z"
         id="path1535" />
      <path
         style="fill:#030303"
         d="m 209.20372,1014.8729 c -5.66482,-2.8055 -8.9919,-7.3597 -10.21664,-13.985 -0.65913,-3.56554 -0.91207,-171.15544 -0.74315,-492.39659 L 198.5,21.5 l 2.08906,-4 c 1.14898,-2.2 3.99967,-5.35 6.33486,-7 l 4.24581,-3 H 250.83486 290.5 v 3 3 L 252,14 c -42.06548,0.546305 -42.10821,0.552556 -44.84587,6.561076 C 206.28698,22.464243 206,144.68946 206,512.09671 c 0,434.20252 0.16926,489.32989 1.51035,491.92329 0.83069,1.6064 2.51819,3.4966 3.75,4.2004 1.79536,1.0258 49.55219,1.3788 240.73965,1.7796 l 238.5,0.5 v 3 3 l -238.5,0.2504 -238.5,0.2503 z m 524.1931,0.7188 c -0.31128,-0.8112 -0.4095,-2.2887 -0.21827,-3.2833 0.32623,-1.6967 2.72397,-1.8393 38.83457,-2.3084 42.05098,-0.5463 42.09519,-0.5528 44.83275,-6.5611 1.6655,-3.65535 1.6655,-979.222451 0,-982.877824 -0.63476,-1.393167 -2.32226,-3.326841 -3.75,-4.297053 C 810.63884,14.594349 797.74383,14.473257 572,14 L 333.5,13.5 v -3 -3 h 239.66391 239.66392 l 4.24702,3 c 2.33587,1.65 5.18711,4.8 6.33609,7 l 2.08906,4 V 512 1002.5 l -2.26975,4.2489 c -1.24837,2.3369 -4.13981,5.4869 -6.42543,7 l -4.15568,2.7511 -39.34318,0.2833 c -33.93068,0.2443 -39.42104,0.08 -39.90914,-1.1916 z M 587.5,948.11927 c -6.7534,-3.10117 -7.9342,-5.18066 -8.5,-14.96916 L 578.5,924.5 422.60895,924 c -147.06705,-0.4717 -155.95354,-0.59906 -156.99489,-2.25 -0.80511,-1.27641 -0.80511,-2.22359 0,-3.5 1.04157,-1.65129 10.09445,-1.7782 160.49489,-2.25 L 585.5,915.5 l 4.83215,-3.35456 c 7.63894,-5.30308 14.92335,-7.46961 22.91398,-6.81506 5.90555,0.48375 6.87121,0.31889 7.75,-1.32315 C 621.63493,902.81362 622,880.99122 622,843.99932 v -58.13216 l 2.75,0.31642 2.75,0.31642 0.5,64.5 0.5,64.5 64.39123,0.5 c 59.9204,0.46528 64.46786,0.62151 65.49489,2.25 0.80487,1.27624 0.80487,2.22376 0,3.5 -1.02703,1.62849 -5.57449,1.78472 -65.49489,2.25 L 628.5,924.5 625.38905,931 c -1.8263,3.81584 -4.95693,8.19927 -7.58119,10.61499 -8.2821,7.62393 -21.63102,10.4887 -30.30786,6.50428 z M 266.20296,822.80296 c -1.5984,-1.5984 -1.52589,-4.29006 0.15311,-5.68351 0.9954,-0.8261 44.94674,-1.05815 165.25,-0.87244 L 595.5,816.5 v 3.5 3.5 l -164.04704,0.25296 c -126.76541,0.19548 -164.32042,-0.0204 -165.25,-0.95 z m 387.19003,-0.22122 c -0.30313,-0.78996 -0.40307,-2.48151 -0.22207,-3.75901 L 653.5,816.5 h 51.89101 c 48.33283,0 51.96671,0.12 52.99489,1.75 0.80508,1.27631 0.80512,2.22369 1.7e-4,3.5 -1.0244,1.62426 -4.81612,1.76861 -52.77281,2.00901 -44.15477,0.22135 -51.74927,0.0501 -52.22027,-1.17727 z M 266.202,722.802 c -1.59713,-1.59713 -1.52469,-4.2893 0.15289,-5.68157 0.99694,-0.82738 66.02668,-1.05788 246.14102,-0.87245 231.88509,0.23874 244.84431,0.34425 245.89,2.00202 0.80515,1.27644 0.80515,2.22356 0,3.5 -1.04569,1.65777 -14.01218,1.76328 -246.04289,2.002 -189.68216,0.19516 -245.21018,-0.0192 -246.14102,-0.95 z M 330.5,646.18666 c -6.57837,-3.13163 -7.93344,-5.36944 -8.5,-14.0372 L 321.5,624.5 294.10799,624 c -24.67404,-0.45039 -27.50144,-0.67364 -28.49488,-2.25 -0.8039,-1.27559 -0.80376,-2.22441 5.2e-4,-3.5 1.00417,-1.59262 3.77878,-1.77384 30.8535,-2.01505 l 29.7501,-0.26505 4.10411,-3.51296 c 2.25727,-1.93214 6.59589,-4.73109 9.64139,-6.21989 4.70417,-2.29966 6.86245,-2.71441 14.3452,-2.7567 6.6072,-0.0373 9.03949,-0.41589 9.73469,-1.51506 0.5412,-0.85569 0.93312,-25.72649 0.94207,-59.78171 L 365,483.86716 l 2.75,0.31642 2.75,0.31642 0.5,65.5 0.5,65.5 192.89104,0.5 c 182.30566,0.47256 192.95162,0.59604 193.99489,2.25 0.80512,1.27642 0.80512,2.22358 -2e-5,3.5 -1.04417,1.65538 -11.54552,1.76365 -194.23177,2.00254 l -193.12791,0.25253 -2.93159,5.80745 c -5.41868,10.73434 -14.76163,16.91992 -26.8764,17.79375 -5.2673,0.37993 -7.58212,0.0733 -10.71824,-1.41961 z M 266.2124,522.8124 c -1.61101,-1.61101 -1.53769,-4.29755 0.15565,-5.70289 0.97751,-0.81126 11.4689,-1.06032 36.75,-0.87245 L 338.5,516.5 v 3.5 3.5 l -35.5376,0.2624 c -26.8052,0.19792 -35.83551,-0.0355 -36.75,-0.95 z m 130.17818,-0.23696 c -0.30181,-0.78649 -0.40066,-2.47521 -0.21966,-3.75271 L 396.5,516.5 h 180.39101 c 170.71378,0 180.45024,0.0939 181.49489,1.75 0.80515,1.27644 0.80516,2.22356 10e-6,3.5 -1.04366,1.65457 -10.92873,1.76378 -181.27522,2.00272 -155.47303,0.21807 -180.2466,0.0567 -180.72011,-1.17728 z m 280.60373,-53.93467 c -16.30187,-4.73568 -24.84407,-18.32612 -20.63003,-32.82191 2.46175,-8.46812 8.43831,-13.06783 17.08375,-13.14809 6.4008,-0.0594 10.79798,2.23275 14.22895,7.41731 5.94424,8.98235 3.31868,20.8733 -5.65692,25.61971 -5.72158,3.02565 -5.85552,3.20814 -3.57736,4.87397 2.39974,1.75473 11.3654,1.85444 16.94128,0.1884 5.51091,-1.64662 11.87659,-8.15182 13.95983,-14.2658 2.3019,-6.7557 2.07509,-13.74154 -0.91782,-28.2692 C 704.56195,399.47904 705.81428,401 694.23485,401 c -17.81112,0 -30.58038,-5.29169 -43.32924,-17.95598 -21.22356,-21.0828 -24.65944,-52.06973 -8.78704,-79.24704 4.92353,-8.43026 10.7278,-15.77702 20.77577,-26.29698 4.20259,-4.4 9.09554,-9.59636 10.87322,-11.54746 l 3.23216,-3.54746 -2.17209,-9.45254 C 671.88494,240.14648 671.63596,216.1838 674.32641,204.71312 678.12301,188.52642 689.90139,171 696.98282,171 c 3.94346,0 7.13453,3.32745 11.50818,12 5.62643,11.15673 7.62637,19.18231 8.2313,33.03153 1.06084,24.28669 -5.92438,45.54765 -20.96387,63.80789 l -6.04489,7.33941 2.28062,11.16059 C 694.89358,312.52819 695.1456,313 699.82508,313 c 2.0651,0 6.43677,0.6898 9.71482,1.5329 20.66697,5.31541 33.94047,30.84561 27.96486,53.7875 -3.00256,11.52763 -9.66905,20.49776 -19.25379,25.90705 -3.93322,2.21977 -5.25097,3.53575 -5.25097,5.24392 0,1.25424 1.35,8.84386 3,16.8658 3.55545,17.28583 3.8245,26.38414 1.0032,33.92474 -2.48699,6.64707 -8.79082,13.22868 -15.76316,16.45778 -6.40384,2.96581 -17.59658,3.85265 -24.24573,1.92108 z M 699,393.10933 c 1.46775,-0.40588 2.62453,-1.54686 2.8016,-2.76336 0.28179,-1.93593 -6.749,-40.31022 -8.90356,-48.59597 -0.77588,-2.98374 -1.45207,-3.75 -3.30922,-3.75 -3.13282,0 -9.78088,7.31758 -12.05287,13.2667 -3.33573,8.73447 0.49561,18.57177 9.42972,24.21163 4.14771,2.61834 4.62959,5.52167 0.91644,5.52167 -6.19961,0 -16.21841,-7.97643 -20.72484,-16.5 -2.2626,-4.27953 -2.64188,-6.2248 -2.63218,-13.5 0.01,-7.41925 0.40449,-9.32645 3.10348,-15 3.61817,-7.60576 9.66733,-14.76765 14.81283,-17.53762 2.00493,-1.07931 3.87065,-2.86238 4.14606,-3.96238 0.27541,-1.1 -0.30719,-5.81895 -1.29466,-10.48656 -2.40232,-11.35525 -3.29781,-11.44584 -13.45953,-1.36163 -28.1553,27.94053 -33.32807,58.29902 -13.36829,78.45726 5.22902,5.28101 13.82435,10.28293 20.28917,11.80697 4.45937,1.05127 16.71984,1.16832 20.24585,0.19329 z m 19.01285,-8.88688 C 722.5028,379.7325 725,372.39226 725,363.68452 c 0,-8.37566 -1.71182,-13.14769 -6.71087,-18.70783 -6.0735,-6.75519 -15.83693,-11.13541 -17.78713,-7.97993 -0.50083,0.81036 7.31882,43.01336 9.12596,49.25324 0.82765,2.85782 4.35165,2.00568 8.38489,-2.02755 z M 692.12979,248.54278 c 4.81882,-6.31787 12.29952,-20.71064 14.27989,-27.47428 1.84836,-6.31279 2.07267,-14.91575 0.48005,-18.41118 -1.54611,-3.39332 -5.15755,-4.88522 -8.63577,-3.56746 -4.12012,1.56095 -7.14285,4.78938 -10.21501,10.91014 -5.54561,11.04869 -6.52847,15.50046 -6.5339,29.59474 -0.006,14.70604 0.95026,17.65495 4.88916,15.08236 1.15818,-0.75645 3.7392,-3.51689 5.73558,-6.13432 z M 266.2,422.8 c -0.66,-0.66 -1.2,-1.92 -1.2,-2.8 0,-0.88 0.54,-2.14 1.2,-2.8 0.92328,-0.92328 37.91746,-1.2 160.42857,-1.2 143.41991,0 159.38459,0.15602 160.8,1.57143 1.85909,1.85909 1.87504,1.99275 0.53625,4.49431 C 586.94799,423.9657 584.09615,424 427.16482,424 304.23663,424 267.12332,423.72332 266.2,422.8 Z m 0,-100 c -0.66,-0.66 -1.2,-1.92 -1.2,-2.8 0,-0.88 0.54,-2.14 1.2,-2.8 0.92328,-0.92328 37.91746,-1.2 160.42857,-1.2 143.41991,0 159.38459,0.15602 160.8,1.57143 1.85909,1.85909 1.87504,1.99275 0.53625,4.49431 C 586.94799,323.9657 584.09615,324 427.16482,324 304.23663,324 267.12332,323.72332 266.2,322.8 Z m 119.54052,-76.16576 c -7.27565,-2.71922 -9.01521,-5.42575 -9.72718,-15.13424 L 375.5,224.5 321.10869,224 c -50.39543,-0.46327 -54.47239,-0.62856 -55.49489,-2.25 -0.80478,-1.27619 -0.80474,-2.22381 1.6e-4,-3.5 1.02682,-1.62807 5.05648,-1.768 57.83671,-2.0083 l 56.73299,-0.2583 4.15817,-3.3025 c 9.53034,-7.5692 17.48293,-10.2824 27.21571,-9.28525 5.16096,0.52876 6.32009,0.36561 6.82924,-0.96119 C 418.72405,201.55554 419,174.51834 419,142.35179 V 83.867155 l 2.75,0.316423 2.75,0.316422 0.5,65.5 0.5,65.5 81,0.51479 c 44.55,0.28314 81.06436,0.62064 81.14301,0.75 1.03306,1.69905 1.1556,3.74299 0.31822,5.30765 C 586.9556,223.95148 584.89226,224 505.99411,224 h -80.93552 l -2.55123,5.39286 c -2.9698,6.27764 -9.78948,12.9597 -16.05542,15.73142 -5.86449,2.59414 -15.86061,3.32291 -20.71142,1.50996 z M 266.20744,122.80744 c -1.60435,-1.60435 -1.5315,-4.29361 0.15421,-5.69262 0.98759,-0.81963 18.49989,-1.05929 63.75,-0.87244 L 392.5,116.5 v 3.5 3.5 l -62.54256,0.25744 c -47.8135,0.19681 -62.82692,-0.0269 -63.75,-0.95 z m 184.18332,-0.23153 c -0.30191,-0.78675 -0.40084,-2.47568 -0.21984,-3.75318 L 450.5,116.5 h 153.39101 c 144.99949,0 153.45141,0.0957 154.49489,1.75 0.80515,1.27643 0.80516,2.22357 2e-5,3.5 -1.04231,1.65243 -9.64349,1.76412 -154.27505,2.00319 -132.08402,0.21833 -153.24676,0.0562 -153.72011,-1.17728 z"
         id="path1534" />
    </g>
  </g>
</svg>
