<?xml version="1.0" encoding="UTF-8" standalone="no"?>
<!-- Created with Inkscape (http://www.inkscape.org/) -->

<svg
   version="1.1"
   id="svg1"
   width="512"
   height="512"
   viewBox="0 0 512 512"
   xmlns="http://www.w3.org/2000/svg"
   xmlns:svg="http://www.w3.org/2000/svg">
  <defs
     id="defs1" />
  <g
     id="g1">
    <g
       id="g2">
      <path
         style="fill:#fa96ad"
         d="m 189,506.11317 c -7.07538,-2.31571 -14.9923,-7.41549 -20.61243,-13.27776 -6.98519,-7.28614 -9.48454,-11.68307 -13.81886,-24.31061 l -3.08068,-8.97521 -15.99402,0.28025 C 111.58455,460.2488 98.999828,457.56128 79.09692,447.786 65.972394,441.33992 56.067029,433.88137 44,421.35871 32.039439,408.94653 25.607648,399.57018 17.533895,382.77608 7.0697743,361.0098 3.0933467,346.58046 1.0608473,323 -1.1359347,297.51358 0.24122358,269.17223 4.594835,250.27198 8.7403062,232.27532 18.609534,208.71449 30.5334,188.34877 38.93471,173.99951 65.851653,133.04406 69.374582,129.25 c 6.346555,-6.83499 11.712862,-3.27709 21.770019,14.4337 5.748982,10.12404 13.276039,26.15975 14.421539,30.72379 C 105.92401,175.83337 106.63781,177 107.15235,177 108.16163,177 123,146.56966 123,144.49983 c 0,-0.68758 -1.53686,-4.62255 -3.41524,-8.74439 -12.64232,-27.74174 -15.79509,-64.959263 -8.07943,-95.375274 3.04587,-12.0072 9.86762,-27.572897 14.00789,-31.9628613 3.45545,-3.6638424 7.57223,-4.4654999 11.80252,-2.2982953 7.47558,3.8297855 44.78731,31.0008936 56.34682,41.0328136 3.3894,2.941497 10.48728,9.350619 15.77306,14.242493 l 9.6105,8.894315 11.22694,-3.632494 c 38.71268,-12.525553 80.28314,-12.536215 118.97649,-0.03051 6.4336,2.079342 11.30943,3.153081 12.14401,2.674317 C 362.1605,68.859973 368.12321,63.671405 374.644,57.76979 390.08716,43.793042 404.75645,32.411092 424.5,19.086376 443.40184,6.3297212 445.83297,5 450.25417,5 c 4.65577,0 8.7503,4.540921 13.07461,14.5 4.78662,11.023819 6.30241,15.838881 8.56195,27.197906 5.88028,29.561068 2.2894,61.055854 -9.93135,87.105714 l -5.30286,11.30362 3.0693,7.19638 c 1.68812,3.95801 6.63323,15.52138 10.98913,25.69638 4.35591,10.175 9.8236,23.04674 12.15042,28.60386 5.19703,12.41199 9.20663,19.26708 19.05701,32.58124 13.60584,18.39016 13.35818,21.98891 -2.67312,38.84229 -18.7995,19.76353 -45.72513,41.16237 -69.99926,55.63114 -6.1875,3.6881 -11.25,6.81623 -11.25,6.95139 0,0.13517 1.12312,4.44073 2.49582,9.56792 1.3727,5.12719 3.72224,16.29716 5.22119,24.82216 2.51099,14.28072 2.72723,17.6239 2.74899,42.5 0.0302,34.56524 -1.95568,47.46221 -9.68604,62.90361 -4.98468,9.95691 -12.07921,17.17522 -21.87326,22.2549 L 389.5,506.5 H 377 c -12.38316,0 -12.57346,-0.0351 -20.35955,-3.75273 -4.32275,-2.06401 -9.62738,-5.15289 -11.78807,-6.86418 -3.6841,-2.91786 -11.77375,-12.13326 -13.74816,-15.66135 -0.79211,-1.41541 -2.07862,-1.28754 -12.19828,1.21242 -19.35359,4.78111 -44.63587,4.56152 -63.07356,-0.54783 l -7.25085,-2.00931 -3.48262,4.31149 c -6.99342,8.65787 -14.52638,14.88592 -23.09891,19.09756 -8.24982,4.05309 -8.82376,4.18291 -19.5,4.41067 -6.05,0.12906 -12.125,-0.13354 -13.5,-0.58357 z m 124,-49.00759 c 18.07403,-5.87701 26.71345,-15.15334 32.6952,-35.10558 4.08881,-13.63829 4.32892,-45.48883 0.39096,-51.86059 -0.65594,-1.06134 -2.58198,-0.93027 -10.19742,0.69396 -16.22862,3.46125 -30.19122,4.45979 -54.6221,3.90632 -16.66574,-0.37755 -25.85443,-1.06675 -34.2893,-2.57187 -6.33746,-1.13086 -12.2937,-2.35199 -13.2361,-2.71362 -3.19382,-1.22559 -4.09187,3.84655 -4.1689,23.5458 -0.0642,16.41746 0.1901,19.45684 2.25902,27 7.89994,28.80279 26.8013,41.65942 59.66864,40.58639 10.00702,-0.3267 13.57778,-0.9048 21.5,-3.48081 z M 55.285194,385.25 c 0.221775,-0.4125 -0.167284,-5.475 -0.864576,-11.25 -1.591319,-13.17938 -1.807955,-33.64258 -0.365598,-34.534 0.580261,-0.35863 3.45039,1.6134 6.378065,4.38227 5.883367,5.56424 15.866546,12.29448 25.066915,16.89905 5.927804,2.96672 19.73702,8.25268 21.5596,8.25268 1.88128,0 0.82624,-2.86489 -5.00015,-13.57749 C 95.605248,343.55557 87,324.14128 87,321.44689 c 0,-1.89408 -0.474291,-1.99206 12.204915,2.52129 C 107.40688,326.8878 121,329.13812 121,327.57633 c 0,-0.39208 -2.8125,-5.2482 -6.25,-10.79137 -5.34226,-8.61471 -8.04943,-11.6911 -18.639513,-21.18172 -13.477524,-12.07829 -26.211583,-25.946 -29.212747,-31.8134 -3.529984,-6.90127 -2.66919,-9.0017 11.354475,-27.70613 4.707657,-6.27896 9.543821,-13.38746 10.747032,-15.79665 l 2.187657,-4.38036 -2.055127,-10.20335 C 85.972333,190.01725 76.549102,163 74.237459,163 c -1.052741,0 -17.192657,24.31496 -23.575189,35.51628 -10.987223,19.28253 -20.053567,42.77165 -24.530084,63.55264 -4.592022,21.31718 -4.802098,48.8498 -0.531827,69.70125 3.330975,16.26494 11.686553,39.89984 16.785897,47.48123 3.026281,4.49928 11.569099,8.47209 12.898938,5.9986 z M 323.5,348.55894 c 45.67524,-8.21883 90.37264,-29.59113 131.09693,-62.68467 C 465.84401,276.73462 481,262.61545 481,261.27743 c 0,-0.54869 -2.56103,-1.26195 -5.69117,-1.585 -9.70756,-1.00191 -12.78947,-4.62023 -22.37978,-26.275 -12.88049,-29.08392 -19.54521,-40.00246 -32.31906,-52.94696 -8.12973,-8.23834 -15.79731,-13.44381 -25.41349,-17.25304 -6.03538,-2.39078 -7.97995,-2.65266 -19.6965,-2.65266 -11.74646,0 -13.65217,0.25821 -19.76344,2.67786 -14.4635,5.72656 -30.46529,18.99552 -42.51885,35.25737 -5.47274,7.38345 -16.25126,27.79202 -16.23015,30.73095 0.008,1.07736 1.05081,1.9481 2.76244,2.30604 9.01648,1.88558 15.24886,7.5969 15.23688,13.96301 -0.007,3.96732 -5.12804,12.75385 -9.22122,15.82294 -12.24401,9.18065 -23.4712,9.02057 -34.30208,-0.48906 C 267.40725,257.27238 263,249.32252 263,245.56717 c 0,-4.8768 3.0048,-9.23238 7.88352,-11.42748 2.53906,-1.14241 5.74148,-2.20414 7.11648,-2.35941 3.74804,-0.42324 2.99518,-4.29714 -3.21016,-16.51809 -9.34602,-18.40627 -25.63607,-37.16423 -39.68741,-45.69997 -13.64287,-8.2876 -30.33981,-11.52313 -44.40106,-8.60402 -9.76252,2.02669 -21.05495,8.40327 -29.97697,16.92732 -15.36927,14.68371 -24.53368,29.28103 -36.79904,58.61448 -4.62196,11.05373 -7.24782,15.98657 -9.98105,18.75 -3.64032,3.68055 -3.8501,3.75 -11.32666,3.75 C 98.427941,259 95,259.38086 95,259.84635 c 0,1.34534 19.41772,18.98646 32,29.07221 19.80261,15.87343 41.8523,29.95169 60.37793,38.55003 21.28843,9.88063 51.71554,19.18163 70.12207,21.435 4.95,0.60599 10.125,1.29451 11.5,1.53005 6.0735,1.0404 45.91613,-0.33012 54.5,-1.8747 z m -47.41038,-53.67202 c -4.52186,-2.2596 -6.65883,-4.01271 -7.79462,-6.39448 -1.98966,-4.17236 -1.04606,-8.19311 2.27826,-9.70777 2.17024,-0.98883 3.41187,-0.68889 8.98855,2.17139 5.56327,2.8534 7.14991,3.23823 11.31643,2.74477 2.75603,-0.32641 6.47506,-1.67948 8.6234,-3.13738 4.54597,-3.08498 6.8407,-3.22111 9.49836,-0.56345 4.43167,4.43167 1.47481,10.60723 -7.13993,14.91206 -8.73425,4.36456 -17.00203,4.35649 -25.77045,-0.0251 z m -82.40305,-50.14884 c -4.37189,-2.43514 -6.66558,-4.59041 -9.25,-8.69174 -3.18221,-5.05001 -3.43588,-6.04922 -3.42719,-13.5 0.008,-7.08674 0.36418,-8.66495 2.98435,-13.23351 10.41242,-18.1552 35.13011,-17.65423 44.59952,0.90393 4.76094,9.33049 2.48809,23.82887 -4.83777,30.8598 -4.20531,4.03601 -11.79147,6.90407 -18.25548,6.90175 -4.8987,-0.002 -7.06705,-0.59651 -11.81343,-3.24023 z m 17.35625,-28.761 c 3.47526,-1.8599 4.13707,-4.47867 1.86259,-7.37021 -2.36749,-3.00977 -4.48761,-3.29495 -7.07667,-0.95188 -2.27423,2.05815 -2.34495,5.11713 -0.17375,7.51627 1.90158,2.10122 2.73457,2.22581 5.38783,0.80582 z m 149.83431,29.5218 c -12.76063,-6.64686 -17.41205,-21.52346 -10.98041,-35.11861 6.11774,-12.93165 19.98964,-17.973 32.38652,-11.76996 6.73656,3.37077 9.39489,5.85674 12.17939,11.38969 4.62053,9.18122 4.35604,17.58504 -0.82302,26.15032 -6.5425,10.82019 -21.65732,15.1331 -32.76248,9.34856 z M 371.19291,215.25 c 2.71391,-3.16015 2.80354,-3.9848 0.72088,-6.63246 -2.33446,-2.96779 -5.03581,-3.35267 -7.34236,-1.04611 -2.2554,2.2554 -1.94103,6.05628 0.65108,7.87187 2.86014,2.00332 4.11896,1.96256 5.9704,-0.1933 z m -208.38523,-103 c 3.68439,-3.1625 9.49679,-7.775 12.91645,-10.25 3.41967,-2.475 6.23069,-5.249356 6.24672,-6.165236 0.016,-0.91588 -2.78335,-3.793046 -6.22085,-6.393702 -11.78394,-8.915192 -19.11209,-10.551088 -23.11888,-5.160931 -1.73133,2.329083 -2.05758,4.194842 -2.01092,11.5 0.0468,7.330289 1.1633,15.331229 2.92622,20.969869 0.6911,2.21046 2.42486,1.36803 9.26126,-4.5 z m 266.16055,1 c 1.66712,-6.56803 2.43942,-18.045933 1.5937,-23.685574 -1.70512,-11.370536 -10.27127,-11.369657 -26.20819,0.0027 C 400.73327,92.150629 398,94.847246 398,95.835648 c 0,1.009191 3.03194,3.905924 7.25,6.926692 3.9875,2.85566 9.95,7.44093 13.25,10.18949 3.3,2.74856 6.73408,5.00881 7.63129,5.02278 1.11795,0.0174 2.01068,-1.46934 2.83694,-4.72461 z"
         id="path8" />
      <path
         style="fill:#a2a2a2"
         d="m 189,506.11317 c -7.07538,-2.31571 -14.9923,-7.41549 -20.61243,-13.27776 -6.98519,-7.28614 -9.48454,-11.68307 -13.81886,-24.31061 l -3.08068,-8.97521 -15.99402,0.28025 C 111.58455,460.2488 98.999828,457.56128 79.09692,447.786 65.972394,441.33992 56.067029,433.88137 44,421.35871 32.039439,408.94653 25.607648,399.57018 17.533895,382.77608 7.0697743,361.0098 3.0933467,346.58046 1.0608473,323 -1.1359347,297.51358 0.24122358,269.17223 4.594835,250.27198 8.7403062,232.27532 18.609534,208.71449 30.5334,188.34877 38.93471,173.99951 65.851653,133.04406 69.374582,129.25 c 6.346555,-6.83499 11.712862,-3.27709 21.770019,14.4337 5.748982,10.12404 13.276039,26.15975 14.421539,30.72379 C 105.92401,175.83337 106.63781,177 107.15235,177 108.16163,177 123,146.56966 123,144.49983 c 0,-0.68758 -1.53686,-4.62255 -3.41524,-8.74439 -12.64232,-27.74174 -15.79509,-64.959263 -8.07943,-95.375274 3.04587,-12.0072 9.86762,-27.572897 14.00789,-31.9628613 3.45545,-3.6638424 7.57223,-4.4654999 11.80252,-2.2982953 7.47558,3.8297855 44.78731,31.0008936 56.34682,41.0328136 3.3894,2.941497 10.48728,9.350619 15.77306,14.242493 l 9.6105,8.894315 11.22694,-3.632494 c 38.71268,-12.525553 80.28314,-12.536215 118.97649,-0.03051 6.4336,2.079342 11.30943,3.153081 12.14401,2.674317 C 362.1605,68.859973 368.12321,63.671405 374.644,57.76979 390.08716,43.793042 404.75645,32.411092 424.5,19.086376 443.40184,6.3297212 445.83297,5 450.25417,5 c 4.65577,0 8.7503,4.540921 13.07461,14.5 4.78662,11.023819 6.30241,15.838881 8.56195,27.197906 5.88028,29.561068 2.2894,61.055854 -9.93135,87.105714 l -5.30286,11.30362 3.0693,7.19638 c 1.68812,3.95801 6.63323,15.52138 10.98913,25.69638 4.35591,10.175 9.8236,23.04674 12.15042,28.60386 5.19703,12.41199 9.20663,19.26708 19.05701,32.58124 13.60584,18.39016 13.35818,21.98891 -2.67312,38.84229 -18.7995,19.76353 -45.72513,41.16237 -69.99926,55.63114 -6.1875,3.6881 -11.25,6.81623 -11.25,6.95139 0,0.13517 1.12312,4.44073 2.49582,9.56792 1.3727,5.12719 3.72224,16.29716 5.22119,24.82216 2.51099,14.28072 2.72723,17.6239 2.74899,42.5 0.0302,34.56524 -1.95568,47.46221 -9.68604,62.90361 -4.98468,9.95691 -12.07921,17.17522 -21.87326,22.2549 L 389.5,506.5 H 377 c -12.38316,0 -12.57346,-0.0351 -20.35955,-3.75273 -4.32275,-2.06401 -9.62738,-5.15289 -11.78807,-6.86418 -3.6841,-2.91786 -11.77375,-12.13326 -13.74816,-15.66135 -0.79211,-1.41541 -2.07862,-1.28754 -12.19828,1.21242 -19.35359,4.78111 -44.63587,4.56152 -63.07356,-0.54783 l -7.25085,-2.00931 -3.48262,4.31149 c -6.99342,8.65787 -14.52638,14.88592 -23.09891,19.09756 -8.24982,4.05309 -8.82376,4.18291 -19.5,4.41067 -6.05,0.12906 -12.125,-0.13354 -13.5,-0.58357 z m 23.65053,-26.18604 c 2.3551,-1.14008 6.54227,-4.54598 9.30483,-7.56867 4.12624,-4.51476 5.49918,-7.02357 7.69134,-14.05457 3.007,-9.64451 5.7476,-13.55389 9.50172,-13.55389 1.39514,0 5.64499,2.0454 9.4441,4.54534 13.30144,8.75277 27.23484,12.33595 44.38946,11.41538 13.47955,-0.72335 24.83092,-4.19249 35.07539,-10.71955 8.42034,-5.36485 9.33955,-5.69823 13.02119,-4.7225 2.79099,0.73968 4.12655,3.05024 6.90475,11.94553 3.60677,11.54816 11.68736,21.17213 19.82353,23.60978 5.58463,1.6732 14.79253,1.45997 18.78594,-0.43503 4.10132,-1.9462 9.12836,-7.47729 11.11304,-12.22732 4.43854,-10.6229 7.18276,-44.8132 5.44696,-67.86365 -1.38236,-18.3569 -5.59861,-43.21499 -7.97585,-47.02381 -0.56768,-0.90955 -3.08643,-0.22504 -9.76214,2.65301 -18.46552,7.96093 -47.82642,15.64879 -68.91479,18.04468 -11.7189,1.3314 -43.91837,1.31681 -56.28941,-0.0255 -21.66838,-2.35113 -46.97743,-8.79434 -65.50074,-16.67527 -6.47193,-2.75355 -11.15258,-4.22666 -11.69579,-3.68093 -1.34461,1.35087 -5.77175,24.38681 -6.9697,36.2658 -0.5744,5.69578 -1.04171,19.19578 -1.03846,30 0.0109,36.48294 4.82116,54.38461 16.11543,59.9751 5.91314,2.92691 15.59225,2.97011 21.5292,0.0961 z M 149.14532,414 c 0.62999,-20.01255 2.2626,-34.06725 5.33426,-45.92121 2.56251,-9.88902 2.41014,-10.31175 -5.42258,-15.04435 -13.25374,-8.00803 -25.70235,-21.48831 -36.26928,-39.2751 -3.1713,-5.33808 -7.06895,-9.59063 -16.605364,-18.11735 -13.516427,-12.08533 -26.268419,-25.95536 -29.284616,-31.85215 -3.529984,-6.90127 -2.66919,-9.0017 11.354475,-27.70613 4.707657,-6.27896 9.543821,-13.38746 10.747032,-15.79665 l 2.187657,-4.38036 -2.055127,-10.20335 C 85.972333,190.01725 76.549102,163 74.237459,163 c -1.052741,0 -17.192657,24.31496 -23.575189,35.51628 -7.518675,13.19524 -13.482404,26.59608 -18.103369,40.67929 -12.733296,38.80697 -13.531177,72.71792 -2.578149,109.5746 6.283214,21.14287 13.64534,34.90567 27.113025,50.68526 13.540453,15.86485 27.730466,25.78231 44.906223,31.38516 11.10032,3.621 14.02482,3.98737 30.5,3.82099 L 148.5,434.5 Z M 323.5,348.55894 c 46.63871,-8.3922 91.43195,-30.07331 133.17867,-64.46197 C 469.24007,273.74957 485,258.61756 485,256.90404 c 0,-0.64977 -2.42025,-4.1565 -5.37833,-7.79272 -10.81298,-13.29188 -12.10923,-15.78491 -27.6558,-53.18951 -5.38993,-12.968 -12.76222,-29.91922 -16.38287,-37.66937 C 431.96235,150.50228 429,143.15404 429,141.923 c 0,-1.23104 1.72819,-4.52982 3.84043,-7.33063 5.97059,-7.91694 7.82085,-11.46105 11.02682,-21.12153 4.13812,-12.46931 5.51317,-25.274824 4.86606,-45.316563 -0.57182,-17.710026 -2.7196,-28.335373 -5.84949,-28.938134 C 440.4294,38.743465 412.53254,57.862642 400.5,68.263993 394.45,73.493825 384.55767,82.773904 378.51705,88.886389 372.47643,94.998875 366.96448,100 366.26826,100 c -0.69622,0 -4.32155,-1.557267 -8.05629,-3.460593 -8.96103,-4.566786 -22.58837,-8.952962 -36.45657,-11.734126 -9.54383,-1.913944 -14.44879,-2.257187 -32.2554,-2.257187 -17.80661,0 -22.71157,0.343243 -32.2554,2.257187 -12.94085,2.595191 -25.31897,6.475526 -36.67008,11.495461 -4.88544,2.160546 -8.62233,3.247199 -9.74219,2.832936 -0.99919,-0.369624 -5.08644,-4.263411 -9.08277,-8.652861 C 192.59082,80.421147 179.01817,67.627837 169.372,59.962379 160.84992,53.190193 139.83333,39 138.32537,39 c -1.30565,0 -2.94718,5.592481 -4.40288,15 -1.83066,11.830823 -0.66689,44.574916 1.91925,54 2.82106,10.28124 5.7931,17.25267 10.86005,25.47414 2.36401,3.83577 4.29821,7.55427 4.29821,8.26332 0,0.70906 -3.09663,7.4707 -6.8814,15.02587 -6.95671,13.88701 -15.41733,32.43637 -23.1417,50.73667 -8.91327,21.11699 -18.64038,37.97117 -25.963758,44.98741 C 93.355914,254.07513 92,255.91431 92,256.57447 c 0,1.69587 21.32511,21.41057 35,32.3569 19.85751,15.89532 41.88115,29.95228 60.37793,38.53722 21.28843,9.88063 51.71554,19.18163 70.12207,21.435 4.95,0.60599 10.125,1.29451 11.5,1.53005 6.0735,1.0404 45.91613,-0.33012 54.5,-1.8747 z m -47.41038,-53.67202 c -4.52186,-2.2596 -6.65883,-4.01271 -7.79462,-6.39448 -1.98966,-4.17236 -1.04606,-8.19311 2.27826,-9.70777 2.17024,-0.98883 3.41187,-0.68889 8.98855,2.17139 5.56327,2.8534 7.14991,3.23823 11.31643,2.74477 2.75603,-0.32641 6.47506,-1.67948 8.6234,-3.13738 4.54597,-3.08498 6.8407,-3.22111 9.49836,-0.56345 4.43167,4.43167 1.47481,10.60723 -7.13993,14.91206 -8.73425,4.36456 -17.00203,4.35649 -25.77045,-0.0251 z M 278,265.41683 c -6.21621,-3.53507 -9.76964,-7.09987 -12.59325,-12.63359 -2.82896,-5.54421 -3.00107,-8.46909 -0.77323,-13.14091 1.95328,-4.09607 7.62512,-6.92408 17.55474,-8.75288 12.10018,-2.22857 26.80848,1.77706 30.84723,8.40089 2.71884,4.45908 2.44095,8.3462 -1.02922,14.39683 -7.21304,12.57672 -22.96354,18.00949 -34.00627,11.72966 z m -84.31343,-20.67875 c -4.37189,-2.43514 -6.66558,-4.59041 -9.25,-8.69174 -3.18221,-5.05001 -3.43588,-6.04922 -3.42719,-13.5 0.008,-7.08674 0.36418,-8.66495 2.98435,-13.23351 10.41242,-18.1552 35.13011,-17.65423 44.59952,0.90393 4.76094,9.33049 2.48809,23.82887 -4.83777,30.8598 -4.20531,4.03601 -11.79147,6.90407 -18.25548,6.90175 -4.8987,-0.002 -7.06705,-0.59651 -11.81343,-3.24023 z m 17.35625,-28.761 c 3.47526,-1.8599 4.13707,-4.47867 1.86259,-7.37021 -2.36749,-3.00977 -4.48761,-3.29495 -7.07667,-0.95188 -2.27423,2.05815 -2.34495,5.11713 -0.17375,7.51627 1.90158,2.10122 2.73457,2.22581 5.38783,0.80582 z m 149.83431,29.5218 c -12.76063,-6.64686 -17.41205,-21.52346 -10.98041,-35.11861 6.11774,-12.93165 19.98964,-17.973 32.38652,-11.76996 6.73656,3.37077 9.39489,5.85674 12.17939,11.38969 4.62053,9.18122 4.35604,17.58504 -0.82302,26.15032 -6.5425,10.82019 -21.65732,15.1331 -32.76248,9.34856 z M 371.19291,215.25 c 2.71391,-3.16015 2.80354,-3.9848 0.72088,-6.63246 -2.33446,-2.96779 -5.03581,-3.35267 -7.34236,-1.04611 -2.2554,2.2554 -1.94103,6.05628 0.65108,7.87187 2.86014,2.00332 4.11896,1.96256 5.9704,-0.1933 z"
         id="path7" />
      <path
         style="fill:#c67789"
         d="m 188.5,504.59785 c -10.32498,-3.27393 -19.64613,-10.47539 -25.63145,-19.80269 -1.76751,-2.75444 -4.83297,-9.79766 -6.81213,-15.65161 L 152.45794,458.5 136.47897,458.8158 C 118.85845,459.16405 109.17299,457.90771 95.490376,453.499 44.567258,437.09095 7.9525072,385.45619 0.93916345,320.16125 -0.91760169,302.87457 0.22564515,275.60666 3.4523334,260.21891 8.3594775,236.81723 17.099336,213.91297 29.14419,192.88911 36.490312,180.06673 66.880667,133.11672 70.337271,129.25 c 4.387423,-4.90798 9.578934,-1.87777 17.062469,9.95913 5.009535,7.92371 12.78719,23.79016 16.19648,33.04087 1.57091,4.2625 3.21555,7.75 3.65474,7.75 0.4392,0 1.18892,-1.0125 1.66604,-2.25 0.47713,-1.2375 4.06599,-8.87996 7.97525,-16.98325 C 120.80151,152.66346 124,145.3929 124,144.60996 c 0,-0.78294 -1.32311,-4.37249 -2.94025,-7.97679 C 112.5543,117.67614 108.76332,99.053652 108.71662,76 108.6715,53.718231 112.15189,36.676688 120.43547,18.619404 124.50722,9.7434377 128.10401,6 132.56052,6 c 7.3587,0 59.15907,38.656603 78.90818,58.886114 3.43739,3.521008 6.83016,6.113672 8,6.113382 1.11721,-2.78e-4 4.42123,-0.908866 7.34225,-2.019085 13.56023,-5.153953 34.31446,-9.218408 53.68905,-10.514327 21.52931,-1.440043 54.92161,3.663429 74.8151,11.434275 C 356.8634,70.505161 358.9766,71 360.01109,71 361.04558,71 366.95017,66.258783 373.1324,60.463962 387.16096,47.314486 402.74059,35.123891 423.95912,20.69355 444.34775,6.8276102 445.6559,6.0937259 450.07569,6.0419155 c 4.39775,-0.051552 6.81516,2.3066017 10.77781,10.5136625 8.43764,17.475199 12.39696,35.908946 12.44568,57.944422 0.0507,22.913578 -3.94029,41.59534 -12.85295,60.16519 C 458.0008,139.76033 456,144.562 456,145.33558 c 0,0.77358 2.97509,8.10204 6.6113,16.28547 3.63622,8.18342 9.74921,22.52895 13.58442,31.87895 9.45989,23.06261 14.24058,31.98349 24.37159,45.47797 C 510.20066,251.80958 512,254.84343 512,258.25456 c 0,3.95503 -5.39942,11.17493 -17.21701,23.02192 -18.94692,18.99408 -38.95563,34.69457 -63.84177,50.09554 -5.74267,3.55389 -11.2748,7.0706 -12.29362,7.81492 -1.78807,1.3063 -1.74495,1.78671 1.24162,13.83318 6.28606,25.35513 7.51719,35.86498 7.55321,64.47988 0.0216,17.17218 -0.41962,28.69016 -1.29954,33.92316 -4.69035,27.89418 -13.07234,41.98468 -29.93212,50.31723 -6.59541,3.25963 -8.4897,3.72311 -16.68107,4.08137 -18.17841,0.79506 -32.62544,-6.27423 -44.22024,-21.63807 -4.11579,-5.45368 -5.94001,-7.14824 -7.16547,-6.65616 -0.90419,0.36309 -5.91899,1.76662 -11.14399,3.11898 -17.66124,4.57114 -41.22755,4.21225 -60.8869,-0.92723 l -8.38689,-2.19256 -1.59494,2.48664 c -2.96426,4.62155 -13.40515,14.95389 -18.2573,18.06751 -8.20612,5.26585 -17.18847,7.88333 -26.87397,7.83114 -4.675,-0.0252 -10.3,-0.61656 -12.5,-1.31416 z m 24.15053,-24.67072 c 2.3551,-1.14008 6.54227,-4.54598 9.30483,-7.56867 4.12624,-4.51476 5.49918,-7.02357 7.69134,-14.05457 4.52308,-14.50712 8.46634,-16.70047 17.03495,-9.47531 21.37682,18.02519 66.15379,17.32715 86.31835,-1.34564 2.92042,-2.70437 4.54704,-3.15021 8.07856,-2.21427 2.79099,0.73968 4.12655,3.05024 6.90475,11.94553 3.60677,11.54816 11.68736,21.17213 19.82353,23.60978 5.58463,1.6732 14.79253,1.45997 18.78594,-0.43503 4.10132,-1.9462 9.12836,-7.47729 11.11304,-12.22732 4.43854,-10.6229 7.18276,-44.8132 5.44696,-67.86365 -1.38236,-18.3569 -5.59861,-43.21499 -7.97585,-47.02381 -0.56777,-0.90969 -3.07477,-0.23035 -9.72101,2.63419 C 373.26697,361.16182 351.56187,368 347.07579,368 c -2.01819,0 -7.69836,0.86403 -12.62261,1.92008 -15.60241,3.34605 -29.97104,4.37674 -53.21055,3.81689 -16.49173,-0.39729 -24.64066,-1.06382 -33.74263,-2.75992 -6.6,-1.22987 -14.025,-2.376 -16.5,-2.54695 -6.31404,-0.43611 -23.52865,-5.72951 -36.29015,-11.15902 -6.47193,-2.75355 -11.15258,-4.22666 -11.69579,-3.68093 -1.34461,1.35087 -5.77175,24.38681 -6.9697,36.2658 -0.5744,5.69578 -1.04171,19.19578 -1.03846,30 0.0109,36.48294 4.82116,54.38461 16.11543,59.9751 5.91314,2.92691 15.59225,2.97011 21.5292,0.0961 z M 149.14532,414 c 0.62999,-20.01255 2.2626,-34.06725 5.33426,-45.92121 2.57683,-9.94432 2.44485,-10.29447 -5.72958,-15.20085 C 140.3687,347.84741 125.27484,333.34244 122.34173,327.5 115.59544,314.06216 108.38085,304.686 96.948648,294.49892 85.052593,283.8985 73.251445,271.44293 68.630552,264.61045 63.986705,257.74404 64.281748,256.97572 79.5,236.30549 83.9,230.32917 88.599815,223.3616 89.944033,220.822 l 2.444032,-4.61747 -2.148151,-10.85227 C 86.516741,186.54314 77.190969,161.628 74.094012,162.21617 c -3.375371,0.64104 -22.941376,31.95045 -33.060649,52.90346 -20.042682,41.50046 -24.92218,86.09974 -13.966298,127.65388 4.320998,16.38895 13.743702,38.78409 17.215775,40.9171 0.724635,0.44516 2.398412,2.38439 3.719506,4.30939 4.309443,6.2794 15.849081,19.40737 20.727512,23.58047 11.050592,9.45288 21.177732,15.3155 33.270142,19.26012 11.10032,3.621 14.02482,3.98737 30.5,3.82099 L 148.5,434.5 Z M 324.5,349.56469 c 44.92197,-8.11202 91.03616,-30.3456 132.11309,-63.69725 13.7769,-11.1859 24.8813,-21.99968 26.84901,-26.14634 l 1.76543,-3.72035 -5.49209,-6.75038 C 468.7969,235.80573 467.5385,233.38912 451.96587,195.92181 446.57594,182.95381 439.20365,166.00259 435.583,158.25244 431.96235,150.50228 429,143.15404 429,141.923 c 0,-1.23104 1.72819,-4.52982 3.84043,-7.33063 5.97059,-7.91694 7.82085,-11.46105 11.02682,-21.12153 4.13812,-12.46931 5.51317,-25.274824 4.86606,-45.316563 -0.57182,-17.710026 -2.7196,-28.335373 -5.84949,-28.938134 C 440.4294,38.743465 412.53254,57.862642 400.5,68.263993 394.45,73.493825 384.55767,82.773904 378.51705,88.886389 372.47643,94.998875 366.96448,100 366.26826,100 c -0.69622,0 -4.32155,-1.557267 -8.05629,-3.460593 -8.96103,-4.566786 -22.58837,-8.952962 -36.45657,-11.734126 -9.54383,-1.913944 -14.44879,-2.257187 -32.2554,-2.257187 -17.80661,0 -22.71157,0.343243 -32.2554,2.257187 -12.94085,2.595191 -25.31897,6.475526 -36.67008,11.495461 -4.88544,2.160546 -8.62233,3.247199 -9.74219,2.832936 -0.99919,-0.369624 -5.08644,-4.263411 -9.08277,-8.652861 C 192.59082,80.421147 179.01817,67.627837 169.372,59.962379 160.84992,53.190193 139.83333,39 138.32537,39 c -1.30565,0 -2.94718,5.592481 -4.40288,15 -1.83066,11.830823 -0.66689,44.574916 1.91925,54 2.82106,10.28124 5.7931,17.25267 10.86005,25.47414 2.36401,3.83577 4.29821,7.55427 4.29821,8.26332 0,0.70906 -3.09663,7.4707 -6.8814,15.02587 -6.95671,13.88701 -15.41733,32.43637 -23.1417,50.73667 -8.8782,21.03392 -16.96796,35.1955 -25.21829,44.14605 -3.067649,3.32801 -3.715298,4.67834 -3.209812,6.69236 1.232584,4.911 33.191242,32.50256 53.951202,46.57885 35.56715,24.11631 76.46562,40.83913 110,44.97747 4.95,0.61086 10.125,1.30279 11.5,1.53763 6.21505,1.06147 47.91217,-0.31687 56.5,-1.86767 z m -45.27654,-54.23582 c -8.75036,-3.09627 -13.71798,-10.69149 -9.65203,-14.75744 2.22186,-2.22186 3.71724,-1.98998 9.98755,1.54877 4.72563,2.66698 6.28914,3.05713 10.76414,2.68603 3.50101,-0.29034 6.54498,-1.32401 9.1883,-3.1202 4.64986,-3.15966 6.58042,-3.34702 8.83359,-0.85729 2.59907,2.87194 1.99724,6.11232 -1.80044,9.69399 -6.41824,6.05318 -18.02606,8.09515 -27.32111,4.80614 z m 1.08175,-29.79652 C 273.15314,262.42201 264,251.46161 264,246.00772 c 0,-4.6842 2.84996,-9.03787 7.21236,-11.0178 2.3582,-1.0703 5.41264,-1.97019 6.78764,-1.99976 1.375,-0.0296 3.37351,-0.71446 4.44113,-1.52196 2.44053,-1.84593 9.80078,-1.90204 13.35853,-0.10185 1.48519,0.7515 4.39746,1.67369 6.47172,2.04933 5.02606,0.91018 10.49241,5.80831 11.30276,10.12783 1.2741,6.79154 -6.44755,17.22492 -15.93713,21.53401 -4.87304,2.21278 -12.81051,2.42107 -17.3318,0.45483 z m -85.39176,-21.30891 c -3.50529,-1.83118 -6.52341,-4.45884 -8.8642,-7.71741 -3.20791,-4.46568 -3.58334,-5.68629 -3.9037,-12.69194 -0.29306,-6.4084 0.0246,-8.53412 1.83375,-12.27133 3.06261,-6.32652 9.90391,-12.07536 16.15446,-13.57485 16.13009,-3.86955 29.78753,7.15266 29.84428,24.08575 0.0635,18.9531 -18.61539,30.76295 -35.06459,22.16978 z m 18.632,-28.67799 C 214.89545,214.19545 216,212.375 216,211.5 c 0,-2.26571 -4.53039,-6.5 -6.95455,-6.5 -2.81141,0 -6.04545,3.4772 -6.04545,6.5 0,3.0228 3.23404,6.5 6.04545,6.5 1.125,0 3.15,-1.10455 4.5,-2.45455 z m 148.91584,29.57608 c -5.38726,-2.44712 -11.8855,-9.99336 -13.46574,-15.63742 C 343.35813,209.34922 362.82067,190.859 381,199.07854 c 11.53178,5.21394 17.46422,16.55137 14.9636,28.59678 -3.0473,14.67877 -20.07455,23.54565 -33.50231,17.44621 z m 10.08416,-29.57608 C 373.89545,214.19545 375,212.375 375,211.5 c 0,-2.33777 -4.56296,-6.5 -7.1258,-6.5 -5.34703,0 -7.82852,7.04568 -3.8742,11 2.67532,2.67532 5.56954,2.52137 8.54545,-0.45455 z"
         id="path6" />
      <path
         style="fill:#9d5e6c"
         d="m 188.5,504.59785 c -10.32498,-3.27393 -19.64613,-10.47539 -25.63145,-19.80269 -1.76751,-2.75444 -4.83297,-9.79766 -6.81213,-15.65161 L 152.45794,458.5 136.47897,458.8158 C 118.85845,459.16405 109.17299,457.90771 95.490376,453.499 44.567258,437.09095 7.9525072,385.45619 0.93916345,320.16125 -0.91760169,302.87457 0.22564515,275.60666 3.4523334,260.21891 8.3594775,236.81723 17.099336,213.91297 29.14419,192.88911 36.490312,180.06673 66.880667,133.11672 70.337271,129.25 c 4.387423,-4.90798 9.578934,-1.87777 17.062469,9.95913 5.009535,7.92371 12.78719,23.79016 16.19648,33.04087 1.57091,4.2625 3.21555,7.75 3.65474,7.75 0.4392,0 1.18892,-1.0125 1.66604,-2.25 0.47713,-1.2375 4.06599,-8.87996 7.97525,-16.98325 C 120.80151,152.66346 124,145.3929 124,144.60996 c 0,-0.78294 -1.32311,-4.37249 -2.94025,-7.97679 C 112.5543,117.67614 108.76332,99.053652 108.71662,76 108.6715,53.718231 112.15189,36.676688 120.43547,18.619404 124.50722,9.7434377 128.10401,6 132.56052,6 c 7.3587,0 59.15907,38.656603 78.90818,58.886114 3.43739,3.521008 6.83016,6.113672 8,6.113382 1.11721,-2.78e-4 4.42123,-0.908866 7.34225,-2.019085 13.56023,-5.153953 34.31446,-9.218408 53.68905,-10.514327 21.52931,-1.440043 54.92161,3.663429 74.8151,11.434275 C 356.8634,70.505161 358.9766,71 360.01109,71 361.04558,71 366.95017,66.258783 373.1324,60.463962 387.16096,47.314486 402.74059,35.123891 423.95912,20.69355 444.34775,6.8276102 445.6559,6.0937259 450.07569,6.0419155 c 4.39775,-0.051552 6.81516,2.3066017 10.77781,10.5136625 8.43764,17.475199 12.39696,35.908946 12.44568,57.944422 0.0507,22.913578 -3.94029,41.59534 -12.85295,60.16519 C 458.0008,139.76033 456,144.562 456,145.33558 c 0,0.77358 2.97509,8.10204 6.6113,16.28547 3.63622,8.18342 9.74921,22.52895 13.58442,31.87895 9.45989,23.06261 14.24058,31.98349 24.37159,45.47797 C 510.20066,251.80958 512,254.84343 512,258.25456 c 0,3.95503 -5.39942,11.17493 -17.21701,23.02192 -18.94692,18.99408 -38.95563,34.69457 -63.84177,50.09554 -5.74267,3.55389 -11.2748,7.0706 -12.29362,7.81492 -1.78807,1.3063 -1.74495,1.78671 1.24162,13.83318 6.28606,25.35513 7.51719,35.86498 7.55321,64.47988 0.0216,17.17218 -0.41962,28.69016 -1.29954,33.92316 -4.69035,27.89418 -13.07234,41.98468 -29.93212,50.31723 -6.59541,3.25963 -8.4897,3.72311 -16.68107,4.08137 -18.17841,0.79506 -32.62544,-6.27423 -44.22024,-21.63807 -4.11579,-5.45368 -5.94001,-7.14824 -7.16547,-6.65616 -0.90419,0.36309 -5.91899,1.76662 -11.14399,3.11898 -17.66124,4.57114 -41.22755,4.21225 -60.8869,-0.92723 l -8.38689,-2.19256 -1.59494,2.48664 c -2.96426,4.62155 -13.40515,14.95389 -18.2573,18.06751 -8.20612,5.26585 -17.18847,7.88333 -26.87397,7.83114 -4.675,-0.0252 -10.3,-0.61656 -12.5,-1.31416 z M 212,480.92482 c 9.10644,-4.11054 15.86603,-12.90471 19.43003,-25.27829 1.69312,-5.8782 5.23821,-10.64653 7.91532,-10.64653 0.78995,0 3.6229,1.58884 6.29546,3.53074 13.60821,9.88789 28.66807,14.08457 47.33666,13.19115 15.04605,-0.72006 24.84825,-3.76842 36.13657,-11.23801 4.5581,-3.01613 8.81143,-5.48388 9.45185,-5.48388 2.66053,0 6.21583,4.15565 7.4534,8.71198 2.02744,7.46438 7.42397,17.42265 11.64211,21.48331 10.49224,10.10051 26.67391,10.62333 35.47858,1.14629 6.45345,-6.94626 9.1026,-17.38903 10.92049,-43.04788 1.62843,-22.98472 -0.0296,-45.32366 -5.10586,-68.7937 -3.1426,-14.52965 -2.45158,-13.94863 -11.8669,-9.97775 C 377.09858,358.73513 348.60291,368 345.63461,368 c -1.22554,0 -6.25718,0.86403 -11.18143,1.92008 -15.86581,3.40254 -30.00748,4.39326 -53.76185,3.76637 -16.13563,-0.42582 -25.19307,-1.14957 -33.19133,-2.65219 -6.05,-1.1366 -13.53392,-2.51048 -16.63094,-3.05307 -7.59273,-1.33021 -29.32522,-8.34499 -38.91114,-12.55968 C 187.67786,353.53968 183.72389,352 183.17132,352 c -1.12297,0 -4.2561,12.58313 -6.72285,27 -2.5576,14.94784 -3.13335,54.49213 -1.00406,68.96145 2.83784,19.28411 7.02224,28.16086 15.30786,32.47397 6.1482,3.20048 14.80017,3.39976 21.24773,0.4894 z m -64.25,-45.55511 c 2.21927,-0.59474 2.25,-0.83071 2.25,-17.27788 0,-17.62617 1.80208,-35.09897 5.04552,-48.92079 1.07496,-4.58092 1.95448,-9.16146 1.95448,-10.17896 0,-1.22853 -2.60344,-3.46021 -7.75,-6.64332 C 137.6947,345.20189 125.9224,332.83681 117.5,319 112.04076,310.03125 108.62907,305.75014 102,299.55002 87.818751,286.28641 72.220996,270.0491 69.022706,265.22056 63.966889,257.58767 64.098386,257.22477 79.5,236.30549 83.9,230.32917 88.599815,223.3616 89.944033,220.822 l 2.444032,-4.61747 -2.148151,-10.85227 C 86.516741,186.54314 77.190969,161.628 74.094012,162.21617 c -3.375371,0.64104 -22.941376,31.95045 -33.060649,52.90346 -20.042682,41.50046 -24.92218,86.09974 -13.966298,127.65388 4.640983,17.60261 11.243661,32.98877 18.682686,43.53609 12.920706,18.31945 26.998558,31.31437 42.574393,39.29939 C 103.7403,433.51215 113.689,435.892 131.5,435.93718 c 7.7,0.0195 15.0125,-0.23583 16.25,-0.56747 z M 324.5,349.56469 C 369.37052,341.46196 415.68343,319.1371 456.66458,285.85556 471.99391,273.40633 486,259.30321 486,256.31691 c 0,-0.32685 -2.40319,-3.56937 -5.34042,-7.20559 -11.45849,-14.18535 -12.88981,-16.86855 -26.50059,-49.67864 -5.48354,-13.2186 -13.10326,-30.76106 -16.93269,-38.98325 -3.82944,-8.22219 -7.25818,-15.90179 -7.61943,-17.06579 -0.48294,-1.55611 0.42473,-3.54152 3.42874,-7.5 5.14504,-6.77975 11.37381,-19.56179 13.34422,-27.38364 4.34813,-17.260559 4.76458,-49.105338 0.82119,-62.79481 -1.07652,-3.737145 -2.22271,-7.060216 -2.5471,-7.384602 -1.09808,-1.098078 -6.92465,2.022771 -20.06215,10.745759 -14.99163,9.954087 -30.2671,22.824358 -46.07472,38.820042 C 372.47643,93.998875 366.95492,99 366.24702,99 c -0.7079,0 -4.99058,-1.763525 -9.51706,-3.918945 C 346.07394,90.006869 338.35793,87.533982 323,84.271024 c -11.26425,-2.393213 -14.57606,-2.655761 -33.5,-2.655761 -18.92394,0 -22.23575,0.262548 -33.5,2.655761 -14.89363,3.164313 -22.35592,5.539642 -34.30223,10.918775 -6.36407,2.865587 -9.44489,3.772079 -10.75112,3.163383 C 209.93966,97.883932 205.84875,93.9 201.85574,89.5 185.86881,71.883616 163.64169,53.226572 145.7701,42.422733 c -4.74726,-2.869846 -8.20993,-4.382907 -8.7635,-3.829338 -3.85105,3.851054 -6.40341,40.28109 -4.06108,57.964157 1.59585,12.047668 6.35524,25.959798 12.21813,35.714728 2.65999,4.42582 4.83635,8.88074 4.83635,9.89983 0,1.01908 -3.32279,8.48738 -7.38397,16.59621 -7.41938,14.81404 -15.79816,33.15149 -23.63733,51.73168 -7.8894,18.69924 -15.61974,31.81577 -24.302398,41.23534 -3.70156,4.01572 -3.889784,4.49725 -2.65778,6.79927 3.222582,6.02145 35.566488,33.55734 54.481478,46.38265 35.56715,24.11631 76.46562,40.83913 110,44.97747 4.95,0.61086 10.125,1.30279 11.5,1.53763 6.21505,1.06147 47.91217,-0.31687 56.5,-1.86767 z m -45.27654,-54.23582 c -8.75036,-3.09627 -13.71798,-10.69149 -9.65203,-14.75744 2.22186,-2.22186 3.71724,-1.98998 9.98755,1.54877 4.72563,2.66698 6.28914,3.05713 10.76414,2.68603 3.50101,-0.29034 6.54498,-1.32401 9.1883,-3.1202 4.64986,-3.15966 6.58042,-3.34702 8.83359,-0.85729 2.59907,2.87194 1.99724,6.11232 -1.80044,9.69399 -6.41824,6.05318 -18.02606,8.09515 -27.32111,4.80614 z m 1.04247,-29.81304 c -4.68366,-2.03604 -12.66784,-9.86309 -14.7332,-14.44325 -3.46206,-7.67748 0.14365,-14.8406 8.59506,-17.075 2.40471,-0.63576 5.98141,-1.61648 7.94822,-2.17939 7.59677,-2.17422 23.01936,0.98288 27.96965,5.72556 5.90612,5.65842 4.23897,14.35262 -4.21709,21.99216 -7.72903,6.98272 -17.82361,9.34416 -25.56264,5.97992 z m -85.35248,-21.29239 c -3.50529,-1.83118 -6.52341,-4.45884 -8.8642,-7.71741 -3.20791,-4.46568 -3.58334,-5.68629 -3.9037,-12.69194 -0.29306,-6.4084 0.0246,-8.53412 1.83375,-12.27133 3.06261,-6.32652 9.90391,-12.07536 16.15446,-13.57485 16.13009,-3.86955 29.78753,7.15266 29.84428,24.08575 0.0635,18.9531 -18.61539,30.76295 -35.06459,22.16978 z m 18.632,-28.67799 C 214.89545,214.19545 216,212.375 216,211.5 c 0,-2.26571 -4.53039,-6.5 -6.95455,-6.5 -2.81141,0 -6.04545,3.4772 -6.04545,6.5 0,3.0228 3.23404,6.5 6.04545,6.5 1.125,0 3.15,-1.10455 4.5,-2.45455 z m 148.91584,29.57608 c -5.38726,-2.44712 -11.8855,-9.99336 -13.46574,-15.63742 C 343.35813,209.34922 362.82067,190.859 381,199.07854 c 11.53178,5.21394 17.46422,16.55137 14.9636,28.59678 -3.0473,14.67877 -20.07455,23.54565 -33.50231,17.44621 z m 10.08416,-29.57608 C 373.89545,214.19545 375,212.375 375,211.5 c 0,-2.33777 -4.56296,-6.5 -7.1258,-6.5 -5.34703,0 -7.82852,7.04568 -3.8742,11 2.67532,2.67532 5.56954,2.52137 8.54545,-0.45455 z"
         id="path5" />
      <path
         style="fill:#5d5859"
         d="m 188.5,504.59785 c -10.32498,-3.27393 -19.64613,-10.47539 -25.63145,-19.80269 -1.76751,-2.75444 -4.83297,-9.79766 -6.81213,-15.65161 L 152.45794,458.5 136.47897,458.8158 C 118.85845,459.16405 109.17299,457.90771 95.490376,453.499 44.567258,437.09095 7.9525072,385.45619 0.93916345,320.16125 -0.92584851,302.79779 0.22470708,275.62509 3.4865312,260 8.3658625,236.62657 17.777753,212.34788 30.297818,190.83823 41.819764,171.04336 69.569533,129.59475 72.367894,128 c 2.343847,-1.33573 2.930808,-1.33291 5.359568,0.0257 1.500104,0.83914 4.421333,3.76414 6.49162,6.5 4.71499,6.23083 15.627872,27.46085 19.391448,37.72431 1.56304,4.2625 3.14007,7.75 3.50449,7.75 0.36443,0 2.61083,-4.1625 4.992,-9.25 2.38117,-5.0875 6.2204,-12.98489 8.53162,-17.54976 l 4.20222,-8.29977 -3.32213,-7.28992 C 112.64837,118.14582 108.76412,99.452757 108.71662,76 108.68209,58.946353 110.2597,47.612266 114.56496,33.983716 120.48681,15.237725 126.57271,6 133.00088,6 c 6.9257,0 59.49066,39.44733 78.46782,58.886114 3.43739,3.521008 6.83016,6.113672 8,6.113382 1.11721,-2.78e-4 4.42123,-0.908866 7.34225,-2.019085 13.56023,-5.153953 34.31446,-9.218408 53.68905,-10.514327 21.52931,-1.440043 54.92161,3.663429 74.8151,11.434275 C 356.8634,70.505161 358.9766,71 360.01109,71 c 1.03449,0 6.93908,-4.741217 13.12131,-10.536038 14.02856,-13.149476 29.60819,-25.340071 50.82672,-39.770412 20.01602,-13.6125362 21.73676,-14.598586 25.56837,-14.6516345 4.47406,-0.061943 7.13475,2.3332749 10.86628,9.7820855 8.75013,17.466839 12.85557,36.132726 12.90541,58.675999 0.0507,22.913578 -3.94029,41.59534 -12.85295,60.16519 C 458.0008,139.76033 456,144.562 456,145.33558 c 0,0.77358 2.97509,8.10204 6.6113,16.28547 3.63622,8.18342 9.74921,22.52895 13.58442,31.87895 9.45989,23.06261 14.24058,31.98349 24.37159,45.47797 C 510.20066,251.80958 512,254.84343 512,258.25456 c 0,3.95503 -5.39942,11.17493 -17.21701,23.02192 -18.94692,18.99408 -38.95563,34.69457 -63.84177,50.09554 -5.74267,3.55389 -11.2748,7.0706 -12.29362,7.81492 -1.78807,1.3063 -1.74495,1.78671 1.24162,13.83318 6.28606,25.35513 7.51719,35.86498 7.55321,64.47988 0.0216,17.17218 -0.41962,28.69016 -1.29954,33.92316 -4.69035,27.89418 -13.07234,41.98468 -29.93212,50.31723 -6.59541,3.25963 -8.4897,3.72311 -16.68107,4.08137 -18.17841,0.79506 -32.62544,-6.27423 -44.22024,-21.63807 -4.11579,-5.45368 -5.94001,-7.14824 -7.16547,-6.65616 -0.90419,0.36309 -5.91899,1.76401 -11.14399,3.11316 -17.85962,4.61156 -43.07772,4.16758 -61.18559,-1.07721 l -7.90647,-2.29003 -2.83885,4.11327 c -3.84069,5.56486 -13.56634,14.67287 -19.06909,17.8581 -10.94057,6.33286 -27.1243,8.64305 -37.5,5.35303 z m 24.37233,-23.03183 c 4.79248,-2.47829 11.87564,-9.26948 14.61075,-14.0085 1.28799,-2.23164 3.27885,-7.24815 4.42414,-11.14781 3.34584,-11.39245 6.22498,-12.68104 15.11558,-6.76512 14.11098,9.38962 27.66773,12.95245 45.95467,12.0773 14.43434,-0.69079 24.42385,-3.70064 35.48161,-10.69066 4.3775,-2.76718 8.84207,-5.03123 9.92126,-5.03123 3.1526,0 5.5522,2.95232 7.25492,8.92601 5.11534,17.9462 17.20037,29.07399 31.575,29.07399 8.42963,0 15.61133,-4.42669 20.37827,-12.56086 5.77783,-9.85911 9.50026,-44.73975 7.49639,-70.244 -1.69838,-21.61607 -6.96185,-48.82695 -9.64379,-49.85611 -0.74776,-0.28693 -5.76541,1.27238 -11.15034,3.46516 -22.15881,9.02317 -48.93155,16.0002 -70.04816,18.25469 -14.68201,1.56751 -51.34833,0.70461 -64.22869,-1.51155 -19.1181,-3.2894 -42.08681,-9.97853 -57.39506,-16.71504 -4.9096,-2.16051 -9.45084,-3.72701 -10.09165,-3.48111 -1.2056,0.46263 -4.51866,13.82861 -7.10124,28.64882 -0.84296,4.83734 -1.73877,18.62618 -2.07892,32 -0.48899,19.22551 -0.28946,25.58948 1.09695,34.98738 3.03683,20.5854 7.5121,29.78082 16.78544,34.48939 4.52,2.29505 6.19729,2.61552 11.77851,2.25052 3.57939,-0.23409 8.01835,-1.20666 9.86436,-2.16127 z M 149.75,435.69098 c 0.92034,-0.59566 1.25,-5.35366 1.25,-18.04153 0,-18.32457 1.75536,-35.37434 5.14134,-49.93772 1.12379,-4.83355 1.82091,-9.36773 1.54914,-10.07595 -0.27177,-0.70823 -3.80081,-3.26152 -7.84231,-5.67399 C 139.18172,345.59471 125.10486,331.02841 117,317.97149 112.21267,310.25911 108.26035,305.40527 102,299.55002 87.818751,286.28641 72.220996,270.0491 69.022706,265.22056 63.966889,257.58767 64.098386,257.22477 79.5,236.30549 83.9,230.32917 88.599815,223.3616 89.944033,220.822 l 2.444032,-4.61747 -2.148151,-10.85227 C 86.516741,186.54314 77.190969,161.628 74.094012,162.21617 c -3.375371,0.64104 -22.941376,31.95045 -33.060649,52.90346 -20.328742,42.09278 -25.037548,87.23376 -13.49936,129.41164 8.973484,32.8026 25.219644,57.64073 49.037621,74.97173 8.449529,6.14825 21.207263,12.04639 32.428376,14.99226 8.40304,2.20603 11.23205,2.46577 24.5,2.24938 8.25,-0.13455 15.5625,-0.6087 16.25,-1.05366 z M 324.5,349.56469 c 45.07833,-8.14025 90.71032,-30.17687 132.51115,-63.99231 C 467.4976,277.0892 487,258.39798 487,256.83088 c 0,-0.54909 -2.64905,-4.22317 -5.88677,-8.16462 -6.8918,-8.38974 -12.37746,-16.81423 -15.26248,-23.43905 -1.13225,-2.59996 -6.46935,-15.32497 -11.86024,-28.27778 -5.39088,-12.95281 -12.9941,-30.38901 -16.89605,-38.7471 C 433.19251,149.84423 430,142.50375 430,141.89014 c 0,-0.61362 2.02032,-3.80329 4.48961,-7.08816 12.10475,-16.10288 17.30044,-37.210325 16.28118,-66.142131 -0.5273,-14.96753 -3.65174,-30.2932 -6.3901,-31.344006 -1.65684,-0.635788 -7.31221,2.590703 -22.46903,12.818985 -13.68791,9.237019 -29.37742,22.552173 -43.89379,37.251168 C 372.25269,93.223698 366.77603,98 365.8475,98 364.91898,98 361.08594,96.448519 357.32964,94.552265 348.38982,90.039269 337.39205,86.527118 322,83.269705 c -11.13099,-2.355648 -14.69041,-2.645371 -32.5,-2.645371 -17.80959,0 -21.36901,0.289723 -32.5,2.645371 -14.72159,3.115524 -25.46312,6.497621 -35.78977,11.268829 C 217.08969,96.44234 212.98189,98 212.08178,98 c -0.9001,0 -4.99923,-3.718897 -9.10917,-8.264215 -16.22292,-17.941473 -36.57699,-35.098629 -56.56494,-47.680543 -10.21208,-6.428251 -10.24421,-6.413963 -13.12075,5.835394 -1.42234,6.05687 -1.78264,11.893871 -1.76596,28.609364 0.0186,18.622433 0.27967,21.986776 2.30614,29.71576 3.03224,11.56506 6.19598,19.14736 11.73295,28.1195 l 4.57686,7.41638 -7.45242,14.88 c -7.47615,14.92739 -15.83296,33.21109 -23.70711,51.86836 -8.77371,20.7887 -17.59722,35.86225 -25.444916,43.46853 C 91.589609,253.85162 90,255.92838 90,256.58354 c 0,3.347 37.63452,35.54199 56.5,48.33372 35.56715,24.11631 76.46562,40.83913 110,44.97747 4.95,0.61086 10.125,1.30279 11.5,1.53763 6.21505,1.06147 47.91217,-0.31687 56.5,-1.86767 z M 279.22346,295.32887 C 273.67689,293.36625 268,288.03406 268,284.78691 268,282.12448 270.75177,279 273.09661,279 c 0.79151,0 3.23108,1.2375 5.42126,2.75 3.42346,2.36419 4.97245,2.75 11.04098,2.75 6.24168,0 7.43715,-0.31835 10.32672,-2.75 3.89066,-3.27408 5.44654,-3.41789 8.11443,-0.75 2.90923,2.90923 2.46331,5.82689 -1.45543,9.52273 -6.41824,6.05318 -18.02606,8.09515 -27.32111,4.80614 z m 1.08175,-29.79652 c -4.45893,-1.93913 -12.10297,-9.2156 -14.3895,-13.69756 -2.29942,-4.50725 -2.38848,-6.76753 -0.44948,-11.4082 2.07771,-4.97268 8.10991,-7.44355 19.87092,-8.13943 15.63178,-0.9249 24.55842,2.21807 27.67591,9.74438 3.97579,9.59841 -11.16715,25.03227 -24.4594,24.92932 -2.77951,-0.0215 -6.49131,-0.66436 -8.24845,-1.42851 z m -83.12318,-20.0518 c -5.77362,-2.50777 -9.15644,-5.50723 -12.2041,-10.82104 -2.47637,-4.31773 -2.96069,-6.26602 -2.96855,-11.94163 -0.0108,-7.81224 1.41039,-11.8485 6.02084,-17.09952 9.06316,-10.32236 23.87639,-11.33539 33.71136,-2.30541 6.02203,5.52912 8.20886,10.50489 8.23646,18.74071 0.0372,11.10114 -5.98341,20.03484 -15.88784,23.57522 -4.77253,1.70596 -12.80122,1.63553 -16.90817,-0.14833 z m 16.36342,-29.9351 c 2.99471,-2.9947 3.06724,-4.49683 0.38197,-7.91059 C 210.1053,202.77582 203,205.17606 203,211.32625 c 0,6.3353 6.02055,8.7441 10.54545,4.2192 z M 362.5,245.13434 c -9.08372,-4.13704 -15.17073,-14.80083 -14.24924,-24.96315 1.55158,-17.11113 18.05139,-27.73809 32.74924,-21.09265 11.53178,5.21394 17.46422,16.55137 14.9636,28.59678 -3.04325,14.65926 -20.08665,23.55134 -33.4636,17.45902 z m 10.42742,-29.7692 C 374.06734,213.91597 375,212.17666 375,211.5 c 0,-2.65628 -4.14007,-6.5 -7.00115,-6.5 -3.79721,0 -5.99885,2.39097 -5.99885,6.51472 0,6.18741 7.11663,8.69505 10.92742,3.85042 z"
         id="path4" />
      <path
         style="fill:#4f2f36"
         d="m 189,504.11317 c -16.50627,-5.40235 -27.90252,-18.61859 -33.53475,-38.8903 -0.95922,-3.45242 -2.2438,-6.59518 -2.85464,-6.98391 C 151.99978,457.85023 144.3,457.66474 135.5,457.82677 118.23716,458.14462 108.83163,456.97323 95.828427,452.88598 85.640328,449.68359 69.73679,441.41935 60.757977,434.6617 51.290348,427.53616 38.122009,413.7498 31.20818,403.72506 24.518472,394.02528 14.064233,372.37342 10.096271,360 6.648872,349.24987 3,333.41808 3,329.21059 3,327.66476 2.4375,325.8375 1.75,325.15 0.06354988,323.46355 -0.05380034,272.99909 1.6238555,270.90369 2.241976,270.13166 3.0720046,267.25 3.4683634,264.5 6.720448,241.93653 18.304596,212.28561 34.441404,185.22105 41.371566,173.59782 66.398715,135.21577 69.95944,130.75 c 3.222443,-4.04151 6.962167,-3.68605 11.259115,1.07015 5.956217,6.59282 18.005967,29.65622 22.682775,43.41517 0.96251,2.83165 2.28622,5.3272 2.94158,5.54565 C 108.00218,181.16739 125,147.22991 125,144.52893 c 0,-0.70358 -1.53686,-4.65165 -3.41524,-8.77349 C 105.99922,101.55521 105.20481,55.975588 119.60986,22.443934 124.24142,11.662723 128.02843,7 132.15325,7 c 3.99122,0 6.83326,1.5958711 22.70605,12.749964 25.59683,17.98735 37.26929,27.394559 53.25062,42.916411 C 213.39538,67.799869 218.44122,72 219.3229,72 c 0.88168,0 3.92948,-0.916988 6.77287,-2.037751 2.8434,-1.120763 9.49756,-3.162204 14.78703,-4.536536 35.03231,-9.102254 73.79418,-7.973927 108.21227,3.14997 C 354.92236,70.459057 360.15735,72 360.72839,72 c 0.57104,0 6.37826,-4.987816 12.90493,-11.084035 C 388.25343,47.260094 403.59917,35.249463 424.5,21.104207 443.35385,8.3443054 445.81062,7 450.27603,7 c 4.46241,0 6.7248,2.5598549 11.04746,12.5 4.78777,11.009698 6.30557,15.82817 8.56724,27.197906 5.88028,29.561068 2.2894,61.055854 -9.93135,87.105714 l -5.30286,11.30362 3.0693,7.19638 c 1.68812,3.95801 6.63323,15.52138 10.98913,25.69638 4.35591,10.175 9.8236,23.04674 12.15042,28.60386 2.32683,5.55712 5.83324,12.81297 7.79202,16.12411 2.92708,4.94795 15.45337,22.59065 21.815,30.72542 2.02854,2.59395 1.93422,6.60268 -0.22239,9.45166 -16.83081,22.23427 -50.73652,50.91302 -82.01831,69.37422 -5.64757,3.33296 -10.71693,6.60048 -11.26525,7.26117 -0.67927,0.81847 -0.19679,4.18991 1.51413,10.5804 1.38109,5.15854 3.73749,16.35416 5.23644,24.87916 2.51099,14.28072 2.72723,17.6239 2.74899,42.5 0.0301,34.37939 -1.9664,47.48239 -9.54026,62.61367 -4.72715,9.44404 -11.04456,15.88016 -20.30945,20.69109 C 389.52222,504.48846 389.46098,504.5 377,504.5 c -12.35015,0 -12.59283,-0.0443 -20.24341,-3.69758 -9.96254,-4.75724 -14.68952,-8.61996 -21.30458,-17.4093 l -5.35869,-7.12004 -7.91114,2.29139 c -20.11989,5.82755 -45.3441,5.91441 -66.63771,0.22947 l -7.95554,-2.12396 -2.04446,2.90072 c -1.12446,1.5954 -4.96947,5.98567 -8.54447,9.75617 -5.07486,5.35237 -8.36365,7.76312 -15,10.99532 -8.22639,4.00662 -8.85409,4.14744 -19.5,4.37455 -6.05,0.12906 -12.125,-0.13354 -13.5,-0.58357 z m 21.4709,-21.22674 c 2.79697,-0.77651 6.09452,-3.22605 11.1542,-8.28572 6.75907,-6.75907 7.34173,-7.70275 9.86617,-15.97908 C 234.13644,449.94949 236.6227,446 239.43679,446 c 0.79024,0 4.50274,2.10082 8.25,4.66848 13.31565,9.12403 27.79347,12.97582 45.29519,12.05069 13.80827,-0.7299 25.60554,-4.47424 36.39633,-11.55184 4.33306,-2.84203 8.49556,-5.16733 9.25,-5.16733 2.60229,0 5.25731,3.90031 7.28129,10.69646 2.54864,8.55784 6.30561,14.52055 12.85913,20.40878 6.12793,5.50586 11.62433,7.29375 20.6549,6.71873 5.40391,-0.3441 7.14158,-0.9289 10.28918,-3.46277 9.16155,-7.3752 11.74773,-13.54494 14.40326,-34.3612 1.81438,-14.22265 1.57012,-47.17591 -0.45214,-61 -2.0018,-13.68424 -6.26778,-33.00385 -7.57661,-34.31268 -0.57495,-0.57495 -4.52877,0.6119 -10.33474,3.10227 -19.86458,8.52059 -46.81041,15.56407 -69.72635,18.22607 -11.21603,1.30289 -43.62664,1.25613 -55.81564,-0.0805 -22.82837,-2.50339 -45.98027,-8.39254 -65.41653,-16.64002 -5.88826,-2.49859 -11.35591,-4.29348 -12.15033,-3.98863 -1.56659,0.60116 -4.46005,11.7695 -7.30428,28.19353 -2.56688,14.82249 -2.58452,62.2985 -0.0279,75 3.03716,15.08863 7.87513,23.40345 15.94006,27.39552 4.77157,2.36189 12.79158,2.77539 19.21925,0.99091 z M 147.875,436.375 151,435.75 v -17.16654 c 0,-18.13222 1.76774,-35.44422 5.04552,-49.41242 2.97606,-12.68237 3.15501,-12.17777 -6.29552,-17.75169 -13.60945,-8.02685 -24.36294,-19.93074 -37.02172,-40.98224 -2.51105,-4.17586 -7.23194,-9.24838 -15.167963,-16.2977 -12.304995,-10.93015 -26.410228,-26.0147 -28.989233,-31.00195 -3.144417,-6.08063 -2.488229,-7.59336 11.615614,-26.77787 4.777684,-6.49876 9.657237,-13.75924 10.843452,-16.13441 l 2.156754,-4.31848 -2.055127,-10.20335 c -3.994881,-19.8339 -13.634847,-45.13002 -16.960608,-44.50614 -3.373169,0.63278 -25.025857,34.8679 -34.201103,54.07545 -5.789278,12.11933 -12.883078,33.07941 -15.83788,46.79626 -7.353538,34.13675 -3.634557,71.65464 10.433013,105.25049 10.435408,24.92162 34.059446,50.47745 56.523523,61.14559 12.542478,5.95639 24.206898,8.42871 40.036278,8.48583 7.49375,0.027 15.03125,-0.23208 16.75,-0.57583 z M 323.5,350.55894 c 39.39979,-7.08963 77.90671,-23.90469 115.04905,-50.23921 19.83699,-14.06475 43.94725,-35.26004 47.34797,-41.62354 1.33601,-2.49996 1.1557,-2.91075 -4.12832,-9.40516 -10.97377,-13.48749 -12.2242,-15.88752 -27.79138,-53.3416 -5.38362,-12.95281 -13.00601,-30.44276 -16.93862,-38.86654 l -7.15022,-15.31598 2.80576,-3.99379 c 10.93598,-15.56657 14.2766,-23.62187 16.83506,-40.594703 3.66653,-24.3238 0.15667,-59.078854 -6.05615,-59.968726 C 441.09542,36.869127 418.38854,51.522589 406.5,61.069622 402.1,64.60302 391.45903,74.357836 382.85341,82.746991 374.24778,91.136146 366.71082,98 366.10461,98 365.4984,98 361.96437,96.454634 358.2512,94.565854 349.38759,90.057183 338.35419,86.520141 323,83.265169 c -11.25319,-2.385593 -14.59464,-2.649906 -33.5,-2.649906 -18.90536,0 -22.24681,0.264313 -33.5,2.649906 -14.76775,3.130652 -25.20611,6.422238 -35.97054,11.342791 -5.18715,2.371111 -8.35378,3.301693 -9.32711,2.740976 -0.8105,-0.466915 -4.5626,-4.255995 -8.338,-8.420177 C 193.92648,79.621954 178.94961,65.575599 169.21219,57.836344 159.29773,49.956379 139.70656,37 137.70582,37 c -1.98977,0 -4.10051,6.608671 -5.78061,18.098913 -1.81768,12.431163 -0.69153,42.263591 1.97809,52.401087 2.88342,10.94937 5.71004,17.75502 10.78796,25.97414 2.36981,3.83577 4.30874,7.55427 4.30874,8.26332 0,0.70906 -3.09663,7.4707 -6.8814,15.02587 -6.95671,13.88701 -15.41733,32.43637 -23.1417,50.73667 -8.89372,21.07068 -16.96649,35.1939 -25.258807,44.19001 -2.773036,3.00839 -3.707245,4.76881 -3.266914,6.15617 0.811519,2.55687 19.082601,19.48401 33.548821,31.08112 20.13722,16.14338 44.79511,31.91641 63.37793,40.54129 21.28843,9.88063 51.71554,19.18163 70.12207,21.435 4.95,0.60599 10.125,1.29451 11.5,1.53005 6.0735,1.0404 45.91613,-0.33012 54.5,-1.8747 z m -46.17362,-56.98731 c -5.64015,-2.62606 -8.66531,-6.21079 -8.15351,-9.66169 0.65027,-4.38448 3.21709,-4.63232 10.30817,-0.99531 5.69576,2.92135 7.19948,3.28335 11.51538,2.7722 2.86499,-0.33932 6.55066,-1.666 8.716,-3.13738 4.13442,-2.80941 6.2711,-3.16593 8.08758,-1.34945 3.37098,3.37098 0.10853,9.00274 -7.18165,12.39723 -7.06664,3.2904 -16.1915,3.28037 -23.29197,-0.0256 z M 279.5,264.34511 c -7.2123,-3.78601 -14.5,-13.2625 -14.5,-18.85493 0,-6.4051 4.09568,-9.72244 15.26435,-12.36354 8.31273,-1.96574 19.98564,-0.73914 26.58697,2.79379 3.22378,1.72532 6.14868,6.12753 6.14868,9.25427 0,6.31638 -6.52593,14.6201 -14.71016,18.7175 -5.11234,2.55947 -14.35258,2.7822 -18.78984,0.45291 z m -85,-21.06609 c -3.19484,-1.77829 -6.17335,-4.53803 -8.25,-7.64405 -2.98451,-4.46391 -3.25,-5.50853 -3.25,-12.78782 0,-9.32382 1.75253,-13.58397 7.8568,-19.09882 10.58386,-9.56187 27.5297,-7.01179 34.8932,5.25087 2.9106,4.84711 3.24756,6.20018 3.22664,12.95656 -0.0195,6.30677 -0.47061,8.35875 -2.75,12.50989 -3.9913,7.26881 -10.332,10.92015 -19.62925,11.30366 -6.20988,0.25615 -7.72263,-0.0553 -12.09739,-2.49029 z m 17.38993,-25.67453 c 3.85651,-2.1375 5.20453,-5.52114 3.50722,-8.80339 C 213.89393,205.89419 211.18078,204 208.52029,204 206.01797,204 202,208.6217 202,211.5 c 0,2.72238 3.992,7.52509 6.20455,7.46456 0.7125,-0.0195 2.37092,-0.63152 3.68538,-1.36007 z M 362.5,244.34335 c -4.66462,-2.45138 -9.56272,-7.45217 -11.60015,-11.84335 -4.0285,-8.68246 -1.36153,-22.05395 5.72367,-28.69695 8.63986,-8.10063 22.35302,-7.64366 31.71806,1.05697 9.39975,8.73287 9.65733,26.44494 0.50574,34.77713 -6.70433,6.10405 -19.3793,8.36807 -26.34732,4.7062 z m 8.55539,-26.37299 c 1.05815,-0.56631 2.57654,-2.2917 3.3742,-3.8342 1.30885,-2.53104 1.26412,-3.11067 -0.45863,-5.94352 -2.35157,-3.86685 -6.09838,-4.9944 -9.4024,-2.82952 -4.66935,3.05948 -4.56595,9.48876 0.19415,12.07156 3.32196,1.80248 3.84278,1.84682 6.29268,0.53568 z"
         id="path3" />
      <path
         style="fill:#030203"
         d="m 190,503.56903 c -10.34612,-2.87884 -19.94729,-10.13669 -26.10627,-19.73463 -1.75367,-2.73286 -4.80966,-9.77509 -6.79111,-15.64942 L 153.5,457.5044 134,457.44384 c -18.02197,-0.056 -20.278,-0.26933 -29.76439,-2.81485 -18.383035,-4.9328 -31.661308,-11.49924 -45.447867,-22.4751 -26.25589,-20.90303 -44.380729,-52.14715 -53.2792815,-91.84435 -1.3796538,-6.15476 -2.5153522,-12.67976 -2.5237743,-14.5 -0.00998,-2.15607 -0.3059851,-2.85116 -0.8493075,-1.99435 C 0.95593606,325.67515 0.01421809,314.21415 0.01421809,298 c 0,-15.35706 0.94703284,-27.68073 1.99666071,-25.9824 0.3902217,0.63139 1.0186521,-1.18256 1.3965121,-4.03101 2.3591557,-17.78419 11.9904681,-46.34885 22.1758301,-65.76935 9.573447,-18.25375 44.122282,-71.45408 47.617939,-73.3249 1.628351,-0.87146 2.587108,-0.70385 4.673718,0.81707 5.873206,4.28097 17.230925,24.18556 24.131352,42.29059 3.50957,9.20823 5.30691,11.22871 7.1165,8 0.46239,-0.825 4.48523,-9.06644 8.93965,-18.31432 l 8.09895,-16.81432 -4.02018,-9.18568 c -15.99689,-36.551152 -16.64239,-79.296615 -1.7175,-113.733459 3.95848,-9.133569 5.89608,-11.9825983 9.43863,-13.878517 3.20574,-1.7156571 6.06896,-0.4996862 17.73735,7.532813 26.98824,18.57865 43.74938,31.865163 60.0462,47.598474 C 213.22603,68.592246 218.27188,73 218.85881,73 c 0.58693,0 3.4395,-0.935091 6.33903,-2.077981 12.89497,-5.082722 36.59389,-9.92346 55.80216,-11.398139 19.00291,-1.458912 48.90413,3.084707 71.85826,10.919171 5.74834,1.961965 7.80106,2.274457 9.38217,1.428274 1.11316,-0.595742 6.74367,-5.53259 12.51226,-10.970772 5.76858,-5.438182 15.85645,-14.053017 22.41749,-19.144078 16.6467,-12.917065 45.5795,-32.4953327 50.11515,-33.9119499 3.33487,-1.0415775 4.10366,-0.9446066 6.46027,0.8148627 7.13853,5.3296802 16.09635,32.5794862 18.27428,55.5906122 2.05307,21.691934 -3.25739,50.35921 -13.00955,70.22896 l -5.14272,10.47813 8.44585,19.27145 c 4.64522,10.59931 10.80658,25.12146 13.69192,32.27146 7.81386,19.36307 13.96571,30.70956 23.58486,43.5 4.75677,6.325 8.86707,12.05992 9.134,12.74426 0.26693,0.68434 0.87498,1.00343 1.35123,0.7091 1.24945,-0.7722 2.25638,4.08831 1.48427,7.16464 -0.36139,1.4399 -0.92004,2.35503 -1.24145,2.03362 -0.32141,-0.3214 -1.95019,1.313 -3.61951,3.632 -4.33532,6.02261 -24.6038,25.81779 -36.05838,35.21638 -11.96613,9.81832 -29.7067,22.32111 -43.50261,30.65877 -5.69921,3.44436 -10.60709,6.90064 -10.9064,7.68061 -0.2993,0.77998 0.86364,7.3227 2.58433,14.53938 6.34751,26.62191 7.57775,36.81321 7.61964,63.12124 0.0631,39.63249 -5.27206,61.05098 -18.50293,74.28186 -20.48219,20.48219 -52.56221,16.65809 -71.57306,-8.53186 -3.00937,-3.9875 -5.78383,-7.24879 -6.16547,-7.24731 -0.38165,0.001 -6.03415,1.35268 -12.56113,3.00267 -20.57715,5.20179 -39.91384,5.00633 -60.78291,-0.6144 l -9.34986,-2.51822 -1.97985,2.81363 c -4.55446,6.47249 -17.22587,18.04623 -22.65111,20.68894 -11.19943,5.45539 -22.94776,6.95434 -32.86904,4.19372 z m 26.74588,-23.15551 c 7.92146,-5.45596 12.77593,-12.22601 15.79311,-22.02508 2.3329,-7.5767 4.72317,-11.38844 7.14148,-11.38844 0.56265,0 4.06219,1.99615 7.77677,4.4359 14.18262,9.31518 25.70047,12.14041 45.97721,11.27785 15.70858,-0.66824 24.12491,-3.17372 36.13352,-10.75667 4.31761,-2.72639 8.39897,-4.95708 9.06968,-4.95708 2.31861,0 4.31028,3.10952 6.32524,9.8754 3.94641,13.25131 13.64344,24.35078 23.74793,27.18252 2.31595,0.64903 7.04204,0.99978 10.50243,0.77944 12.35394,-0.78664 20.46583,-9.62818 23.81022,-25.95189 2.56202,-12.50507 4.29921,-38.84995 3.48728,-52.88547 -1.25141,-21.63266 -6.76695,-52.68477 -9.9176,-55.83542 -1.22273,-1.22273 -2.69755,-0.86875 -10.7551,2.58146 -20.73788,8.87985 -46.89627,15.92977 -69.80004,18.81172 -13.46134,1.69381 -39.06267,1.88214 -52.82742,0.38859 -21.90356,-2.37664 -48.91196,-9.33455 -68.34859,-17.60796 -5.8509,-2.4905 -11.44739,-4.3723 -12.43666,-4.18179 -2.11135,0.40661 -4.16794,7.6641 -7.60677,26.8434 -1.96185,10.94174 -2.24606,15.99051 -2.27991,40.5 -0.0435,31.49557 1.14898,41.07041 6.48922,52.10483 3.44231,7.11277 6.48162,10.42397 12.28518,13.38421 3.49083,1.78057 5.48074,2.06933 11.96888,1.73682 7.1043,-0.36408 8.27671,-0.73959 13.46394,-4.31234 z M 150.75,436.69098 c 0.92034,-0.59566 1.25,-5.35366 1.25,-18.04153 0,-18.29333 1.75489,-35.37184 5.12352,-49.86182 1.11399,-4.7918 1.87943,-9.70371 1.70096,-10.91535 -0.22174,-1.50544 -2.50498,-3.49632 -7.21096,-6.28763 -13.14294,-7.79561 -27.22201,-22.97649 -37.76082,-40.71592 -3.06716,-5.1628 -6.94682,-9.40894 -15.639939,-17.11735 -13.040707,-11.56352 -27.835571,-27.64629 -29.85468,-32.45355 -1.842497,-4.38677 -0.943784,-6.3398 9.036616,-19.63784 C 88.405721,226.98872 92.994241,219.25445 92.997429,215.36047 93.008002,202.44877 79.00827,160 74.739382,160 c -1.923882,0 -4.492126,3.03024 -11.44177,13.5 -19.981943,30.10315 -33.43608,59.61343 -39.310944,86.22454 -3.139544,14.22106 -4.480578,37.69544 -3.082502,53.95823 1.425281,16.57924 3.123397,25.23396 7.680815,39.14653 14.153411,43.20653 42.828478,73.04745 79.436529,82.6662 8.48146,2.2285 11.16151,2.46491 25.47849,2.24749 8.8,-0.13365 16.5625,-0.60705 17.25,-1.05201 z M 326.5,350.57501 c 43.35088,-7.87948 90.77403,-30.91754 131.16458,-63.71945 C 473.56114,273.94567 488,259.49722 488,256.5 c 0,-0.67375 -3.36969,-5.42186 -7.48821,-10.55136 -8.79653,-10.95585 -12.04961,-17.30252 -25.37154,-49.49921 -5.47324,-13.22781 -13.17802,-30.96222 -17.12174,-39.40979 l -7.17041,-15.35922 2.0538,-2.59021 C 447.29944,120.93239 452.62124,101.2212 451.69051,69.5 c -0.40707,-13.873684 -0.9302,-18.471208 -2.84465,-25 -3.26083,-11.12029 -3.60487,-11.100645 -22.37855,1.277827 -19.45635,12.828594 -27.7901,19.595818 -45.75454,37.153904 L 365.92554,97.384476 358.67821,93.75248 C 349.21794,89.011468 338.41307,85.532625 323,82.265169 c -11.25319,-2.385593 -14.59464,-2.649906 -33.5,-2.649906 -18.90536,0 -22.24681,0.264313 -33.5,2.649906 -14.80046,3.137586 -25.20735,6.422808 -36.05746,11.382525 L 212.00215,97.27734 199.34986,84.079134 C 192.39111,76.820121 182.37812,67.272941 177.09879,62.86318 165.8758,53.488759 140.19511,36 137.6526,36 c -4.89447,0 -8.04431,19.016113 -7.37102,44.5 0.66577,25.1992 3.731,37.30822 13.40968,52.97414 2.36981,3.83577 4.30874,7.55427 4.30874,8.26332 0,0.70906 -3.09663,7.4707 -6.8814,15.02587 -6.95671,13.88701 -15.41733,32.43637 -23.1417,50.73667 -9.10898,21.58067 -15.33334,32.45548 -24.146532,42.18731 -2.656702,2.93363 -4.835818,6.1166 -4.842479,7.07328 -0.02906,4.17354 36.335211,35.59913 58.012111,50.1334 36.8455,24.70476 77.06123,40.6028 114,45.06636 11.9478,1.44374 54.93758,0.5345 65.5,-1.38534 z M 281.33975,294.5651 c -7.92018,-2.477 -12.72694,-7.36846 -11.57388,-11.7778 0.6514,-2.49094 4.73394,-2.27966 8.55738,0.44287 2.29969,1.63753 4.93909,2.33229 9.93227,2.61443 6.01731,0.34 7.25515,0.0832 10.75094,-2.23018 4.59502,-3.04084 7.5484,-3.32963 8.84019,-0.86442 2.10103,4.00952 -3.06768,9.30843 -11.578,11.86966 -5.56863,1.67592 -9.44101,1.66176 -14.9289,-0.0546 z m 0.97906,-29.61046 c -4.48231,-1.37542 -13.80642,-10.21679 -15.65993,-14.84916 -1.95505,-4.88615 -0.69297,-10.38181 2.92923,-12.75517 3.49899,-2.29263 12.83011,-4.31839 19.91189,-4.32282 13.44259,-0.008 22.7,5.01258 22.7,12.3119 0,5.95999 -6.4066,14.13049 -14.26726,18.19539 -3.85381,1.99289 -11.48504,2.68684 -15.61393,1.41986 z m -82.55477,-19.95035 c -8.92936,-2.68867 -15.66584,-10.79698 -16.47717,-19.83262 -0.77417,-8.62181 1.01604,-13.60828 7.03991,-19.60902 4.29845,-4.28194 6.14527,-5.36913 10.92175,-6.42939 7.59127,-1.68508 14.77309,0.24332 20.07201,5.38956 5.76196,5.59595 7.13705,8.95265 7.15961,17.47718 0.0168,6.35969 -0.38865,8.19486 -2.66692,12.07018 -5.26964,8.96362 -16.68293,13.75433 -26.04919,10.93411 z m 14.78141,-28.45884 c 2.9997,-2.99969 3.13134,-6.41533 0.38197,-9.91059 -2.45599,-3.12229 -8.17355,-3.62708 -11.09868,-0.97987 -2.35441,2.13071 -2.45794,8.99227 -0.17375,11.51627 2.43711,2.69298 7.88471,2.37995 10.89046,-0.62581 z M 364.5,244.56943 c -5.56217,-2.03319 -12.91524,-10.19004 -14.3607,-15.93051 -1.48842,-5.91105 -1.44397,-7.24019 0.45844,-13.70742 3.095,-10.52147 15.02052,-18.46852 24.60812,-16.39861 17.19551,3.71242 25.65159,23.7006 15.78741,37.31771 -5.89601,8.13919 -17.56939,11.98086 -26.49327,8.71883 z m 9.42742,-28.20429 C 375.06734,214.91597 376,212.72666 376,211.5 c 0,-3.92345 -3.69283,-7.5 -7.74384,-7.5 -5.02512,0 -7.25616,2.33623 -7.25616,7.59828 0,3.2978 0.51335,4.64788 2.22251,5.84502 3.52744,2.47071 8.29073,1.99097 10.70491,-1.07816 z"
         id="path2" />
    </g>
  </g>
</svg>
