<?xml version="1.0" encoding="UTF-8" standalone="no"?>
<!-- Created with Inkscape (http://www.inkscape.org/) -->

<svg
   version="1.1"
   id="svg1"
   width="512"
   height="512"
   viewBox="0 0 512 512"
   xmlns="http://www.w3.org/2000/svg"
   xmlns:svg="http://www.w3.org/2000/svg">
  <defs
     id="defs1" />
  <g
     id="g8">
    <path
       style="fill:#d0d0d0"
       d="m 232,510.45644 c -25.41102,-2.2293 -47.57688,-8.33971 -70.94467,-19.55715 -17.30401,-8.3066 -27.81397,-15.6035 -40.13888,-27.86779 -20.24951,-20.14992 -31.431936,-40.61366 -37.465001,-68.56062 -2.361358,-10.93851 -2.360234,-35.00133 0.0021,-45.97088 7.822691,-36.3241 32.056904,-59.69703 56.515184,-54.50663 7.56352,1.60509 15.93763,6.55245 25.01043,14.77596 3.78077,3.42687 7.30139,6.23067 7.8236,6.23067 0.5222,0 2.65091,-3.2625 4.73047,-7.25 2.07957,-3.9875 5.09895,-9.18725 6.70976,-11.555 1.6108,-2.36775 2.71225,-4.84275 2.44767,-5.5 -0.26459,-0.65725 -2.66573,-2.06249 -5.33589,-3.12275 -10.25508,-4.07208 -31.1696,-14.64425 -38.08826,-19.2534 -19.84829,-13.22275 -33.50805,-29.86087 -39.97527,-48.69145 -2.60029,-7.57127 -2.79124,-9.22223 -2.79055,-24.1274 5.9e-4,-12.68732 0.38138,-17.24226 1.83919,-22 2.49932,-8.15687 11.35654,-26.09201 18.20974,-36.87322 6.33499,-9.96597 6.30607,-9.68264 2.36092,-23.12678 -2.16459,-7.3764 -2.35004,-9.83182 -2.37908,-31.5 -0.0255,-18.984968 0.3167,-25.133097 1.78086,-32 3.93679,-18.463456 14.42096,-44.4687151 19.18674,-47.5913714 3.89566,-2.55253467 10.15994,-1.1852498 21.6794,4.7318959 20.77646,10.6721355 42.2179,26.7728525 53.79905,40.3985605 7.27368,8.557785 5.84229,8.224348 19.52244,4.547684 19.28372,-5.182671 37.72114,-5.01888 58.72699,0.521709 l 9.89923,2.611063 L 316.034,43.732 C 330.87321,28.104052 348.59104,15.196957 368.27353,5.6765192 379.81159,0.09555183 382.46455,-0.49070589 386.27889,1.6976493 389.74557,3.6865394 391.7698,7.2934747 398.23387,23 c 6.87504,16.705125 9.81872,30.921663 10.45653,50.5 0.63408,19.46357 -0.45882,30.71981 -4.29901,44.27753 l -2.62783,9.27754 4.97083,8.22246 c 17.02217,28.15711 22.13244,43.85294 20.90963,64.22247 -1.02115,17.01029 -5.77208,29.75652 -16.46734,44.18013 -10.57899,14.26682 -25.781,25.49878 -50.48057,37.29744 -7.80786,3.72971 -15.20861,7.09087 -16.44611,7.46925 -3.20859,0.98105 -2.8333,2.84526 2.1978,10.91733 9.39095,15.06718 16.22223,33.03357 18.77775,49.38585 0.64248,4.11107 1.62795,7.25 2.27616,7.25 0.62872,0 3.60982,-1.33602 6.62466,-2.96892 16.38727,-8.87573 32.33312,-6.93523 43.61859,5.30806 9.16065,9.93813 13.61992,23.93051 13.5957,42.66086 -0.0348,26.89242 -9.05261,46.91604 -30.47443,67.6668 -22.69976,21.98866 -64.67781,38.37354 -107.19145,41.83898 -21.31355,1.73734 -41.49298,1.7212 -61.67478,-0.0493 z m 56,-20.93878 c 28.35581,-3.06858 51.911,-9.64378 71.77098,-20.03414 13.28968,-6.95292 14.81951,-7.89086 21.34826,-13.08862 16.02364,-12.75697 25.0567,-28.36408 27.87974,-48.16996 1.99392,-13.98895 -3.26224,-33.24123 -10.03096,-36.74148 -4.72966,-2.4458 -7.27826,-1.79388 -21.17225,5.41576 -23.8547,12.37829 -46.687,18.11976 -71.90903,18.08246 -33.56299,-0.0496 -74.13102,-11.34292 -103.38674,-28.78067 -8.50268,-5.06799 -19.17605,-13.28318 -41,-31.55727 -10.45,-8.75021 -20.88902,-16.82795 -23.19783,-17.95053 -6.03593,-2.93476 -10.87146,-1.30465 -18.23832,6.14832 -13.38654,13.54306 -19.46563,37.9299 -15.59965,62.57957 7.4412,47.44553 41.89065,81.89535 97.0358,97.03681 28.34736,7.78347 57.68573,10.17794 86.5,7.05975 z m 46.5,-120.89733 c 3.85,-0.81915 7.7875,-1.79197 8.75,-2.16183 2.20948,-0.84904 2.26821,-4.85897 0.21446,-14.64312 -4.8076,-22.90358 -12.53747,-38.73402 -27.91437,-57.16747 C 305.34878,282.41882 306.41548,280.1662 326,272.58008 c 55.87746,-21.6443 80,-45.02096 80,-77.52637 0,-13.99322 -3.48722,-23.01509 -20.49694,-53.02811 C 381.26142,134.5414 379,129.44348 379,127.36578 c 0,-1.75198 1.36133,-7.35125 3.02518,-12.44282 C 390.14647,90.070829 389.66372,66.999582 380.42084,38.25 378.43158,32.0625 376.2747,27 375.62779,27 c -2.02383,0 -16.54841,8.697928 -24.42749,14.628205 -10.69831,8.052193 -22.31645,19.376986 -30.89189,30.111894 -4.46338,5.58735 -8.34431,9.481791 -9.8173,9.851487 -1.72916,0.433992 -4.28323,-0.421663 -8.80249,-2.948977 -10.98201,-6.141493 -19.8881,-8.085126 -37.18862,-8.115915 -12.75989,-0.02271 -16.19362,0.318805 -22.99259,2.286798 -4.39592,1.272421 -10.0456,3.576722 -12.55483,5.120669 -5.6793,3.494507 -8.39221,4.378469 -10.94807,3.567269 -1.09753,-0.34834 -5.3869,-4.849909 -9.53194,-10.003487 C 194.8066,54.506893 175.59756,38.431826 157.6893,29 c -5.66431,-2.983244 -5.53661,-3.10029 -9.27375,8.5 -4.45022,13.813725 -6.48169,24.576925 -7.09608,37.596572 -0.72885,15.44542 0.621,25.600928 5.35331,40.275058 4.24151,13.15224 4.5639,11.86423 -8.64745,34.54884 -12.70983,21.82348 -16.0106,31.11631 -16.01975,45.10117 -0.0143,21.92442 11.07994,39.85434 33.99679,54.94356 11.37392,7.48896 28.92674,16.07762 45.99763,22.50681 14.2128,5.35279 17,7.35482 17,12.21099 0,2.63954 -1.11766,4.5501 -5.36339,9.16841 -9.93302,10.80463 -22.09406,30.92788 -21.44479,35.48533 0.21764,1.52776 4.40386,4.88636 14.24987,11.4327 7.66793,5.09819 14.41793,9.11284 15,8.92146 0.58207,-0.19139 1.28604,-3.17674 1.56438,-6.63411 0.45611,-5.66559 0.84725,-6.57097 3.96223,-9.17146 3.88012,-3.23927 7.62119,-3.66609 12.05172,-1.37498 4.48338,2.31845 5.43615,5.02536 5.97998,16.98965 l 0.5,11 7,2.33826 C 258.61903,364.88224 279.80788,370 282.15148,370 282.61816,370 283,364.20625 283,357.125 c 0,-16.01077 0.48087,-18.43216 4.50865,-22.70284 3.64279,-3.86249 8.39216,-4.55906 13.40616,-1.96621 5.0571,2.61512 6.08519,6.60164 6.08519,23.59585 v 15.24954 l 10.25,-0.59583 c 5.6375,-0.3277 13.4,-1.26603 17.25,-2.08518 z M 241.9236,251.72749 c -6.58754,-4.43933 -7.66302,-10.88645 -2.39215,-14.34005 2.38688,-1.56395 2.67631,-1.51547 6.41334,1.0743 4.57792,3.1725 6.60111,3.03325 9.34323,-0.64309 l 1.99997,-2.68135 -3.57566,-3.37227 c -4.08122,-3.8491 -5.22811,-7.20216 -4.24885,-12.42207 1.32855,-7.08175 10.09582,-12.39862 17.99972,-10.91584 4.95412,0.9294 11.29732,6.77941 12.12294,11.18036 0.81452,4.34174 -0.95312,8.68209 -4.88233,11.98829 -2.63267,2.21525 -2.91245,2.9088 -2.10248,5.21194 0.51524,1.46507 2.10255,3.06751 3.53893,3.57266 2.12738,0.74816 3.24079,0.43077 6.07658,-1.73219 C 286.3726,235.47843 288.3337,235.3337 291,238 c 3.97439,3.97439 1.4857,11.14611 -5.03864,14.51998 -5.67201,2.93311 -14.83964,1.4178 -20.27241,-3.35081 -1.22861,-1.07841 -2.03262,-1.2409 -2.5,-0.50525 -0.37892,0.59642 -2.26395,2.03934 -4.18895,3.2065 -4.87521,2.95592 -12.57364,2.89148 -17.0764,-0.14293 z M 195.5,221.9882 c -4.38086,-0.9359 -6.84102,-2.47364 -10.34841,-6.46833 -3.78036,-4.30559 -4.52863,-6.9597 -3.9453,-13.99392 1.48638,-17.92379 25.62295,-22.54196 33.82161,-6.47126 2.35296,4.61218 2.60772,12.81548 0.52318,16.84653 -1.41158,2.7297 -7.90511,9.07491 -9.33588,9.12264 -0.39336,0.0131 -2.2902,0.37966 -4.2152,0.81454 -1.925,0.43488 -4.85,0.50229 -6.5,0.1498 z m 125.72265,-1.64912 c -9.4322,-4.64905 -12.5171,-15.96109 -7.19677,-26.38981 2.19844,-4.3093 5.24989,-6.49578 11.33795,-8.12409 11.96293,-3.1996 24.07313,8.10683 22.18306,20.71073 -0.75536,5.0371 -5.60051,11.40622 -10.67208,14.02883 -3.67535,1.90059 -11.56922,1.78679 -15.65216,-0.22566 z"
       id="path14" />
    <path
       style="fill:#afafaf"
       d="m 242,510.98008 c -4.125,-0.48431 -11.87138,-1.37373 -17.21417,-1.97649 -29.2834,-3.3037 -66.60494,-17.39596 -88.07809,-33.25745 C 98.655959,447.63856 78.404916,403.4399 82.987642,358.5 c 1.80001,-17.65157 8.214085,-34.38877 17.715538,-46.22781 7.68755,-9.57886 13.87798,-13.96409 23.72493,-16.80648 12.77455,-3.68745 23.81225,0.0279 38.86926,13.08378 5.2252,4.53073 9.37292,7.40727 10.21482,7.0842 0.77961,-0.29916 3.0676,-3.82662 5.08444,-7.83881 2.01683,-4.01218 5.02549,-9.27455 6.68591,-11.69414 3.74399,-5.45583 3.25294,-6.38825 -5.28341,-10.0324 C 166.47221,280.29372 150.21354,271.95854 142.5,266.84403 131.45443,259.52018 117.64139,245.43079 111.77077,235.5 c -8.1244,-13.74331 -10.1025,-20.7052 -10.56057,-37.16761 -0.33252,-11.95033 -0.0677,-15.45902 1.69244,-22.41923 2.37425,-9.38891 10.38901,-26.29691 18.5516,-39.13661 3.05017,-4.7979 5.54576,-9.37999 5.54576,-10.18242 0,-0.80243 -1.34971,-6.69368 -2.99936,-13.09166 C 116.29487,83.616524 120.14335,48.270558 134.67118,15.5 139.34369,4.9601829 142.56929,1 146.48158,1 c 3.18838,0 23.87813,10.499266 35.01842,17.770523 13.03337,8.506869 23.22477,17.03617 33.41443,27.964938 l 8.95954,9.60943 7.3562,-2.137434 c 21.3239,-6.195918 40.2405,-6.545087 61.71999,-1.139247 l 12.21662,3.074612 12.16661,-12.41352 C 330.43396,30.362869 338.80085,23.735289 354.5,14.288892 374.80459,2.0713415 381.94301,-0.57781403 386.50512,2.4113974 c 4.24259,2.7798514 13.05241,23.7494366 17.64636,42.0027756 2.66891,10.604496 3.10595,14.353328 3.56566,30.585827 0.57453,20.287157 -0.20725,27.98534 -4.33926,42.72837 l -2.58643,9.22837 6.17498,10.27163 c 11.24316,18.70219 17.0312,32.34654 18.99246,44.77163 5.20302,32.9625 -9.38032,63.40642 -40.30318,84.13618 -8.67739,5.81706 -27.94465,15.88743 -39.40571,20.59608 -3.37542,1.38675 -5.25,2.75298 -5.25,3.8263 0,0.91817 1.99631,4.88061 4.43625,8.80542 9.61778,15.47085 16.19385,32.77752 18.80587,49.49256 0.6748,4.31824 1.70212,7.56857 2.48742,7.86992 0.73581,0.28235 4.58518,-1.12127 8.55415,-3.11917 24.90858,-12.53847 45.28682,-1.70366 53.40136,28.39271 2.63848,9.78597 2.39482,29.9261 -0.49288,40.73922 -9.37571,35.10785 -38.14148,61.26749 -84.29057,76.654 -15.27453,5.09266 -34.2229,9.2172 -49.29765,10.73075 -14.18853,1.42457 -43.67489,1.90445 -52.60395,0.85611 z m 44.68268,-20.51601 c 55.69819,-5.84914 99.80314,-27.75734 115.10773,-57.17735 9.74751,-18.73765 10.89397,-39.80377 3.05243,-56.08856 -4.75186,-9.86835 -10.47528,-10.05161 -27.84284,-0.89152 -23.22317,12.2485 -45.0748,17.69792 -70.92489,17.68746 -30.52567,-0.0123 -64.19317,-8.39899 -93.55273,-23.3042 -13.52772,-6.86772 -27.14487,-16.77707 -51.02238,-37.12953 -18.8904,-16.10161 -23.36377,-19.03067 -28.7371,-18.81639 -10.91707,0.43534 -23.06753,16.09874 -27.94871,36.02925 -4.21745,17.22035 -2.40451,38.97584 4.80929,57.71217 16.17009,41.99846 56.43873,69.96466 115.20519,80.00898 21.06379,3.6002 40.44921,4.21752 61.85401,1.96969 z m 47.5018,-121.08166 c 12.50762,-2.25555 12.46091,-2.19964 10.8617,-13.00102 -3.39239,-22.91281 -12.5688,-42.65983 -28.91635,-62.226 -6.71674,-8.03918 -7.54157,-11.0734 -3.87983,-14.27237 1.2375,-1.0811 10.10161,-5.10602 19.69801,-8.94427 51.31124,-20.52281 73.30271,-42.12015 74.77894,-73.43875 0.43241,-9.17374 0.21533,-10.78495 -2.62723,-19.5 -2.00481,-6.14658 -6.8052,-16.20588 -13.59915,-28.49728 -11.63031,-21.04117 -11.91492,-22.12266 -8.44647,-32.09617 5.85269,-16.8294 7.79954,-32.347926 6.01003,-47.90655 C 386.04702,51.962617 378.61952,26 375.61944,26 c -1.87094,0 -15.94907,8.320395 -23.85419,14.098204 -9.75269,7.128181 -25.63338,22.63711 -32.91267,32.142188 -7.25814,9.477462 -8.88391,10.061575 -16.32151,5.864053 C 288.89512,70.408793 267.24886,67.283826 249,70.376422 c -7.21302,1.222374 -11.72427,2.721626 -18.7395,6.227804 -6.48126,3.239301 -9.94961,4.439635 -11.61819,4.020848 -1.3923,-0.349446 -5.31567,-4.275037 -9.46132,-9.466675 -13.42268,-16.809358 -31.83774,-32.279766 -50.89709,-42.758427 -3.86299,-2.123838 -5.50787,-2.576004 -6.34082,-1.743053 -1.77112,1.771121 -6.7022,17.346652 -8.8874,28.072169 -4.44503,21.817286 -3.44711,42.656127 2.93245,61.236332 C 147.64466,120.79 149,125.4827 149,126.39365 c 0,2.25146 -5.3741,12.71105 -13.82158,26.90091 -3.86184,6.48701 -8.46112,15.71201 -10.22064,20.5 -8.3798,22.80313 -3.30581,45.69873 14.03699,63.33971 12.79688,13.0169 30.65134,23.39482 60.81547,35.34905 21.74671,8.61835 22.84385,10.47157 12.71923,21.48462 C 203.28862,304.01968 191,324.00022 191,328.97355 c 0,1.32134 2.06774,3.55277 5.91994,6.3886 C 204.97803,341.29417 220.45633,351 221.85831,351 222.56317,351 223,349.06791 223,345.95034 223,337.25901 227.20167,332 234.14558,332 c 2.79897,0 4.45023,0.74966 6.7775,3.07692 3.03494,3.03494 3.07692,3.21653 3.07692,13.30887 0,6.65613 0.43685,10.79729 1.25,11.84964 2.02823,2.62483 35.52958,11.63686 37.8736,10.18818 0.48202,-0.2979 0.8764,-6.82954 0.8764,-14.51475 0,-15.11218 0.98044,-19.3809 5.11687,-22.27817 2.71754,-1.90344 9.69725,-2.10757 11.92902,-0.34889 4.50234,3.54794 4.95411,5.53356 4.95411,21.77404 0,8.58595 0.3375,15.96069 0.75,16.38829 1.0124,1.04948 16.73362,-0.13198 27.43448,-2.06172 z M 242.31382,251.04977 c -5.39459,-3.28931 -7.04815,-9.17025 -3.48508,-12.39478 2.48342,-2.24747 3.86743,-2.08843 7.35363,0.84501 3.58539,3.0169 4.7911,3.09531 8.05983,0.52412 3.69019,-2.9027 4.10475,-5.75068 1.12162,-7.70531 C 252.22861,230.26454 250,225.97719 250,222 c 0,-7.89791 7.33197,-13.60691 16.36092,-12.73934 4.27947,0.4112 5.56343,1.07642 8.82366,4.57156 2.714,2.90956 3.81542,4.98187 3.81542,7.17872 0,3.87384 -2.20605,8.21938 -5.48002,10.79468 -3.17034,2.49379 -3.18829,4.61698 -0.0654,7.73983 3.11785,3.11786 4.84823,3.08813 9.10203,-0.1564 4.236,-3.23096 8.07765,-2.69458 9.07184,1.26661 0.96575,3.84783 -0.68857,7.46575 -4.64162,10.15101 -4.99684,3.39429 -14.15524,2.82771 -19.43926,-1.20262 l -3.69256,-2.81644 -2.17749,1.98123 c -3.53825,3.21934 -6.25824,4.23138 -11.36175,4.22742 -3.00278,-0.002 -6.01523,-0.73511 -8.00192,-1.94649 z M 193.00714,220.43079 C 185.35706,217.06122 182,211.80593 182,203.1997 c 0,-4.91533 0.48113,-6.56381 2.88378,-9.88057 3.88155,-5.35832 8.93839,-7.66446 15.59583,-7.11238 9.45838,0.78436 15.52039,7.74423 15.52039,17.81915 0,5.44085 -0.97022,8.06192 -4.37496,11.81911 -4.6038,5.08037 -12.87158,7.1168 -18.6179,4.58578 z m 126.84979,-1.8307 c -5.11597,-3.54849 -8.23204,-10.34445 -7.62757,-16.63526 1.40545,-14.62687 18.45095,-21.14894 29.1438,-11.15121 7.80347,7.29618 7.47669,18.29503 -0.77708,26.155 -3.29655,3.13926 -4.28115,3.50137 -10.36925,3.81348 -5.88545,0.30173 -7.1825,0.0288 -10.3699,-2.18201 z"
       id="path13" />
    <path
       style="fill:#8f8f8f"
       d="M 230.25778,509.48002 C 197.56049,505.3547 164.46618,493.77036 141.05533,478.2556 130.57501,471.31011 112.46517,453.38279 105.18094,442.74275 97.557653,431.60746 90.513403,416.18276 86.770252,402.42911 83.641969,390.9347 83.523477,389.80763 83.518588,371.5 c -0.004,-14.83787 0.368691,-20.35516 1.701149,-25.18626 8.619169,-31.25058 25.125383,-49.77979 45.525773,-51.10537 12.217,-0.79385 20.89562,3.07583 33.88815,15.11028 3.37351,3.12474 7.03027,5.68135 8.12613,5.68135 1.45907,0 3.00469,-1.94089 5.77349,-7.25 2.07957,-3.9875 5.09006,-9.17432 6.68998,-11.52626 4.41108,-6.48444 3.6946,-7.8878 -6.22326,-12.18943 -27.08774,-11.74864 -39.37736,-19.34255 -52.58191,-32.49099 -16.09362,-16.02525 -24.19212,-32.76127 -25.15944,-51.99345 -0.53196,-10.57653 0.69213,-21.31903 3.33694,-29.2847 2.27673,-6.85708 12.28291,-26.52096 17.89898,-35.1746 2.64473,-4.07519 4.81943,-8.57519 4.83266,-10 C 127.34047,124.66576 126.05774,119 124.47672,113.5 121.71278,103.88485 121.6016,102.67258 121.58774,82 121.57537,63.530286 121.88377,59.075898 123.77586,50.395942 129.34111,24.865453 140.33482,1 146.53029,1 c 2.29819,0 25.04857,11.946993 34.52786,18.131745 12.86534,8.393981 27.76884,20.879078 34.44185,28.852948 3.3,3.943315 6.71305,7.560919 7.58454,8.03912 1.00576,0.551866 3.82332,0.172673 7.71356,-1.038106 18.97045,-5.904269 42.6677,-6.552413 61.2019,-1.673933 5.225,1.375298 10.29838,2.820093 11.27419,3.210655 1.37906,0.551966 4.27424,-1.90841 13,-11.047645 C 328.03338,33.158376 337.79284,25.13133 350.86762,17.022097 360.93024,10.781062 380.42962,1 382.80903,1 c 3.82222,0 7.57413,6.0030635 14.36172,22.978759 11.6246,29.073036 14.0459,64.783082 6.22351,91.786351 -1.31684,4.54581 -2.39426,9.28245 -2.39426,10.52587 0,1.24341 2.09893,5.62411 4.66428,9.73488 7.36056,11.79471 17.0104,32.72016 18.75581,40.67155 3.63085,16.54063 1.44757,37.41269 -5.4183,51.79883 -11.10609,23.27073 -33.00463,40.65593 -72.75179,57.75747 -3.68684,1.5863 -6.25,3.30321 -6.25,4.18652 0,0.82357 2.07891,4.71108 4.61981,8.6389 9.57188,14.79661 16.24239,32.35711 19.4396,51.17583 0.63119,3.71523 1.59501,7.03146 2.14181,7.3694 0.5468,0.33794 5.00473,-1.29147 9.90651,-3.62092 15.83891,-7.52704 27.74817,-6.55755 38.33798,3.12093 11.05458,10.10327 16.22788,26.50333 15.2598,48.37563 -1.09452,24.72901 -9.73928,42.73431 -29.83928,62.14925 -19.49569,18.83123 -52.4761,33.09893 -93.61082,40.49712 -15.39159,2.76821 -58.6153,3.52673 -75.99763,1.33365 z M 288,490.93615 c 33.05917,-4.14759 56.83399,-11.37607 79.72103,-24.23833 8.79555,-4.943 12.6293,-7.91064 20.83465,-16.12774 10.82334,-10.83883 15.44774,-18.19009 19.24108,-30.58686 5.3034,-17.3317 2.76782,-38.10064 -5.74392,-47.04833 -5.69821,-5.99007 -8.90796,-5.61117 -25.33067,2.9902 C 352.11905,388.81093 332.5697,393.57206 305,393.3926 c -17.21199,-0.11204 -24.78982,-1.01953 -41.5,-4.96986 -21.8983,-5.17681 -34.11721,-9.57253 -51.5086,-18.5301 -14.75958,-7.60203 -23.57499,-14.20501 -60.38195,-45.22767 -13.22331,-11.14524 -17.25129,-12.48242 -25.37669,-8.4244 -13.40806,6.69631 -24.1557,30.87803 -24.21112,54.47397 -0.026,11.0674 2.68292,25.75388 6.84656,37.11891 16.31009,44.51984 61.0584,73.93752 125.6318,82.59073 12.3724,1.65797 42.09819,1.94243 53.5,0.51197 z m 43,-120.56061 c 10.36603,-1.74493 14.67046,-3.07439 15.30461,-4.72697 0.26481,-0.69007 -0.16102,-5.26695 -0.94629,-10.17083 -3.70627,-23.14514 -13.69898,-44.44998 -28.73568,-61.26554 -5.29685,-5.92347 -6.1355,-7.58327 -5.66521,-11.2122 0.36983,-2.8537 3.60656,-4.69498 18.54257,-10.54834 54.23681,-21.25517 77.94616,-44.84841 77.8328,-77.45166 -0.0445,-12.80279 -2.91828,-21.27801 -13.90222,-41 -15.38702,-27.62786 -14.75869,-25.5762 -11.01296,-35.96024 1.32969,-3.68621 3.41409,-11.35629 4.63199,-17.04463 3.87569,-18.10185 1.83695,-41.520227 -5.5355,-63.584433 -1.45379,-4.350883 -3.30146,-8.926085 -4.10594,-10.167115 l -1.46269,-2.256418 -4.22274,2.131793 C 353.3659,36.386156 333.40166,53.187167 318.09461,72.25 c -7.25057,9.029592 -9.11752,9.563332 -16.837,4.813492 -5.57403,-3.429735 -16.31711,-6.515349 -28.14695,-8.084331 -14.38534,-1.907914 -32.06884,1.15239 -43.89508,7.596475 -6.93922,3.781158 -11.4993,4.340922 -13.64013,1.674364 C 195.34419,53.050473 183.23747,42.153272 161.91773,29.952919 151.00162,23.706109 151.7044,23.33326 147.06319,37.833686 143.5647,48.763921 140.50765,63.891947 139.55266,75 c -0.8359,9.722823 1.63346,27.43531 5.51352,39.54806 1.6136,5.03734 2.93382,10.36258 2.93382,11.83388 0,3.19221 -3.21012,9.67319 -13.43196,27.11806 -12.4641,21.27159 -16.34449,36.6033 -13.16399,52.01198 4.26838,20.67926 16.48175,35.52741 41.17895,50.06249 11.47885,6.75566 20.69161,11.03253 38.77604,18.00112 18.50958,7.13242 20.21649,9.66885 12.25941,18.21725 -11.45201,12.30304 -25.12524,35.58746 -22.94024,39.0654 0.56729,0.90297 6.01287,5.01676 12.10129,9.14176 19.66802,13.32538 21.2205,13.64958 21.2205,4.43138 0,-5.07098 0.33835,-5.96973 3.4,-9.03138 3.70364,-3.70364 6.20435,-4.17308 10.47249,-1.96594 5.03864,2.60558 5.59465,4.09953 6.12751,16.46401 l 0.5,11.60193 8.19691,2.68458 c 4.5083,1.47652 13.18945,3.7229 19.29145,4.99196 9.71679,2.02084 11.21167,2.1221 12.03777,0.81542 0.51879,-0.82058 0.95014,-8.17446 0.95856,-16.34196 L 285,338.8 l 3.52792,-3.52792 c 3.2122,-3.2122 3.90564,-3.47727 7.74844,-2.96184 2.84743,0.38192 4.95303,1.41769 6.47208,3.18369 2.13091,2.47733 2.25156,3.46816 2.25156,18.49041 0,19.5568 -0.0271,19.50861 10.40714,18.50455 3.90107,-0.37539 10.91786,-1.3264 15.59286,-2.11335 z M 242.9236,250.72749 c -1.8547,-1.24987 -4.03198,-3.44802 -4.8384,-4.88476 -1.31104,-2.33578 -1.28486,-2.88907 0.24734,-5.2275 2.05095,-3.13014 4.50174,-3.32003 7.94033,-0.61523 3.54144,2.78569 7.15063,2.54836 9.65455,-0.63486 2.73684,-3.47933 2.61634,-5.77883 -0.40661,-7.75955 -8.41358,-5.51279 -6.27948,-17.24092 3.8405,-21.10577 3.62016,-1.38256 5.05774,-1.46407 8.66934,-0.49157 4.91769,1.3242 9.47635,5.63247 10.25174,9.68864 0.72366,3.78561 -1.79539,9.56694 -5.29633,12.15529 -3.19982,2.36573 -3.12798,4.04812 0.33727,7.89782 2.5164,2.79559 6.76812,2.91142 9.17667,0.25 4.5767,-5.0572 11.75135,-0.10175 8.42722,5.8206 -4.40058,7.84019 -15.27495,9.44917 -22.8298,3.37793 -3.44714,-2.7702 -4.05326,-2.95666 -5.18361,-1.59468 -2.20316,2.65464 -8.66863,5.39615 -12.72609,5.39615 -2.39159,0 -5.19194,-0.87606 -7.26412,-2.27251 z m -52.31371,-32.0925 c -13.246,-8.0181 -10.5817,-27.6035 4.30017,-31.61077 14.34271,-3.86209 26.25307,12.48986 18.60407,25.54187 -4.62951,7.89967 -15.23669,10.71023 -22.90424,6.0689 z m 131.84053,0.95841 C 315.45688,216.54721 311.31329,208.02642 313.0522,200.26709 315.09618,191.14644 320.27918,187 329.6359,187 340.06179,187 346,193.26008 346,204.25109 c 0,4.41849 -0.54531,6.20161 -2.88378,9.42978 -4.8422,6.68446 -13.32302,9.11085 -20.6658,5.91253 z"
       id="path12" />
    <path
       style="fill:#6f6f6f"
       d="M 238.46731,510.01664 C 190.1335,504.90344 150.18178,488.70487 124.30495,463.72908 103.73647,443.8768 92.941254,425.23007 86.277722,398.04408 84.03778,388.90554 83.696208,385.36718 83.715307,371.5 c 0.03213,-23.32808 4.086501,-38.5605 14.346561,-53.90057 6.237382,-9.32566 12.436432,-15.00178 20.510042,-18.77987 15.90638,-7.4435 27.61236,-4.22002 47.25946,13.01386 7.6526,6.71264 7.9832,6.60842 13.93839,-4.39424 2.34836,-4.33878 5.42589,-9.557 6.83894,-11.59603 3.48127,-5.02347 2.61628,-6.97195 -4.36904,-9.8417 C 151.44692,273.35101 130.74279,259.51006 118.66339,243.5 111.25536,233.68138 108.47143,228.52092 105.01176,218.19449 102.28093,210.04351 102,207.99775 102,196.26246 c 0,-9.66123 0.50612,-14.92144 1.9963,-20.74799 2.20997,-8.64091 11.09547,-27.09146 18.92427,-39.29587 2.79369,-4.35511 5.07943,-8.87913 5.07943,-10.05338 0,-1.17425 -1.09193,-5.90302 -2.42651,-10.50837 -6.42114,-22.15801 -5.70495,-51.734904 1.88676,-77.918605 C 130.63192,26.799168 138.91737,7.381202 141.68967,4.3898441 142.97709,3.0006997 145.04138,2 146.61957,2 c 1.49329,0 7.92727,2.7441333 14.29775,6.0980739 C 184.2297,20.371625 205.564,36.410869 216.5,49.885443 c 2.75,3.388358 5.91865,6.400507 7.04143,6.693665 1.12279,0.293158 5.84779,-0.562162 10.5,-1.900712 19.87574,-5.718712 37.88844,-5.917427 58.73314,-0.647941 6.44899,1.630288 12.21761,2.965372 12.81916,2.966853 0.60156,0.0015 4.20135,-3.679821 7.99954,-8.18067 12.93099,-15.323182 32.31209,-29.743892 55.77996,-41.5036624 12.50022,-6.2638721 13.13593,-6.46764391 15.57938,-4.9938466 4.51603,2.7239055 13.44754,23.423697 18.20011,42.180871 2.67197,10.545537 3.10399,14.242297 3.56442,30.5 0.5747,20.29298 -0.20701,27.98461 -4.34436,42.74635 l -2.59153,9.24634 6.05958,10.25366 c 7.91151,13.38739 15.65905,29.73155 17.65915,37.25365 4.04978,15.23063 2.733,35.87243 -3.18625,49.94756 -10.1305,24.08885 -30.24216,41.49522 -67.10205,58.07591 -6.99142,3.14495 -13.00755,6.18544 -13.36916,6.75663 -0.9091,1.43599 -0.12922,3.17566 4.95903,11.062 9.04678,14.02172 15.45112,30.87268 18.54732,48.80134 0.7675,4.44428 1.98415,8.44434 2.70365,8.88902 0.81098,0.50121 4.18519,-0.63632 8.87783,-2.99293 14.50133,-7.2825 25.16657,-7.40583 35.86942,-0.41479 13.52313,8.83323 21.30279,32.6906 18.35704,56.29433 -2.22776,17.85068 -7.98528,31.47778 -19.14111,45.30386 -13.79319,17.09472 -33.30428,30.11864 -60.0157,40.06131 -11.53218,4.29257 -34.73096,10.09127 -49,12.24791 -12.21504,1.84619 -50.51828,2.75548 -62.53269,1.48449 z M 286,491.47689 c 24.92661,-2.77675 43.20781,-7.06653 61.48877,-14.42866 8.86108,-3.56855 8.91029,-3.59345 23.01123,-11.64847 19.48072,-11.12817 33.59418,-28.7182 38.53152,-48.023 3.60141,-14.08139 1.65,-32.5846 -4.45669,-42.25822 -5.55469,-8.7992 -10.72358,-8.74908 -27.75905,0.26919 C 353.35484,387.80752 332.66091,393 306.62439,393 288.83201,393 279.1792,391.83345 261.5,387.54667 243.12103,383.09022 228.04752,377.63088 213.147,370.03414 199.42638,363.03895 187.12449,354.10347 162.5,333.24669 143.49752,317.15172 138.51707,313.8 133.60337,313.8 c -10.76499,0 -22.68695,13.52144 -28.39101,32.2 -5.778458,18.9222 -4.80941,38.68034 2.99179,61 7.54353,21.58249 23.71553,41.82243 44.29585,55.43816 25.47581,16.85453 53.81827,25.6341 96.5,29.89256 8.86196,0.88418 24.67348,0.51931 37,-0.85383 z m 37.5,-119.50821 c 10.98859,-1.23916 20.51137,-3.56316 22.4285,-5.47359 1.21302,-1.20879 1.23969,-2.65685 0.17683,-9.59993 -3.61223,-23.59662 -13.33273,-44.5578 -29.29471,-63.17084 -9.27724,-10.81805 -8.18959,-12.78089 11.18938,-20.1931 34.55104,-13.21534 58.41547,-28.85771 69.52804,-45.5734 7.2267,-10.8705 9.78839,-19.279 9.88845,-32.45782 0.10699,-14.092 -2.28283,-21.42621 -13.52541,-41.50881 C 382.56722,133.76341 381,130.48466 381,127.02199 c 0,-1.67448 1.52739,-8.10194 3.3942,-14.28325 5.99127,-19.838039 6.69296,-32.549793 2.99372,-54.234037 -1.70626,-10.001737 -7.53207,-28.985484 -9.831,-32.034887 -1.45429,-1.929023 -1.63593,-1.889405 -8.77098,1.91304 -4.00727,2.135571 -10.88594,6.39343 -15.28594,9.461908 -9.60878,6.700985 -28.69563,25.041827 -35.84129,34.440441 -6.00865,7.903126 -8.3457,8.904752 -13.51588,5.792732 C 292.88454,71.301393 282.16442,68.765538 264.5,68.700392 248.33192,68.640765 238.95801,70.670363 228.21558,76.556535 219.52012,81.321096 217.89675,81.126094 213.17644,74.75 204.55688,63.106881 190.41118,48.984511 178.78232,40.412599 170.76786,34.504953 154.66499,25 152.67097,25 c -1.58287,0 -3.7191,4.896643 -7.52659,17.252401 -7.71841,25.047102 -7.53833,54.286083 0.46571,75.616659 1.31445,3.50298 2.38991,7.22831 2.38991,8.27852 0,2.4986 -4.68256,11.77352 -12.6456,25.04759 -7.79866,13.00008 -10.96531,19.99296 -13.456,29.71479 -2.47943,9.67789 -2.42217,19.73231 0.1658,29.11014 7.61412,27.5907 33.10086,47.06343 88.22733,67.40865 5.43356,2.00534 8.22572,5.36618 7.18427,8.64751 -0.37953,1.1958 -3.05538,4.74705 -5.94633,7.89168 C 201.97198,304.3641 190,324.02155 190,329.31836 c 0,1.88937 2.09723,3.81197 10.25,9.39651 12.91976,8.84987 21.39177,13.62456 22.71918,12.80418 0.56695,-0.3504 1.03082,-2.9854 1.03082,-5.85556 0,-7.82523 3.78437,-12.57564 10.06291,-12.63169 2.69118,-0.024 4.27806,0.71465 6.48586,3.0191 2.80394,2.92669 2.93817,3.49544 3.29664,13.96847 0.22331,6.52441 0.83259,11.29053 1.51413,11.84443 3.67444,2.98627 36.35551,10.61757 38.35682,8.95664 0.938,-0.77847 1.28364,-5.01145 1.28364,-15.72038 0,-11.93764 0.30527,-15.11351 1.6463,-17.12755 2.63542,-3.958 4.46263,-4.97251 8.95594,-4.97251 3.48461,0 4.6711,0.53614 6.80887,3.07673 2.54497,3.02452 2.58889,3.34349 2.58889,18.8 0,10.89588 0.36843,16.0917 1.2,16.92327 1.45951,1.45951 5.50358,1.49894 17.3,0.16868 z M 242.97251,250.29589 c -3.8137,-2.62848 -4.9845,-4.53822 -4.71761,-7.69504 0.28638,-3.38741 3.0464,-5.60184 5.10483,-4.09574 6.83601,5.00176 6.54768,4.90947 10.07819,3.22589 2.0345,-0.97019 3.71726,-2.73738 4.35869,-4.5774 0.96138,-2.7578 0.73175,-3.31648 -2.87591,-6.99683 -3.27093,-3.33685 -3.9207,-4.67808 -3.9207,-8.09293 0,-3.26633 0.69152,-4.84779 3.42316,-7.82853 3.29595,-3.5965 3.67042,-3.73531 10.07684,-3.73531 6.40642,0 6.78089,0.13881 10.07684,3.73531 2.43917,2.6616 3.42209,4.67376 3.41942,7 -0.004,3.78244 -2.97388,9.14716 -5.94275,10.73605 -2.88891,1.5461 -2.55231,4.68368 0.86957,8.10556 3.57858,3.57859 6.02036,3.683 9.89455,0.42308 3.62518,-3.05039 5.60952,-3.15594 7.53914,-0.40102 1.11752,1.59548 1.22984,2.78841 0.46826,4.9731 -1.49899,4.3 -6.49023,6.92792 -13.15827,6.92792 -4.86566,0 -6.07138,-0.41636 -9.22561,-3.18581 -3.01202,-2.64459 -3.90983,-2.98192 -5.2848,-1.98559 -6.07614,4.40293 -7.94451,5.16414 -12.68384,5.16766 -3.10792,0.002 -5.97154,-0.64692 -7.5,-1.70037 z M 192.00807,218.80661 C 185.46862,215.44859 183,211.19741 183,203.29391 c 0,-6.2108 0.13798,-6.55637 4.43295,-11.10212 L 191.8659,187.5 h 7.00138 c 6.41156,0 7.26718,0.25273 10.15633,3 4.52246,4.30036 5.97639,7.65821 5.97639,13.80246 0,12.30298 -12.24076,20.0249 -22.99193,14.50415 z m 127.11166,-2.31741 c -4.99645,-4.51399 -6.49553,-8.22642 -5.88548,-14.57527 0.79552,-8.27919 6.32036,-13.87646 14.4698,-14.65952 9.62748,-0.92507 17.15563,5.22984 18.07291,14.77617 0.59795,6.22293 -0.93134,9.97273 -5.89669,14.45862 C 336.27729,219.74428 335.5212,220 329.5,220 c -6.0212,0 -6.77729,-0.25572 -10.38027,-3.5108 z"
       id="path11" />
    <path
       style="fill:#4e4e4e"
       d="M 234,508.99561 C 165.43037,500.07201 118.85564,471.78104 96.391824,425.40802 88.223312,408.5454 84.953708,395.1814 84.303778,376 83.692109,357.94783 85.013557,348.38006 90.006132,334.71283 95.786126,318.89004 105.80127,306.09888 117.28781,299.86917 123.10176,296.71599 124.10901,296.5 133,296.5 c 8.46453,0 10.11372,0.31098 15.13058,2.8531 3.09682,1.5692 9.51911,6.21172 14.27177,10.3167 6.16264,5.32282 9.2803,7.37276 10.86941,7.1469 1.65222,-0.23483 3.39236,-2.51403 6.73145,-8.8167 2.47677,-4.675 5.51427,-9.91947 6.75,-11.65437 2.50528,-3.51728 2.88175,-6.58361 0.99679,-8.11878 -0.6875,-0.55992 -3.95,-2.14955 -7.25,-3.53252 -30.44886,-12.7605 -50.38022,-26.34565 -62.35833,-42.50323 -6.55033,-8.83591 -12.75976,-21.86535 -14.62643,-30.6911 -2.55824,-12.09558 -1.67433,-28.95701 2.11291,-40.30588 2.29303,-6.87127 11.57897,-25.06875 17.51174,-34.31743 2.84009,-4.42744 5.16785,-9.23564 5.18332,-10.70662 0.0155,-1.46854 -1.26547,-7.17007 -2.84649,-12.67007 -2.76394,-9.61515 -2.87512,-10.82742 -2.88898,-31.5 -0.0124,-18.494979 0.29468,-22.918337 2.19703,-31.647763 4.33487,-19.891735 14.41245,-44.483028 19.36945,-47.2653244 2.31767,-1.3008702 3.09506,-1.1587735 9.14234,1.6710924 9.9729,4.6668821 27.16574,14.762873 36.70344,21.553012 4.675,3.328256 14.2562,11.860808 21.29155,18.961225 9.65996,9.749297 13.2098,12.742176 14.5,12.224961 0.93965,-0.376688 5.98345,-1.820138 11.20845,-3.207666 18.32632,-4.866658 42.22325,-4.21065 61.14523,1.678532 7.67178,2.387726 8.34409,2.065369 17.42516,-8.354955 12.98505,-14.900051 31.52571,-28.611948 53.81347,-39.7982089 13.27424,-6.6623595 15.40787,-6.83832614 18.64939,-1.5380677 3.53315,5.7771086 10.84269,24.1181186 13.46211,33.7789686 6.92895,25.555076 7.26357,53.738164 0.8989,75.709304 -1.31684,4.54581 -2.39426,9.23983 -2.39426,10.43114 0,1.19132 2.67759,6.69702 5.9502,12.23489 8.55318,14.47358 15.61755,29.95936 17.45648,38.26627 2.02072,9.12806 2.06638,27.67079 0.0888,36.05832 -6.51443,27.62979 -26.77421,48.7459 -63.08175,65.74807 -20.201,9.45977 -20.85708,9.82361 -21.23056,11.77374 -0.18724,0.97764 2.00775,5.43814 4.87775,9.91222 7.4653,11.63774 12.60037,23.36147 15.98908,36.50421 1.6225,6.29265 2.9525,12.19828 2.95557,13.12361 0.0116,3.50268 2.14274,9.18242 3.44539,9.18242 0.74632,0 5.21446,-1.85096 9.92918,-4.11324 20.3152,-9.74792 37.15288,-4.25213 46.3874,15.14076 6.6872,14.04343 8.14443,37.98148 3.32851,54.67783 -12.63943,43.81967 -59.1975,74.05248 -129.09606,83.82943 -18.00707,2.51871 -45.63423,2.72079 -63,0.46083 z m 56.6768,-17.53677 c 22.47249,-2.77 40.25252,-7.17209 57.22473,-14.16804 9.4592,-3.89909 8.30718,-3.33004 21.09847,-10.42172 12.55938,-6.96311 28.74723,-22.75396 34.25423,-33.41415 6.56819,-12.71439 9.65589,-28.2608 7.83508,-39.44928 -1.81432,-11.14868 -4.15204,-17.036 -8.61346,-21.69219 -6.10588,-6.37246 -8.84875,-6.08838 -25.7237,2.66423 -25.31519,13.13035 -43.58658,17.56093 -71.75215,17.39899 -32.01885,-0.18409 -63.13831,-8.0239 -92.88852,-23.40105 -12.33048,-6.37332 -23.03734,-13.99932 -42.00176,-29.91592 -32.06434,-26.91119 -33.42058,-27.70796 -41.82681,-24.57268 -6.27813,2.34157 -13.78138,10.06836 -18.46289,19.01297 -8.45687,16.15792 -10.788659,36.41091 -6.56259,57 6.52811,31.80445 23.08573,55.53956 51.61315,73.98674 34.05476,22.02141 88.40223,32.81521 135.80622,26.9721 z m 44.80338,-120.94992 c 12.13101,-2.56133 11.91222,-2.33859 11.15031,-11.35195 -1.81554,-21.47783 -13.21177,-47.06041 -28.98271,-65.06119 -3.086,-3.52233 -5.88152,-7.25686 -6.21227,-8.29897 -1.17735,-3.70949 1.96743,-6.22671 12.69341,-10.16038 5.7041,-2.09192 17.15749,-7.07526 25.45199,-11.07406 32.99299,-15.90605 48.23071,-29.97403 55.80188,-51.5182 2.55834,-7.27987 2.9933,-9.9499 2.93947,-18.04417 -0.0855,-12.85649 -2.9873,-21.42087 -13.89168,-41 C 382.78931,133.09774 381,129.46344 381,126.72083 c 0,-1.29011 1.36357,-6.36757 3.03016,-11.28324 7.64214,-22.540875 7.7322,-46.083416 0.27518,-71.93759 -2.99405,-10.380618 -5.94112,-17.656867 -7.55566,-18.654706 -1.41435,-0.874118 -6.87992,1.870187 -17.74968,8.912254 -15.38057,9.964433 -30.35758,23.710556 -41.82698,38.38942 -6.92756,8.86608 -7.57735,9.048322 -15.24529,4.27574 -7.48852,-4.660906 -19.4914,-7.586786 -33.46491,-8.157563 -16.95178,-0.692432 -26.5089,1.088128 -39.08151,7.281162 -5.32395,2.622478 -9.79562,4.231939 -10.74532,3.867503 -0.89464,-0.343306 -4.74615,-4.536021 -8.5589,-9.317144 -12.38429,-15.529667 -28.59381,-29.633981 -45.52507,-39.612523 -11.20448,-6.603425 -12.22915,-6.911757 -13.98197,-4.207312 -2.42084,3.735118 -6.62074,17.475802 -9.16006,29.968677 -4.24463,20.882626 -2.99681,41.712479 3.67546,61.354122 l 3.09114,9.09963 -3.4948,6.90037 c -1.92214,3.7952 -6.85815,12.64725 -10.96892,19.67122 -14.10844,24.10674 -17.36589,41.02914 -11.40123,59.22915 3.26219,9.95393 10.8703,21.70931 18.45016,28.50755 12.57982,11.28263 33.52356,22.93457 59.2382,32.95687 7.425,2.8939 14.2875,5.95551 15.25,6.80359 3.14258,2.76899 2.11092,6.07502 -3.93135,12.59833 -6.60994,7.13618 -13.90275,17.98983 -18.95077,28.20382 -2.91129,5.89059 -3.36063,7.57488 -2.46653,9.24551 C 191.92143,334.59022 218.40534,352 222.12714,352 224.28544,352 225,349.9707 225,343.84129 c 0,-4.18761 0.47255,-5.46769 2.92308,-7.91821 C 229.91807,333.92808 231.8475,333 234,333 c 2.1525,0 4.08193,0.92808 6.07692,2.92308 2.85551,2.8555 2.92308,3.16317 2.92308,13.30887 0,6.74604 0.43807,10.9745 1.25,12.06564 1.4347,1.92808 17.09144,6.75917 30.14264,9.3009 C 286.24447,372.90666 286,373.26189 286,353.73195 v -14.8858 l 2.92308,-2.92307 c 3.07111,-3.07112 6.10121,-3.62474 10.56019,-1.92944 4.42958,1.68412 5.51673,6.17869 5.51673,22.80757 0,8.176 0.3375,15.21688 0.75,15.64639 1.16912,1.21734 20.86582,-0.0671 29.73018,-1.93868 z m -92.5691,-120.78986 c -4.06971,-2.74258 -5.85659,-6.87486 -3.96067,-9.15931 1.73698,-2.09293 3.72009,-1.9641 6.77672,0.44025 3.56156,2.80152 6.92519,2.50153 10.34979,-0.92308 3.59879,-3.59879 3.72308,-6.50663 0.37197,-8.70237 -2.97745,-1.95089 -5.45048,-6.29953 -5.44515,-9.57489 0.006,-3.62997 3.42378,-8.30012 7.48489,-10.22724 5.31768,-2.52341 11.25782,-1.46815 15.28216,2.71485 5.42491,5.6388 5.18271,11.06572 -0.72892,16.33301 -3.73759,3.3302 -3.86069,6.28817 -0.40551,9.74336 3.30664,3.30663 6.72581,3.35084 10.54601,0.13636 3.48149,-2.92948 4.14644,-3.02834 6.2462,-0.92857 2.10971,2.1097 1.97929,4.64035 -0.39468,7.65835 -4.61571,5.86794 -14.32684,6.2804 -21.03045,0.89323 l -3.86766,-3.10814 -2.81789,2.344 c -6.4759,5.38682 -12.72631,6.18828 -18.40681,2.36019 z m -51.9894,-31.99286 c -10.48346,-7.0648 -10.78199,-20.58901 -0.62067,-28.11759 4.07856,-3.02182 13.0807,-2.89713 17.48957,0.24227 6.9567,4.95361 9.34084,15.69053 4.93562,22.22744 C 209.23353,217.2611 204.48773,220 199,220 c -3.23712,0 -5.75651,-0.70913 -8.07832,-2.2738 z M 321,217.83043 c -5.10484,-3.42254 -8.2697,-10.13632 -7.46242,-15.83043 1.32987,-9.38008 6.59737,-14 15.96242,-14 6.53418,0 10.10779,1.7178 13.19964,6.34493 4.75232,7.11215 3.78071,14.82718 -2.65926,21.11564 -3.5421,3.45877 -4.66789,3.95563 -9.77185,4.31278 -4.80719,0.33638 -6.35181,0.0126 -9.26853,-1.94292 z"
       id="path10" />
    <path
       style="fill:#2e2e2e"
       d="M 243,509.38076 C 155.56609,501.42304 98.891151,459.02625 85.897001,391.85683 85.220639,388.36057 84.674802,378.75 84.684029,370.5 c 0.01361,-12.16824 0.437145,-16.6612 2.243486,-23.79946 7.440899,-29.4048 23.831785,-48.29042 43.680295,-50.32855 10.6088,-1.08936 19.70842,3.12446 33.75211,15.62981 8.21267,7.31305 10.07997,7.45129 13.48331,0.9982 1.3053,-2.475 4.57456,-8.18337 7.26502,-12.68526 2.69046,-4.50189 4.89175,-8.83429 4.89175,-9.62756 0,-2.09342 -1.64611,-3.18355 -10.58378,-7.00903 -43.68761,-18.69908 -65.36325,-38.64731 -74.43034,-68.49872 -1.95562,-6.43846 -2.15379,-8.89733 -1.77018,-21.96476 0.35065,-11.94437 0.85897,-15.93841 2.70001,-21.21467 3.04738,-8.7335 10.87012,-24.14885 17.65547,-34.79152 6.29666,-9.87618 6.32858,-10.19845 2.34859,-23.70848 -2.17658,-7.38839 -2.35917,-9.7966 -2.38826,-31.5 -0.0346,-25.777703 0.81164,-32.131591 6.58804,-49.467392 3.38114,-10.14729 10.13205,-25.0481542 12.56735,-27.739128 2.77529,-3.0666662 6.36827,-2.0488087 21.06261,5.966844 20.92398,11.41388 30.92748,18.804161 46.07769,34.04079 14.96057,15.045905 12.49644,14.095678 26.6728,10.285655 19.28553,-5.18316 39.09831,-5.036226 57.96056,0.429842 C 299.17387,56.882475 303.72549,58 304.57526,58 c 0.84977,0 7.70547,-6.23284 15.23489,-13.850755 15.2369,-15.415989 28.52716,-25.056933 48.85952,-35.4433971 11.87668,-6.0670133 15.05364,-6.7740515 17.63273,-3.9241885 3.92661,4.3388461 12.38144,25.9046746 16.35559,41.7183406 2.02369,8.052534 2.61889,13.412354 3.05627,27.522019 0.6115,19.726315 -0.38317,29.703121 -4.35793,43.711431 l -2.61993,9.23345 7.12273,12.35709 c 15.43206,26.77273 18.50882,35.98888 18.58716,55.67601 0.0457,11.47354 -0.2986,14.62202 -2.29335,20.97478 -9.18261,29.24428 -29.9386,48.4563 -72.45691,67.06708 -9.50488,4.1604 -12.53417,6.68049 -11.09355,9.22881 0.38223,0.67613 3.08935,5.05433 6.01582,9.72933 9.04075,14.4425 16.0357,33.37883 17.92977,48.53847 0.38043,3.04483 1.44764,6.46961 2.37158,7.61063 l 1.67989,2.07457 7.95023,-3.99279 c 17.59444,-8.83634 30.94354,-7.42977 41.31544,4.35333 8.80714,10.00544 12.5318,22.24768 12.44849,40.91579 -0.11119,24.91378 -7.35493,42.16866 -25.74651,61.32922 -20.79939,21.66905 -55.92391,37.34366 -99.06719,44.20957 -12.61911,2.00822 -48.78489,3.40821 -60.5,2.34197 z m 42.14319,-16.89562 c 35.53146,-3.7491 58.13018,-10.59608 85.35681,-25.86147 12.57919,-7.05288 27.39323,-21.82693 33.21333,-33.12367 6.09277,-11.826 8.61461,-22.70456 7.99771,-34.5 -0.65564,-12.53601 -3.58278,-21.72973 -8.59644,-27.00019 C 399.63059,368.33735 398.87256,368 394.12701,368 c -4.4695,0 -7.00212,0.95172 -18.40484,6.9163 -19.79975,10.35693 -36.83892,15.2567 -61.27887,17.62128 -19.06075,1.84415 -57.87671,-5.18906 -82.81431,-15.00544 -22.6146,-8.90196 -37.9575,-18.93593 -67.94437,-44.43434 -25.5846,-21.75508 -28.81778,-23.15695 -39.40452,-17.08538 -11.82082,6.77933 -20.46848,24.22589 -23.42155,47.25272 -2.269789,17.69883 4.67595,46.21195 15.40309,63.23162 23.38323,37.09982 66.46889,59.88348 124.73836,65.96155 17.18409,1.79246 27.35117,1.79864 44.14319,0.0268 z m 50.15575,-121.54639 c 5.78772,-1.18578 9.78,-2.57325 11.04547,-3.83872 1.93899,-1.93898 1.94591,-2.19761 0.32093,-11.98214 -3.8844,-23.38915 -12.77941,-42.55093 -28.14608,-60.63276 -6.77978,-7.9777 -7.85293,-11.0496 -4.76926,-13.65208 0.9625,-0.81231 7.825,-3.86338 15.25,-6.78016 44.655,-17.54191 67.90239,-35.77006 76.67064,-60.11701 2.26522,-6.28987 2.68811,-9.13118 2.74393,-18.43588 0.0871,-14.52358 -2.1876,-21.09115 -15.93141,-45.99728 C 385.04531,136.02407 382,129.53333 382,127.15903 c 0,-1.84053 1.32168,-7.69176 2.93706,-13.00273 4.4605,-14.66499 5.43052,-20.607851 5.41191,-33.1563 -0.019,-12.789978 -2.23886,-27.268937 -6.05606,-39.5 -3.75139,-12.020168 -6.30953,-17.500718 -8.16605,-17.494912 -2.32909,0.0073 -16.68269,8.466934 -26.29043,15.494912 -9.85471,7.208631 -24.17945,21.131133 -32.66728,31.75 -3.95894,4.952904 -6.90651,7.75 -8.16691,7.75 -1.08471,0 -4.11645,-1.307003 -6.73722,-2.904451 -18.56658,-11.316991 -53.94584,-11.600229 -73.97248,-0.592205 -8.49066,4.667054 -10.46766,4.55593 -14.14941,-0.795318 -4.21565,-6.127227 -16.01342,-18.915499 -24.43364,-26.485005 -11.97387,-10.764118 -34.81127,-25.165415 -37.97923,-23.949755 -3.64806,1.399892 -11.21027,29.025018 -12.92442,47.213558 -0.96125,10.19969 -0.88114,13.797451 0.52488,23.572584 0.91259,6.344682 3.01152,15.536282 4.66427,20.425772 1.65276,4.8895 3.00501,9.71841 3.00501,10.73092 0,2.43406 -4.75195,11.82066 -12.6456,24.97907 -7.79866,13.00008 -10.96531,19.99296 -13.456,29.71479 -3.73067,14.56182 -1.46446,30.25179 6.33956,43.89144 4.82159,8.42706 16.60409,20.32393 26.76204,27.02183 9.37212,6.17974 34.54811,18.4827 48.5,23.70091 17.07624,6.38675 17.71704,7.81275 8.18054,18.20449 -3.4757,3.78741 -7.69165,8.88536 -9.36877,11.32878 C 196.39129,312.22614 189,326.8854 189,329.47556 c 0,1.83512 1.85493,3.74009 7.99155,8.20713 10.76668,7.83742 24.64488,15.6708 26.50138,14.9584 1.10929,-0.42568 1.50707,-2.15002 1.50707,-6.53298 0,-4.94721 0.43801,-6.4752 2.58889,-9.03138 3.44071,-4.08905 8.90586,-4.30701 12.4868,-0.49802 2.16845,2.30656 2.45407,3.59943 2.70626,12.25 0.42749,14.66339 -0.22579,13.64986 10.97702,17.03019 19.67701,5.93731 30.50632,7.49811 31.63404,4.55931 C 285.72686,369.54823 286,362.35533 286,354.43399 v -14.40244 l 2.87485,-3.21751 c 3.77993,-4.23048 9.37847,-4.38343 12.84705,-0.35096 2.16388,2.51566 2.2781,3.44426 2.2781,18.52126 0,20.05906 -0.38141,19.50701 12.79469,18.51916 5.1923,-0.38928 13.51921,-1.54342 18.50425,-2.56475 z M 246.00051,250.87655 C 241.90587,249.24379 239,245.8889 239,242.7943 c 0,-3.06096 2.39255,-4.76581 4.49566,-3.20345 6.18964,4.59819 6.42879,4.68308 9.55007,3.39021 6.1694,-2.55545 8.02428,-9.39472 3.37426,-12.44153 -5.68964,-3.728 -6.10464,-11.30943 -0.90375,-16.51032 2.1915,-2.19149 3.40506,-2.52921 9.08852,-2.52921 6.1444,0 6.74387,0.20657 9.47727,3.26578 4.51573,5.05398 4.1196,10.0703 -1.20314,15.23584 -3.8971,3.78201 -4.0552,4.15852 -2.90862,6.9266 2.71358,6.55116 8.14751,8.52644 12.76575,4.64045 3.71413,-3.12524 5.82728,-3.25316 7.33081,-0.44379 0.92231,1.72335 0.77504,2.62093 -0.77935,4.75 -4.89016,6.69811 -14.37309,7.62288 -20.75037,2.02356 -3.8087,-3.34408 -4.77471,-3.52381 -6.66467,-1.23996 -1.72069,2.07931 -8.71342,5.31125 -11.37244,5.25617 -1.1,-0.0228 -3.12477,-0.48993 -4.49949,-1.0381 z m -53.72985,-32.79331 c -5.9007,-2.74426 -8.26224,-6.99261 -8.26692,-14.87196 -0.004,-5.92435 0.22088,-6.52953 3.87297,-10.44476 3.63892,-3.90112 4.27067,-4.18112 10.29996,-4.56503 5.83909,-0.37181 6.71755,-0.16137 9.65921,2.31387 4.49097,3.7789 6.16475,7.49711 6.16038,13.68498 -0.006,8.86288 -4.58324,13.99512 -13.64129,15.29616 -2.6805,0.38501 -5.14349,-0.0456 -8.08431,-1.41326 z m 132.34864,0.90438 C 318.45924,217.09608 314,210.71182 314,203.78406 314,194.60918 320.49024,188 329.5,188 c 15.54714,0 21.38538,19.97575 8.5,29.0831 -3.07393,2.17264 -9.51972,3.0901 -13.3807,1.90452 z"
       id="path9" />
    <path
       style="fill:#020202"
       d="m 237,507.92839 c -37.84198,-4.19649 -71.65954,-15.76972 -96.5,-33.02475 -23.92225,-16.61721 -42.374024,-42.12612 -50.45403,-69.75088 -8.25977,-28.23936 -5.395615,-61.84689 7.05458,-82.7773 5.51281,-9.26775 14.19635,-17.904 21.7323,-21.61394 5.82456,-2.86742 7.59431,-3.25964 14.64612,-3.24599 10.30495,0.0199 15.92232,2.71652 28.50293,13.68259 6.43438,5.60864 9.73507,7.83848 11.27373,7.61619 2.32089,-0.33529 4.02653,-2.62666 10.02991,-13.4742 2.08205,-3.76206 4.71612,-8.31142 5.85349,-10.1097 3.47639,-5.49643 2.17853,-7.42935 -7.877,-11.7313 -45.04725,-19.27208 -66.21649,-38.49272 -75.28764,-68.35752 -1.98578,-6.53773 -2.16559,-8.85017 -1.74685,-22.46476 0.40957,-13.31649 0.7883,-16.0091 3.08977,-21.96658 3.67481,-9.51246 10.80902,-23.38629 17.22972,-33.50646 5.86825,-9.24942 6.33857,-11.46111 3.89746,-18.32806 -4.68317,-13.17398 -6.62757,-36.164171 -4.52513,-53.50421 2.33448,-19.253886 9.11742,-41.752475 16.84431,-55.87152 2.13293,-3.8974349 3.35043,-5.0705174 5.52121,-5.319788 3.59924,-0.4133014 19.77239,8.100392 37.21512,19.59038 10.50351,6.918939 15.55993,11.156977 26.33032,22.068762 l 13.33031,13.505318 13.16969,-3.400117 C 248.68618,52.754547 250.45782,52.55029 265,52.639136 c 13.54833,0.08277 16.75914,0.436199 25.5,2.806867 16.54967,4.48855 15.92313,4.520015 20.78448,-1.043829 C 321.38034,42.8474 327.05224,37.299406 335.34938,30.862989 352.93229,17.223238 380.44825,2.0991608 384.11274,4.0603358 387.85461,6.0629235 396.41748,26.263074 401.25518,44.5 c 3.14058,11.839232 3.18364,12.314836 3.21402,35.5 0.0308,23.48125 0.0282,23.50932 -3.21348,35.17834 -1.95578,7.04015 -2.94868,12.40184 -2.5,13.5 0.40935,1.00191 3.36977,6.22911 6.57871,11.61599 7.48238,12.56078 14.1263,26.60308 16.18926,34.21692 0.89245,3.29381 1.87409,10.73438 2.18141,16.53459 0.74105,13.98589 -1.32004,24.39983 -7.21485,36.45416 -11.81751,24.16568 -29.54997,38.22531 -71.65557,56.81394 -3.11593,1.37561 -6.14248,3.39266 -6.72565,4.48234 -1.15177,2.15209 -0.56828,3.43959 7.65624,16.89397 7.63246,12.48583 13.81407,30.78424 16.73827,49.5476 0.99121,6.3602 3.07264,6.52016 14.09781,1.08346 8.74015,-4.30993 10.26549,-4.74226 16.75703,-4.74942 16.07401,-0.0177 26.91229,10.18303 32.32978,30.42811 2.43641,9.10483 2.38847,29.95295 -0.0908,39.5 -11.43259,44.02361 -55.28979,74.03595 -124.27426,85.04329 -11.8296,1.88756 -51.9932,2.75242 -64.32308,1.3851 z m 55.32994,-15.4879 c 29.28074,-3.75211 48.68137,-9.59827 71.6198,-21.5818 14.27593,-7.45806 18.75957,-10.73881 28.24565,-20.66777 11.86134,-12.41513 18.70561,-27.00775 20.39328,-43.48036 1.25008,-12.20143 -3.00334,-28.91885 -9.0314,-35.4966 -2.61355,-2.85187 -4.07119,-3.55693 -8.16738,-3.95052 -4.62086,-0.444 -6.03553,0.0466 -19.3147,6.6989 -29.30318,14.67953 -53.79571,19.72276 -83.31852,17.15603 -30.2775,-2.63236 -63.86838,-12.99393 -87.25667,-26.91553 -8.38695,-4.99223 -26.55552,-18.94012 -42.5,-32.62696 -16.71079,-14.34465 -22.56573,-18.46887 -27.31291,-19.23923 -9.31744,-1.51201 -20.35527,7.25522 -27.4271,21.78508 -5.46183,11.22191 -7.36634,19.10366 -7.98365,33.04002 -1.38721,31.31761 11.34775,61.2252 35.90878,84.33045 22.707,21.36112 55.94583,35.20453 98.31488,40.94649 14.03848,1.90253 42.99001,1.90343 57.82994,0.002 z m 31.36884,-118.96558 c 15.11185,-1.95292 21.86888,-3.88545 23.77916,-6.80089 1.31744,-2.01068 1.3191,-3.32816 0.0143,-11.39539 -3.70997,-22.93817 -13.49582,-44.09151 -28.21331,-60.98663 -6.27805,-7.20696 -7.69902,-10.89703 -5.02895,-13.05945 0.6875,-0.55679 6.2,-2.91668 12.25,-5.2442 15.90765,-6.11989 37.60219,-16.87148 48.0877,-23.83175 18.08314,-12.00358 30.34239,-28.63273 34.02733,-46.1566 3.41607,-16.24528 -0.53725,-30.61345 -15.8208,-57.5 -5.31497,-9.35 -9.95461,-18.18909 -10.31032,-19.64243 -0.42311,-1.72876 0.44862,-6.05088 2.52112,-12.5 C 389.47558,102.44631 391,93.458362 391,81.011404 391,64.234186 386.61072,43.127893 379.51572,25.788067 377.685,21.31388 372.73688,23.106592 356,34.307849 340.98061,44.359665 328.99663,55.431164 317.09558,70.25 c -3.92834,4.89145 -6.94364,7.75 -8.17496,7.75 -1.07301,0 -4.3066,-1.311826 -7.18577,-2.915168 -11.88733,-6.619784 -31.0714,-9.965413 -46.32473,-8.07886 -12.8011,1.583259 -16.94194,2.7281 -25.69168,7.103116 -9.86563,4.932988 -11.74905,4.950749 -14.94225,0.140912 -3.60927,-5.436553 -15.47825,-18.258813 -24.4159,-26.3769 -8.3102,-7.548172 -23.4219,-17.963263 -32.58227,-22.455932 -6.78714,-3.328724 -7.60537,-2.915756 -10.59806,5.348953 -11.12931,30.735057 -12.44031,61.759539 -3.64061,86.154349 1.35336,3.75183 2.46065,8.12795 2.46065,9.72473 0,1.631 -2.02008,6.39831 -4.60984,10.87901 -16.67774,28.85527 -19.13404,34.02594 -22.05424,46.42565 -2.93719,12.47184 0.22088,29.60008 7.78845,42.24181 4.24162,7.08568 15.74571,18.75686 24.37563,24.72968 13.02334,9.01352 38.33448,21.2791 55.76028,27.021 10.75255,3.54303 11.19059,6.15154 2.621,15.60775 -11.12356,12.27441 -22.66744,32.18145 -21.45741,37.00259 0.66345,2.64341 17.49498,14.87574 28.37445,20.62118 6.14867,3.2471 6.33281,3.28001 7.75,1.385 0.87347,-1.16797 1.45168,-4.21941 1.45168,-7.66111 0,-5.15959 0.30142,-5.9736 3.07673,-8.30887 3.97972,-3.34872 6.39811,-3.2679 10.00019,0.33419 2.85978,2.85978 2.92308,3.15057 2.92308,13.42857 0,8.12857 0.34862,10.85411 1.54082,12.04631 1.96408,1.96408 15.24368,6.17875 27.31926,8.67057 11.7112,2.41663 13.81011,2.41624 15.10474,-0.003 C 286.5432,369.98502 287,362.67003 287,354.48882 v -14.64267 l 2.92308,-2.92307 c 3.60722,-3.60723 7.31992,-3.77099 10.62237,-0.46853 2.3876,2.38759 2.45455,2.86316 2.45455,17.4349 0,22.78537 -0.48815,22.32348 20.69878,19.58546 z M 245.0964,249.7914 c -1.32198,-0.71027 -3.25498,-2.43867 -4.29556,-3.8409 -3.50657,-4.72527 0.75544,-8.30827 4.69916,-3.9505 3.43407,3.79461 10.30102,2.21925 12.98965,-2.97998 2.23568,-4.32333 1.88408,-5.97748 -2.001,-9.41404 -4.46632,-3.95069 -5.27644,-7.96521 -2.50556,-12.41616 5.13163,-8.2431 17.92139,-7.44936 21.59387,1.34013 1.82984,4.37942 0.56605,7.91673 -4.31037,12.06454 -3.52133,2.9952 -3.59567,3.19682 -2.31697,6.28389 2.75151,6.64272 10.67752,9.40108 14.59022,5.0776 2.20117,-2.43227 5.79636,-2.20779 6.29231,0.39289 0.50336,2.63954 -4.56533,7.51045 -8.60377,8.26806 -4.47821,0.84012 -10.25582,-0.95278 -13.21258,-4.10011 C 266.71536,245.13257 265.25343,244 264.76705,244 c -0.48638,0 -2.62894,1.40201 -4.76124,3.11557 -4.43356,3.56291 -11.04865,4.75014 -14.90941,2.67583 z m -53.33538,-32.85383 c -7.19983,-3.80124 -9.98239,-14.37793 -5.51102,-20.94774 3.61079,-5.30535 6.90977,-7.20826 12.64666,-7.2948 8.13417,-0.12271 14.06061,5.47386 14.80451,13.98048 0.53875,6.16074 -1.97798,11.00386 -7.30527,14.05804 -4.77906,2.73987 -9.7018,2.8085 -14.63488,0.20402 z M 321.98983,216.75 c -5.36702,-3.65276 -7.18875,-6.85441 -7.14458,-12.55642 0.0741,-9.56261 5.42216,-15.18281 14.45441,-15.18984 9.30577,-0.007 14.68982,5.34082 14.6966,14.59838 0.009,11.90159 -12.69005,19.48855 -22.00643,13.14788 z"
       id="path8" />
  </g>
</svg>
