<?xml version="1.0" encoding="UTF-8" standalone="no"?>
<!-- Created with Inkscape (http://www.inkscape.org/) -->

<svg
   version="1.1"
   id="svg1"
   width="700"
   height="700"
   viewBox="0 0 700 700"
   sodipodi:docname="io.poly000.waylyrics.svg"
   inkscape:version="1.3 (0e150ed6c4, 2023-07-21)"
   xmlns:inkscape="http://www.inkscape.org/namespaces/inkscape"
   xmlns:sodipodi="http://sodipodi.sourceforge.net/DTD/sodipodi-0.dtd"
   xmlns="http://www.w3.org/2000/svg"
   xmlns:svg="http://www.w3.org/2000/svg">
  <defs
     id="defs1" />
  <sodipodi:namedview
     id="namedview1"
     pagecolor="#ffffff"
     bordercolor="#000000"
     borderopacity="0.25"
     inkscape:showpageshadow="2"
     inkscape:pageopacity="0.0"
     inkscape:pagecheckerboard="0"
     inkscape:deskcolor="#d1d1d1"
     inkscape:zoom="1.36625"
     inkscape:cx="400"
     inkscape:cy="400"
     inkscape:window-width="2240"
     inkscape:window-height="1366"
     inkscape:window-x="-11"
     inkscape:window-y="-11"
     inkscape:window-maximized="1"
     inkscape:current-layer="g1" />
  <g
     inkscape:groupmode="layer"
     inkscape:label="Image"
     id="g1">
    <g
       id="g1509"
       transform="translate(-54.307414,-36.596523)">
      <path
         style="fill:#d0d0cf"
         d="M 85.5,696.49645 C 80.286879,694.65132 73.455616,687.40575 72.066977,682.24873 71.299155,679.39726 71.057912,613.99466 71.241148,458.36027 71.497617,240.52384 71.51841,238.46902 73.5,235.13488 c 1.1,-1.85081 3.956724,-4.77581 6.348276,-6.5 L 84.196551,225.5 254.05938,225 l 169.86284,-0.5 7.14312,-9.3059 7.14312,-9.30589 -2.22769,-20.06141 c -3.02554,-27.24638 -2.47698,-54.12751 1.48616,-72.8268 7.04172,-33.224925 16.81708,-49.055842 30.24323,-48.978038 13.8373,0.08019 25.06551,15.757575 30.89882,43.142488 2.13449,10.02051 2.41017,34.94309 0.49503,44.75332 -3.73687,19.14201 -13.18785,43.22805 -24.51202,62.46945 C 471.5164,219.61311 469,224.13884 469,224.44442 469,224.74999 481.1271,225 495.94911,225 h 26.94911 l 2.46948,-3.25 c 1.35821,-1.7875 5.09961,-8.36731 8.31421,-14.6218 3.21459,-6.2545 6.28873,-11.41685 6.83141,-11.47189 1.80519,-0.18311 3.44455,4.94993 5.0952,15.95369 0.89847,5.9895 1.78999,11.4525 1.98115,12.14 0.27453,0.98735 18.03267,1.25 84.51293,1.25 63.40431,0 85.18066,0.30151 88.28138,1.22232 2.49122,0.73981 5.95594,3.05438 8.77699,5.86335 4.06578,4.04838 4.74209,5.3289 5.29621,10.02768 0.34938,2.96266 0.50194,102.81165 0.33903,221.88665 -0.2898,211.81847 -0.33809,216.58441 -2.23295,220.4034 -2.97572,5.99744 -7.90551,10.32379 -13.73707,12.05558 -4.627,1.37407 -38.99844,1.53626 -317.25769,1.49713 C 135.05699,697.91862 88.916064,697.70554 85.5,696.49645 Z m 591.14852,-14.7097 C 682.65097,676.35371 677.93693,665 669.6787,665 665.5694,665 661,670.11015 661,674.70576 c 0,2.63967 0.8305,4.32474 3.39583,6.89007 2.93557,2.93557 3.85046,3.31043 6.75,2.76573 1.8448,-0.34656 4.321,-1.50522 5.50269,-2.57481 z m -518.58553,-4.63667 c 1.82353,-1.4766 2.29994,-2.8964 2.36079,-7.03549 0.0527,-3.5857 -0.38657,-5.47842 -1.42378,-6.13476 -0.825,-0.52206 -7.84276,-0.9561 -15.59501,-0.96452 -12.35984,-0.0134 -14.29729,0.2082 -15.73813,1.80031 -3.37129,3.72523 -2.97718,10.94182 0.73284,13.41907 0.60517,0.40408 7.01295,0.74158 14.23952,0.75 11.3084,0.0132 13.45754,-0.24246 15.42377,-1.83461 z m 48.43769,-0.21933 c 2.45916,-2.46365 3.03907,-8.45804 1.10397,-11.41138 -1.63702,-2.49841 -1.76913,-2.51924 -15.8777,-2.50406 -7.82482,0.008 -14.7613,0.35508 -15.41439,0.77035 -1.54022,0.97936 -3.31256,5.67667 -3.31256,8.77944 0,1.33919 0.93343,3.36833 2.07429,4.50919 1.93493,1.93493 3.00766,2.0525 15.96714,1.75 10.97596,-0.2562 14.22173,-0.65377 15.45925,-1.89354 z m 232.06938,-38.81739 c -0.30138,-0.48765 -2.24044,-1.20208 -4.30901,-1.58764 -2.06858,-0.38555 -7.6712,-2.71799 -12.45027,-5.1832 -17.15442,-8.84886 -27.50325,-23.49166 -28.57047,-40.42501 -0.95947,-15.22368 3.23043,-25.49864 15.25802,-37.41751 9.35305,-9.26851 16.20169,-13.60538 27.74046,-17.56653 24.50748,-8.41319 51.69415,-4.74854 66.01121,8.89804 2.0625,1.96591 3.75,3.27243 3.75,2.90337 0,-3.12459 -7.57007,-59.38111 -9.51833,-70.73488 -1.36848,-7.975 -4.23449,-24.76031 -6.36892,-37.30069 -2.13443,-12.54037 -4.10789,-23.02779 -4.38547,-23.30536 -0.75468,-0.75468 -15.6233,5.13183 -29.39861,11.63896 -15.47918,7.31201 -28.28614,16.08451 -37.23464,25.50495 -14.17499,14.92258 -17.27147,22.34667 -14.48671,34.73319 2.22534,9.8982 2.25413,12.10154 0.16359,12.52078 C 401.88403,501.37078 389.03793,487.5715 384.48435,479 380.56771,471.62746 380.5,471.32155 380.5,461 c 0,-10.23751 0.0996,-10.69999 3.98386,-18.5 3.25251,-6.53138 6.00618,-10.03524 15,-19.08655 16.18944,-16.29291 35.36668,-29.59087 64.96421,-45.04778 9.87004,-5.15449 10.45205,-5.63028 9.9934,-8.16946 -1.99379,-11.03803 -5.44428,-32.932 -5.45678,-34.6243 -0.0376,-5.08728 -1.413,-4.95569 -10.60114,1.01427 C 413.90123,365.48841 405.34578,371.66059 385,389.5274 371.02319,401.80125 360.7067,412.6975 347.62762,429 c -8.4649,10.55112 -12.10899,16.12123 -16.6827,25.5 -11.21016,22.98737 -12.43604,36.55671 -5.01398,55.5 2.73135,6.9712 2.78164,10.17647 0.13401,8.54014 -2.74811,-1.69842 -9.8412,-12.82535 -13.32627,-20.90492 -5.72045,-13.26192 -7.7234,-22.92992 -7.73167,-37.31984 -0.0129,-22.4491 5.94175,-41.37332 19.2934,-61.31538 13.41749,-20.0404 29.37457,-35.95173 58.69959,-58.53128 10.16837,-7.8294 61.18243,-42.92185 69.75,-47.98086 2.70749,-1.59873 3.24426,-2.50906 3.21561,-5.45347 -0.0418,-4.29267 -5.32675,-32.72886 -6.25538,-33.65749 -1.01428,-1.01428 -3.10662,1.0631 -15.23201,15.1231 -17.11541,19.84616 -30.50696,32.28768 -39.57692,36.76923 -14.73973,7.28304 -33.40763,11.9566 -35.33063,8.84511 -0.41159,-0.66596 3.45044,-6.4994 9.19026,-13.8815 C 374.20603,293.22978 381.92639,283 385.91729,277.5 l 7.25619,-10 L 251.83674,267 C 174.10153,266.725 110.1625,266.63906 109.75,266.80902 c -0.92635,0.38167 -1.00939,370.59826 -0.0833,371.52431 1.02496,1.02496 329.53701,0.80525 328.90339,-0.21997 z M 148.50818,565.01323 c -2.75881,-4.46384 17.74813,-17.21059 30.7265,-19.09906 C 182.6806,545.41276 189.775,544.66445 195,544.25126 L 204.5,543.5 v -8 -8 l -4.54222,-0.29631 c -3.55739,-0.23206 -5.37187,0.26672 -8.36876,2.30046 -4.68315,3.17807 -6.69589,2.91751 -7.75665,-1.00415 -2.42086,-8.94994 4.90288,-17.8589 16.46414,-20.0278 2.45632,-0.46081 3.71601,-1.24663 3.74066,-2.33349 0.0204,-0.90129 0.13294,-12.21371 0.25,-25.13871 l 0.21283,-23.5 2.87417,-6.22237 c 3.4909,-7.55758 11.56279,-15.61129 17.22109,-17.18232 C 239.09491,430.06947 251,438.14216 251,452 c 0,12.8446 -13.47813,24.93091 -29.69167,26.62556 -7.23122,0.75581 -6.94864,0.0759 -6.49399,15.62444 l 0.31434,10.75 h 3.87056 c 10.82634,0 17.75076,8.12843 11.73711,13.77796 C 227.77535,521.55968 221.83851,524 218.03212,524 H 215 v 7.93664 7.93664 l 3.25,0.31336 c 2.86557,0.27629 3.28737,0.70182 3.5659,3.59746 0.42305,4.39796 -4.26781,9.07909 -12.3159,12.29035 -5.62416,2.2441 -7.2841,2.39758 -26.5,2.45023 -16.02575,0.0439 -21.07161,0.37472 -23.119,1.51574 -9.40816,5.24321 -10.82329,5.86197 -11.37282,4.97281 z M 220,456.5 c 3.04545,-1.74094 7.60516,-1.8822 11.94302,-0.37002 2.78067,0.96935 3.50144,0.86273 5.07031,-0.75 1.00587,-1.03399 1.97686,-2.98896 2.15776,-4.34437 0.80735,-6.04913 -13.9702,-4.98853 -19.92109,1.42976 -4.69563,5.06443 -4.34558,6.94753 0.75,4.03463 z m 474.75264,-3.75 0.25264,-185.75 -67.25264,-0.005 c -36.98895,-0.002 -72.25727,-0.29294 -78.37403,-0.64543 l -11.12139,-0.64088 -5.3078,7.89543 c -7.08882,10.54473 -30.5844,33.76462 -45.27502,44.74378 -6.42092,4.79873 -11.6744,9.15553 -11.6744,9.68177 0,0.52625 1.102,6.69725 2.4489,13.71334 1.34689,7.0161 2.96094,15.6752 3.58678,19.24245 0.62584,3.56725 1.33209,6.80013 1.56944,7.18419 0.23736,0.38405 3.63771,-0.3922 7.55633,-1.72501 22.052,-7.50037 49.12073,-7.17559 66.83855,0.80195 7.81233,3.51754 17.26371,10.82245 20.96738,16.20554 10.14429,14.74423 16.17518,42.00309 13.9204,62.91843 C 591.0477,463.43952 583.05334,489 579.55503,489 c -2.02869,0 -1.98904,-0.47211 0.86755,-10.32959 5.6999,-19.66918 5.52676,-31.93 -0.63082,-44.67041 -4.02801,-8.3342 -13.27023,-17.69171 -21.12868,-21.39223 -15.06112,-7.09226 -35.47313,-7.27883 -58.20001,-0.53196 -5.86701,1.74172 -7.46307,2.61937 -7.46307,4.10382 0,1.03855 1.97027,9.6355 4.37838,19.10433 2.40812,9.46882 5.59359,22.84104 7.07884,29.71604 1.48525,6.875 6.0412,26.225 10.12435,43 8.36062,34.34839 10.48632,46.83154 10.55773,62 0.0764,16.23902 -3.42557,28.18226 -11.92677,40.67498 -8.1584,11.98897 -23.43038,21.76865 -39.66888,25.40267 -3.011,0.67383 -5.23735,1.60894 -4.94743,2.07803 0.28991,0.46909 51.23686,0.73846 113.21544,0.5986 L 694.5,638.5 Z M 479,273.18624 c 6.70735,-5.38311 15.24637,-13.27649 14.81541,-13.69519 -0.17348,-0.16854 -5.49041,-0.81624 -11.81541,-1.43934 -6.325,-0.62309 -13.25336,-1.40768 -15.39636,-1.74352 -3.72463,-0.5837 -3.87006,-0.50478 -3.2997,1.7906 0.32817,1.32066 1.10556,6.67621 1.72754,11.90121 0.62198,5.225 1.31748,10.09446 1.54557,10.82103 0.46443,1.47947 3.0351,-0.10039 12.42295,-7.63479 z m -23.42414,-84.46017 c 11.87072,-16.89935 19.186,-31.41665 22.53748,-44.72607 2.03393,-8.07714 1.9212,-34.39124 -0.15624,-36.47028 -1.39094,-1.39202 -1.99542,-1.2571 -6.13788,1.36998 -6.97737,4.42491 -12.29785,13.30007 -17.14532,28.6003 -2.47437,7.80992 -5.69572,26.09145 -6.35254,36.05133 -0.60627,9.1933 0.28658,22.46835 1.50823,22.42474 0.36873,-0.0132 2.95455,-3.27566 5.74627,-7.25 z"
         id="path1515" />
      <path
         style="fill:#9e9e9d"
         d="M 86.059591,695.69864 C 81.011741,694.08883 74.410248,687.30319 73.09111,682.3684 72.297322,679.3989 72.058868,616.34438 72.243338,458.19167 L 72.5,238.14654 l 2.064703,-2.76539 c 1.135587,-1.52096 3.764804,-4.14143 5.842704,-5.82327 L 84.185408,226.5 254.28753,226 l 170.10212,-0.5 7.39083,-9.7404 7.39083,-9.7404 -2.20516,-19.08765 c -3.01954,-26.13689 -2.46374,-56.48817 1.35591,-74.04428 5.56835,-25.593606 13.12903,-41.525941 21.80702,-45.95312 7.16717,-3.65642 15.9448,-1.596366 22.60397,5.305005 7.05388,7.310443 14.05403,26.273392 16.3074,44.175655 3.68329,29.26247 -5.24914,63.65084 -25.44846,97.97241 C 470.5164,219.61311 468,224.36384 468,224.94442 468,225.66 476.99675,226 495.93191,226 h 27.9319 l 1.95833,-2.75022 c 1.07708,-1.51262 4.52803,-7.70012 7.66878,-13.75 3.14075,-6.04988 6.07346,-11.38559 6.51713,-11.85714 1.42974,-1.51958 2.97598,3.02284 4.61659,13.56222 0.88142,5.66233 1.78504,11.30764 2.00803,12.54514 l 0.40543,2.25 85.23095,0.01 85.23095,0.01 5.07886,2.36494 c 5.80764,2.70428 8.97271,6.23646 10.42666,11.63602 0.67227,2.49664 0.92534,77.10544 0.75339,222.11945 C 733.509,672.91185 733.4353,680.62163 731.63805,684 c -1.02408,1.925 -3.2618,4.97483 -4.97273,6.7774 -6.37058,6.71182 19.05729,6.2331 -325.09682,6.12051 -223.45625,-0.0731 -313.045409,-0.41363 -315.508909,-1.19927 z M 673.62954,685 c 0.80628,0 2.56947,-1.19071 3.91821,-2.64602 1.8399,-1.98528 2.45225,-3.75823 2.45225,-7.1 0,-3.73198 -0.55115,-5.00513 -3.4,-7.85398 -2.45,-2.45 -4.29412,-3.4 -6.6,-3.4 -4.5879,0 -10,5.54855 -10,10.25212 0,6.21502 6.15298,12.54676 10.83179,11.14646 C 671.56427,685.17936 672.82326,685 673.62954,685 Z m -516.15262,-6.17144 c 2.7709,-1.26251 3.72403,-3.71523 3.88903,-10.00779 C 161.5299,662.56806 160.04055,662 143.48318,662 c -13.3812,0 -14.24431,0.11992 -16.19393,2.25 -1.13266,1.2375 -2.36867,3.26956 -2.74669,4.5157 -0.86845,2.86284 1.07836,8.91016 3.28245,10.19618 2.40749,1.40469 26.51422,1.29631 29.65191,-0.13332 z m 41.32411,0.31781 8.30102,-0.14637 1.54697,-3.70242 c 1.82825,-4.37562 1.19003,-10.21088 -1.31732,-12.0443 C 206.14111,662.38269 201.10283,662 190.83192,662 c -14.49387,0 -14.81679,0.0473 -16.35457,2.39423 -3.54818,5.4152 -2.74108,12.84962 1.56462,14.41218 1.05117,0.38147 4.73425,0.64696 8.18463,0.58996 3.45037,-0.057 10.00886,-0.16949 14.57443,-0.25 z m 495.51733,-39.71514 c 0.90326,-0.3467 1.16892,-44.26298 1.12766,-186.41304 -0.0297,-102.27772 -0.2547,-186.15913 -0.5,-186.40313 -0.24531,-0.244 -35.74753,-0.56794 -78.89382,-0.71987 l -78.4478,-0.27623 -5.57783,7.5919 c -9.8491,13.40547 -30.129,33.41831 -45.17278,44.57792 -5.18603,3.84705 -10.00783,7.6919 -10.71512,8.54413 -1.06011,1.27736 -0.75645,4.32606 1.72896,17.3583 1.6582,8.69483 3.28845,17.61799 3.62276,19.82925 0.99633,6.59004 1.25918,6.70394 9.23978,4.00391 21.21084,-7.17613 44.78459,-7.54634 63.3533,-0.99492 11.94349,4.21391 24.04842,15.0739 29.01765,26.0333 7.25647,16.00379 10.80345,37.4722 8.89843,53.85854 -1.37398,11.81862 -5.13254,26.94804 -8.56601,34.48099 -3.10247,6.80674 -4.21221,5.95079 -2.10687,-1.62503 4.89287,-17.60642 5.16565,-32.85453 0.76568,-42.80138 -6.58259,-14.88103 -17.17049,-23.88066 -33.59235,-28.55321 -8.47439,-2.41124 -27.98417,-1.7719 -40.5,1.3272 -14.2285,3.52317 -16,4.27613 -16,6.80064 0,1.155 1.78819,8.92863 3.97376,17.27475 2.18557,8.34611 6.03167,24.62475 8.5469,36.17475 2.51523,11.55 7.22376,31.575 10.46339,44.5 7.06288,28.17845 9.32089,41.81938 9.35253,56.5 0.0277,12.84404 -1.67446,20.42453 -7.07312,31.5 -5.08766,10.43745 -16.8039,22.09048 -27.35531,27.20772 -32.53003,15.77645 -69.38654,9.34263 -87.45076,-15.26577 -7.32022,-9.97214 -10.2389,-24.50234 -7.3975,-36.82729 4.30922,-18.69176 23.10878,-35.4192 47.45345,-42.22304 9.21023,-2.57407 28.3845,-3.09231 36.95518,-0.99882 8.46215,2.06697 17.58938,7.04997 22.72573,12.40708 3.04432,3.17517 4.80575,4.41701 4.80575,3.38815 0,-4.12409 -7.34024,-59.04906 -9.9814,-74.68803 -2.74471,-16.25215 -4.626,-27.32216 -8.62467,-50.75 -0.86833,-5.0875 -1.9486,-9.25 -2.40058,-9.25 -1.80943,0 -19.71753,7.2725 -30.33102,12.31746 -17.98038,8.5467 -30.24088,17.38311 -40.9377,29.50471 -11.6458,13.19698 -13.95177,21.20705 -10.22463,35.51652 1.8493,7.09994 1.87385,6.66131 -0.37287,6.66131 -2.84102,0 -15.63749,-14.09481 -19.26904,-21.22409 -4.1449,-8.13707 -5.07201,-19.50833 -2.3072,-28.29839 6.5664,-20.87629 35.03261,-45.20129 82.44911,-70.45457 8.1821,-4.35766 10.4646,-6.026 10.33963,-7.55754 -0.0882,-1.08098 -1.61795,-11.05775 -3.39943,-22.17062 -3.1741,-19.80002 -3.28119,-20.18272 -5.33963,-19.08377 -6.96898,3.72055 -55.76237,36.78302 -64.10057,43.43464 -35.11864,28.01514 -59.93656,55.57651 -71.90565,79.85434 -7.92915,16.08331 -9.95227,23.21263 -9.9321,35 0.0126,7.36645 0.56819,10.63355 3.06101,18 1.67508,4.95 2.82766,9.225 2.56128,9.5 -0.26638,0.275 -2.04707,-1.3 -3.9571,-3.5 -3.9356,-4.53308 -9.01201,-14.72105 -13.05664,-26.20366 -2.62175,-7.44309 -2.74462,-8.63458 -2.71165,-26.29634 0.0323,-17.32914 0.20981,-19.06926 2.80416,-27.4945 3.44986,-11.20353 9.06728,-23.29354 14.69373,-31.62433 20.23101,-29.95501 44.29952,-50.91929 105.19296,-91.62568 24.97473,-16.69525 27.75,-18.82225 27.75,-21.26797 0,-4.26668 -5.77991,-35.16743 -6.7616,-36.14912 -0.94782,-0.94782 -6.59616,4.78401 -22.7384,23.0745 -20.14259,22.82322 -28.57571,29.13745 -47.57403,35.62068 C 371.16494,313.5233 361,314.90171 361,313.10001 c 0,-0.6517 5.0625,-7.78729 11.25,-15.85688 6.1875,-8.06959 13.8386,-18.28799 17.00245,-22.70755 L 395.00491,266.5 252.75245,266 C 174.5136,265.725 109.9375,265.66064 109.25,265.85699 c -0.99425,0.28395 -1.25,38.45932 -1.25,186.58333 0,102.42449 0.29296,186.51931 0.65102,186.87737 0.72238,0.72237 583.78661,0.83541 585.66734,0.11354 z M 152.43449,561.10599 c 1.52343,-2.46496 14.19862,-9.96114 20.34324,-12.03111 3.95562,-1.33255 10.8556,-2.40779 19.28809,-3.00569 7.22109,-0.51201 13.39898,-1.20066 13.72865,-1.53033 0.68826,-0.68826 0.30249,-17.57295 -0.42851,-18.75575 -1.45904,-2.36076 -14.84629,0.949 -16.83162,4.16132 C 187.22359,532.06528 185,528.97056 185,525.02544 c 0,-7.15043 5.2729,-12.17255 16,-15.23905 L 205.5,508.5 V 485 c 0,-21.94284 0.15278,-23.94214 2.30576,-30.17255 2.67169,-7.73153 8.44033,-14.89202 14.4793,-17.97288 3.22322,-1.64436 5.41891,-1.98398 10.8447,-1.6774 5.88857,0.33274 7.22851,0.7836 9.96672,3.35362 9.39857,8.82128 8.56147,20.22143 -2.19865,29.94255 -5.53669,5.00207 -12.06666,7.6975 -20.39783,8.41978 l -7,0.60688 v 14.5 14.5 l 6,0.52446 c 3.3,0.28845 7.00719,1.08894 8.23819,1.77886 2.36444,1.32517 3.85305,5.21354 2.9234,7.63618 -0.9308,2.42563 -5.66085,4.92213 -11.5562,6.09931 L 213.5,523.65808 v 8.92096 8.92096 l 3.25,0.31336 c 2.59375,0.25008 3.25,0.76044 3.25,2.52749 0,4.96093 -5.59733,9.16353 -15.40216,11.56427 -3.13346,0.76723 -11.80796,1.12217 -24.04233,0.98373 l -19.14016,-0.21657 -4.89228,2.86707 c -2.69076,1.57689 -4.53062,2.28188 -4.08858,1.56664 z M 218.78785,459.5 c 5.06005,-2.69367 8.52192,-3.09312 12.77913,-1.47453 1.48345,0.564 3.54268,0.75711 4.57607,0.42913 3.68444,-1.1694 6.48198,-10.33224 3.68277,-12.06225 -0.6458,-0.39913 -3.6833,-0.72378 -6.75,-0.72145 -10.13254,0.008 -18.13744,5.38718 -19.70899,13.24494 -0.33926,1.69629 -0.31497,3.08416 0.054,3.08416 0.36894,0 2.78411,-1.125 5.36704,-2.5 z M 476.6518,276.04314 c 10.96934,-8.6246 20.01115,-16.72246 19.3482,-17.32829 -0.94808,-0.86638 -32.44894,-3.66574 -33.09523,-2.94104 -0.3562,0.3994 -0.0211,5.22619 0.74461,10.72619 2.11972,15.22533 2.37448,16.5 3.29773,16.5 0.47107,0 4.83818,-3.13059 9.70469,-6.95686 z M 456.33266,189.22086 C 473.79361,164.3903 479.7107,149.27542 480.69053,127 c 0.57105,-12.98233 -0.54185,-20.62198 -3.14989,-21.62278 -1.81852,-0.69783 -8.40158,3.56143 -12.21187,7.90111 -9.89294,11.26744 -17.64934,40.62537 -17.76004,67.22167 -0.0579,13.90423 0.53718,18.17061 2.37587,17.03424 0.52729,-0.32589 3.40192,-4.06691 6.38806,-8.31338 z"
         id="path1514" />
      <path
         style="fill:#f4605e"
         d="m 95,696.03514 c -9.703154,-0.61089 -13.518918,-2.34822 -18.393977,-8.37487 L 73.5,683.82055 72.929684,660.16027 C 72.616009,647.14712 72.391009,547.4 72.429684,438.5 c 0.06769,-190.60026 0.139491,-198.13912 1.921271,-201.72263 1.043565,-2.09882 3.844611,-5.04318 6.421445,-6.75 L 85.342889,227 H 252.04644 c 91.68696,0 168.11069,-0.28143 169.83051,-0.62539 2.48886,-0.49777 4.65938,-2.64474 10.63647,-10.52106 l 7.50952,-9.89568 -1.50952,-11.51527 c -6.10515,-46.57272 -3.33847,-80.19028 9.02915,-109.712155 14.65818,-34.989511 42.18787,-20.486636 50.01964,26.350775 2.42712,14.51521 1.59701,35.84831 -1.90351,48.91878 -5.63281,21.03217 -12.59429,37.65325 -22.99953,54.91323 -3.11255,5.16301 -5.65917,9.72436 -5.65917,10.13634 0,1.16586 22.77212,2.16441 40.80923,1.78946 19.15373,-0.39816 16.6115,1.26326 26.22337,-17.13774 3.40988,-6.5279 6.57116,-11.49369 7.02507,-11.0351 0.75698,0.76481 2.72946,10.39249 4.6781,22.83381 l 0.78313,5 87.0641,0.5 87.0641,0.5 4.21549,2.79002 c 2.31852,1.53451 5.09624,4.23451 6.17271,6 1.92746,3.16116 1.95695,6.55611 1.939,223.20998 -0.0176,212.26133 -0.0836,220.1407 -1.87597,224 -2.48219,5.34454 -5.51773,8.35563 -10.76215,10.67549 -4.26227,1.88541 -10.74151,1.93047 -310.59463,2.16018 C 241.3087,696.4647 99.675,696.32946 95,696.03514 Z M 676.04589,684.7182 C 679.09673,682.31407 681,678.48941 681,674.76281 c 0,-4.64201 -4.90952,-10.48399 -9.5,-11.30432 -3.83545,-0.68541 -8.81236,2.31108 -11.06109,6.65965 -1.39671,2.70094 -1.47111,3.83102 -0.4718,7.16644 1.78072,5.94349 5.05638,8.72198 10.23744,8.68362 2.3625,-0.0175 4.9911,-0.58 5.84134,-1.25 z M 159.75,677.3413 c 1.67372,-1.8246 2.25,-3.67022 2.25,-7.20593 0,-8.25253 -0.6501,-8.58687 -17.42036,-8.95919 l -14.58584,-0.32383 -2.9969,2.9969 c -2.4345,2.4345 -2.9969,3.83503 -2.9969,7.46304 0,7.76664 1.48879,8.62415 15.5,8.92772 15.52719,0.33641 17.54771,0.0472 20.25,-2.89871 z m 46.8503,1.89339 c 3.4051,-2.27365 4.6445,-12.1475 1.98245,-15.79356 -1.26082,-1.72688 -2.92912,-1.97751 -15.11473,-2.27074 -7.53361,-0.18129 -14.80358,-0.052 -16.15548,0.2873 -1.68209,0.42218 -3.08494,2.03422 -4.44406,5.10672 -2.0443,4.62149 -1.88322,6.99628 0.7587,11.18559 1.37093,2.17389 1.93397,2.24948 16.64587,2.23469 8.37482,-0.008 15.72208,-0.34592 16.32725,-0.75 z M 674.25,640.31714 696,639.74539 V 452.36671 264.98803 l -79.70309,0.25598 -79.70308,0.25599 -5.04571,7.37258 c -8.30252,12.13129 -29.371,32.79602 -46.0858,45.2026 -4.97072,3.68953 -9.55447,7.33093 -10.18611,8.09201 -0.87844,1.05845 -0.36609,5.49204 2.17929,18.85829 1.83025,9.61099 3.63067,19.20881 4.00093,21.32851 0.78822,4.51239 -0.23319,4.53847 17.54357,-0.44781 10.25099,-2.87535 12.91192,-3.22661 24.5,-3.23414 15.90791,-0.0103 25.0345,1.82817 36.06284,7.26469 8.64933,4.26378 16.88401,11.54764 20.97886,18.55654 3.35544,5.7433 8.10842,20.55908 9.91035,30.8921 1.94339,11.14421 1.95972,21.52617 0.0524,33.28625 -1.44605,8.91593 -6.23357,25.93258 -7.06268,25.10346 -0.22666,-0.22666 0.25561,-4.20627 1.0717,-8.84359 2.78011,-15.79747 1.41197,-28.08349 -4.19219,-37.64628 -4.19507,-7.15834 -12.71824,-15.68601 -19.02926,-19.0393 -10.03423,-5.33159 -16.80663,-6.53951 -33.292,-5.93794 -14.13978,0.51597 -16.52229,0.94992 -35.35478,6.43944 -2.31578,0.67503 -1.97658,3.21334 2.80665,21.00277 1.88549,7.0124 5.08597,20.39982 7.11218,29.74982 2.02621,9.35 6.97253,30.5 10.99184,47 13.12131,53.86543 13.53738,70.92752 2.26062,92.70107 C 505.08917,623.91379 480.93099,637 453.421,637 c -13.10302,0 -18.89946,-1.21513 -29.15849,-6.11262 -20.75041,-9.90588 -32.63506,-30.01165 -29.33389,-49.62541 2.85454,-16.96012 15.37427,-31.8438 34.2903,-40.76491 9.78644,-4.61545 17.33229,-6.46392 29.28108,-7.17284 13.43653,-0.79719 22.60815,0.84479 32.57036,5.83104 7.01177,3.5095 11.08657,7.09375 15.64479,13.76141 2.77577,4.06031 -5.01521,-57.72177 -12.15855,-96.41667 -1.31993,-7.15 -3.3891,-19.3 -4.59815,-27 -1.20904,-7.7 -2.52382,-14.35701 -2.92172,-14.79337 -0.9703,-1.06406 -21.00647,6.75624 -34.03673,13.28484 -29.25741,14.65896 -50.99235,36.83438 -50.97545,52.00853 0.003,2.475 0.67685,7.34983 1.49798,10.83296 0.82113,3.48313 1.23797,6.74553 0.92632,7.2498 -0.88844,1.43752 -8.19815,-4.97909 -13.19489,-11.58276 -15.84393,-20.93924 -13.05557,-39.67611 9.23403,-62.04977 15.89762,-15.95757 36.5703,-30.16676 65.36967,-44.93128 5.11542,-2.62251 9.5606,-5.44535 9.87819,-6.27297 0.31759,-0.82761 -0.84527,-10.10903 -2.58413,-20.62537 -1.73885,-10.51633 -3.15934,-20.13311 -3.15664,-21.37061 0.003,-1.2375 -0.59492,-2.25 -1.32805,-2.25 -1.58803,0 -41.05922,25.48206 -55.21473,35.64586 -22.78131,16.35724 -46.28197,38.14446 -62.82092,58.24065 -13.2987,16.15901 -17.82326,23.01436 -23.0845,34.97623 -8.20481,18.65434 -9.65109,32.37302 -4.97381,47.17923 1.41519,4.47987 2.36064,8.35766 2.10099,8.6173 -0.92685,0.92686 -5.69877,-6.43515 -9.68545,-14.9425 -6.66203,-14.21641 -8.3318,-21.92565 -8.38578,-38.71677 -0.0412,-12.80176 0.27301,-15.65552 2.68247,-24.36616 3.46085,-12.51161 8.06754,-23.10319 14.18487,-32.61352 19.16019,-29.78744 45.37936,-52.80273 106.73543,-93.69279 C 448.72077,296.9883 458,290.22762 458,289.07702 458,283.57473 451.20403,250 450.0903,250 c -0.98472,0 -10.13372,9.70435 -21.25877,22.54918 -13.494,15.57998 -25.34063,26.46028 -33.39531,30.67124 C 383.2736,309.579 362,315.7059 362,312.85021 c 0,-0.64539 3.9375,-6.29569 8.75,-12.55623 C 385.04116,281.70273 395.8258,266.55141 395.33825,265.75 395.08729,265.3375 330.3382,265 251.45138,265 H 108.0208 l -0.2604,186.25 c -0.14322,102.4375 -0.10985,186.78619 0.0741,187.44153 0.184,0.65534 1.309,1.37426 2.5,1.5976 3.41044,0.63954 539.63921,0.66618 563.91545,0.028 z M 160.5,555.55095 c 6.96677,-5.91762 15.11984,-8.28711 32.89863,-9.56121 7.52029,-0.53893 12.17897,-1.30628 12.66047,-2.08537 0.71397,-1.15522 0.23899,-14.91216 -0.60954,-17.65437 -0.23099,-0.7465 -2.11133,-1.24752 -4.66818,-1.24384 -4.06696,0.006 -6.36618,0.81452 -11.56189,4.06648 -1.98934,1.24512 -2.40234,1.23584 -3.23469,-0.0726 -1.64753,-2.58999 -1.07312,-7.5756 1.2652,-10.98129 2.49055,-3.62742 6.93161,-6.28681 13.75,-8.23376 L 205.5,508.5 V 485 c 0,-22.29756 0.12292,-23.84065 2.40229,-30.15754 2.86801,-7.9482 8.89624,-15.392 14.54145,-17.95613 4.81617,-2.18757 12.34235,-2.42037 16.88507,-0.5223 8.58996,3.58911 12.78758,15.50176 8.4478,23.97444 -4.27471,8.34565 -16.12519,15.53858 -27.23694,16.5321 L 213.5,477.5 v 14.5 14.5 l 6.17059,0.5 c 4.71422,0.38199 6.77937,1.07218 8.75,2.92431 5.38184,5.05824 1.82844,9.90593 -9.02631,12.31405 L 213.5,523.546 v 8.977 8.977 l 3.25,0.31336 c 2.72972,0.26319 3.25,0.71925 3.25,2.84879 0,3.79953 -5.1949,8.00494 -12.84374,10.39734 -5.94936,1.86084 -8.67406,2.04926 -25.65626,1.77419 -10.45,-0.16926 -20.125,0.0462 -21.5,0.47887 -2.39351,0.75311 -2.37221,0.67808 0.5,-1.7616 z m 57.58613,-95.61228 c 3.78375,-2.69427 8.82895,-3.45183 13.25666,-1.99056 4.48662,1.48072 6.81254,0.35168 9.06826,-4.40191 2.24719,-4.7356 0.93915,-7.07468 -4.437,-7.93436 -4.23389,-0.67702 -10.44917,0.55162 -15.19537,3.00384 -3.35346,1.73263 -7.77868,8.05668 -7.77868,11.11645 0,2.81136 1.35095,2.86622 5.08613,0.20654 z M 475.59296,277.7396 c 11.50895,-8.8733 21.75506,-18.36747 21.05122,-19.50631 -0.33037,-0.53455 -4.77297,-1.27038 -9.87243,-1.63517 -5.09946,-0.36479 -12.57263,-1.13521 -16.60705,-1.71205 -4.03441,-0.57684 -7.59072,-0.79339 -7.90289,-0.48121 -1.0071,1.00709 3.00938,29.59577 4.15641,29.58474 0.59498,-0.006 4.72361,-2.81822 9.17474,-6.25 z M 454.18803,193.25 c 7.59582,-10.27401 16.14648,-24.56048 19.90061,-33.25 5.34639,-12.37505 7.35112,-22.28495 7.38378,-36.5 0.043,-18.70935 -2.55905,-22.10959 -11.64468,-15.21674 -2.38026,1.80579 -5.68373,5.29719 -7.34105,7.75865 -10.06811,14.95321 -17.77019,51.57893 -15.46178,73.52545 0.51675,4.91295 0.94755,9.04514 0.95732,9.18264 0.01,0.1375 0.45358,0.25 0.98623,0.25 0.53265,0 2.88145,-2.5875 5.21957,-5.75 z"
         id="path1513" />
      <path
         style="fill:#a7837b"
         d="m 95,696.03514 c -9.703154,-0.61089 -13.518918,-2.34822 -18.393977,-8.37487 L 73.5,683.82055 72.929684,660.16027 C 72.616009,647.14712 72.391009,547.4 72.429684,438.5 c 0.06769,-190.60026 0.139491,-198.13912 1.921271,-201.72263 1.043565,-2.09882 3.844611,-5.04318 6.421445,-6.75 L 85.342889,227 H 252.04644 c 91.68696,0 168.11069,-0.28143 169.83051,-0.62539 2.48886,-0.49777 4.65938,-2.64474 10.63647,-10.52106 l 7.50952,-9.89568 -1.50952,-11.51527 c -6.10515,-46.57272 -3.33847,-80.19028 9.02915,-109.712155 14.65818,-34.989511 42.18787,-20.486636 50.01964,26.350775 2.42712,14.51521 1.59701,35.84831 -1.90351,48.91878 -5.63281,21.03217 -12.59429,37.65325 -22.99953,54.91323 -3.11255,5.16301 -5.65917,9.72436 -5.65917,10.13634 0,1.16586 22.77212,2.16441 40.80923,1.78946 19.15373,-0.39816 16.6115,1.26326 26.22337,-17.13774 3.40988,-6.5279 6.57116,-11.49369 7.02507,-11.0351 0.75698,0.76481 2.72946,10.39249 4.6781,22.83381 l 0.78313,5 87.0641,0.5 87.0641,0.5 4.21549,2.79002 c 2.31852,1.53451 5.09624,4.23451 6.17271,6 1.92746,3.16116 1.95695,6.55611 1.939,223.20998 -0.0176,212.26133 -0.0836,220.1407 -1.87597,224 -2.48219,5.34454 -5.51773,8.35563 -10.76215,10.67549 -4.26227,1.88541 -10.74151,1.93047 -310.59463,2.16018 C 241.3087,696.4647 99.675,696.32946 95,696.03514 Z M 676.04589,684.7182 C 679.09673,682.31407 681,678.48941 681,674.76281 c 0,-4.64201 -4.90952,-10.48399 -9.5,-11.30432 -3.83545,-0.68541 -8.81236,2.31108 -11.06109,6.65965 -1.39671,2.70094 -1.47111,3.83102 -0.4718,7.16644 1.78072,5.94349 5.05638,8.72198 10.23744,8.68362 2.3625,-0.0175 4.9911,-0.58 5.84134,-1.25 z M 159.75,677.3413 c 1.67372,-1.8246 2.25,-3.67022 2.25,-7.20593 0,-8.25253 -0.6501,-8.58687 -17.42036,-8.95919 l -14.58584,-0.32383 -2.9969,2.9969 c -2.4345,2.4345 -2.9969,3.83503 -2.9969,7.46304 0,7.76664 1.48879,8.62415 15.5,8.92772 15.52719,0.33641 17.54771,0.0472 20.25,-2.89871 z m 46.8503,1.89339 c 3.4051,-2.27365 4.6445,-12.1475 1.98245,-15.79356 -1.26082,-1.72688 -2.92912,-1.97751 -15.11473,-2.27074 -7.53361,-0.18129 -14.80358,-0.052 -16.15548,0.2873 -1.68209,0.42218 -3.08494,2.03422 -4.44406,5.10672 -2.0443,4.62149 -1.88322,6.99628 0.7587,11.18559 1.37093,2.17389 1.93397,2.24948 16.64587,2.23469 8.37482,-0.008 15.72208,-0.34592 16.32725,-0.75 z M 674.25,640.31714 696,639.74539 V 452.36671 264.98803 l -79.70309,0.25598 -79.70308,0.25599 -5.04571,7.37258 c -8.30252,12.13129 -29.371,32.79602 -46.0858,45.2026 -4.97072,3.68953 -9.55447,7.33093 -10.18611,8.09201 -0.87844,1.05845 -0.36609,5.49204 2.17929,18.85829 1.83025,9.61099 3.63067,19.20881 4.00093,21.32851 0.78822,4.51239 -0.23319,4.53847 17.54357,-0.44781 10.25099,-2.87535 12.91192,-3.22661 24.5,-3.23414 15.90791,-0.0103 25.0345,1.82817 36.06284,7.26469 8.64933,4.26378 16.88401,11.54764 20.97886,18.55654 3.35544,5.7433 8.10842,20.55908 9.91035,30.8921 1.94339,11.14421 1.95972,21.52617 0.0524,33.28625 -1.44605,8.91593 -6.23357,25.93258 -7.06268,25.10346 -0.22666,-0.22666 0.25561,-4.20627 1.0717,-8.84359 2.78011,-15.79747 1.41197,-28.08349 -4.19219,-37.64628 -4.19507,-7.15834 -12.71824,-15.68601 -19.02926,-19.0393 -10.03423,-5.33159 -16.80663,-6.53951 -33.292,-5.93794 -14.13978,0.51597 -16.52229,0.94992 -35.35478,6.43944 -2.31578,0.67503 -1.97658,3.21334 2.80665,21.00277 1.88549,7.0124 5.08597,20.39982 7.11218,29.74982 2.02621,9.35 6.97253,30.5 10.99184,47 13.12131,53.86543 13.53738,70.92752 2.26062,92.70107 C 505.08917,623.91379 480.93099,637 453.421,637 c -13.10302,0 -18.89946,-1.21513 -29.15849,-6.11262 -20.75041,-9.90588 -32.63506,-30.01165 -29.33389,-49.62541 2.85454,-16.96012 15.37427,-31.8438 34.2903,-40.76491 9.78644,-4.61545 17.33229,-6.46392 29.28108,-7.17284 13.43653,-0.79719 22.60815,0.84479 32.57036,5.83104 7.01177,3.5095 11.08657,7.09375 15.64479,13.76141 2.77577,4.06031 -5.01521,-57.72177 -12.15855,-96.41667 -1.31993,-7.15 -3.3891,-19.3 -4.59815,-27 -1.20904,-7.7 -2.52382,-14.35701 -2.92172,-14.79337 -0.9703,-1.06406 -21.00647,6.75624 -34.03673,13.28484 -29.25741,14.65896 -50.99235,36.83438 -50.97545,52.00853 0.003,2.475 0.67685,7.34983 1.49798,10.83296 0.82113,3.48313 1.23797,6.74553 0.92632,7.2498 -0.88844,1.43752 -8.19815,-4.97909 -13.19489,-11.58276 -15.84393,-20.93924 -13.05557,-39.67611 9.23403,-62.04977 15.89762,-15.95757 36.5703,-30.16676 65.36967,-44.93128 5.11542,-2.62251 9.5606,-5.44535 9.87819,-6.27297 0.31759,-0.82761 -0.84527,-10.10903 -2.58413,-20.62537 -1.73885,-10.51633 -3.15934,-20.13311 -3.15664,-21.37061 0.003,-1.2375 -0.59492,-2.25 -1.32805,-2.25 -1.58803,0 -41.05922,25.48206 -55.21473,35.64586 -22.78131,16.35724 -46.28197,38.14446 -62.82092,58.24065 -13.2987,16.15901 -17.82326,23.01436 -23.0845,34.97623 -8.20481,18.65434 -9.65109,32.37302 -4.97381,47.17923 1.41519,4.47987 2.36064,8.35766 2.10099,8.6173 -0.92685,0.92686 -5.69877,-6.43515 -9.68545,-14.9425 -6.66203,-14.21641 -8.3318,-21.92565 -8.38578,-38.71677 -0.0412,-12.80176 0.27301,-15.65552 2.68247,-24.36616 3.46085,-12.51161 8.06754,-23.10319 14.18487,-32.61352 19.16019,-29.78744 45.37936,-52.80273 106.73543,-93.69279 C 448.72077,296.9883 458,290.22762 458,289.07702 458,283.57473 451.20403,250 450.0903,250 c -0.98472,0 -10.13372,9.70435 -21.25877,22.54918 -13.494,15.57998 -25.34063,26.46028 -33.39531,30.67124 C 383.2736,309.579 362,315.7059 362,312.85021 c 0,-0.64539 3.9375,-6.29569 8.75,-12.55623 C 385.04116,281.70273 395.8258,266.55141 395.33825,265.75 395.08729,265.3375 330.3382,265 251.45138,265 H 108.0208 l -0.2604,186.25 c -0.14322,102.4375 -0.10985,186.78619 0.0741,187.44153 0.184,0.65534 1.309,1.37426 2.5,1.5976 3.41044,0.63954 539.63921,0.66618 563.91545,0.028 z M 159.02006,556.47583 c 0.69572,-0.83829 1.47088,-1.31823 1.72258,-1.06653 0.69349,0.6935 -0.71555,2.5907 -1.9241,2.5907 -0.6631,0 -0.58723,-0.57378 0.20152,-1.52417 z m 14.79244,-0.15894 c 0.72187,-0.28887 1.58437,-0.25335 1.91667,0.0789 0.33229,0.33229 -0.25834,0.56864 -1.3125,0.52522 -1.16495,-0.048 -1.4019,-0.28494 -0.60417,-0.60416 z m 26,0 c 0.72187,-0.28887 1.58437,-0.25335 1.91667,0.0789 0.33229,0.33229 -0.25834,0.56864 -1.3125,0.52522 -1.16495,-0.048 -1.4019,-0.28494 -0.60417,-0.60416 z M 216,550.62244 c 0,-0.20765 0.7875,-0.99515 1.75,-1.75 1.58606,-1.24387 1.62143,-1.2085 0.37756,0.37756 C 216.82119,550.91575 216,551.44548 216,550.62244 Z m -30.41655,-22.26557 c -0.87515,-2.28062 -0.38251,-2.33684 1.66655,-0.1902 1.33274,1.3962 1.41786,1.83333 0.35699,1.83333 -0.76616,0 -1.67675,-0.73941 -2.02354,-1.64313 z M 215.75,476.33772 c 0.6875,-0.27741 1.8125,-0.27741 2.5,0 0.6875,0.27741 0.125,0.50439 -1.25,0.50439 -1.375,0 -1.9375,-0.22698 -1.25,-0.50439 z m -7.18571,-23.63085 c 0.37553,-0.98622 0.93469,-1.54122 1.24258,-1.23333 0.30789,0.30789 6.4e-4,1.11479 -0.68278,1.79313 -0.98762,0.98026 -1.10248,0.8654 -0.5598,-0.5598 z M 249.15789,452 c 0,-1.375 0.22698,-1.9375 0.50439,-1.25 0.27741,0.6875 0.27741,1.8125 0,2.5 -0.27741,0.6875 -0.50439,0.125 -0.50439,-1.25 z M 210,449.05902 c 0,-0.51754 0.44485,-1.21592 0.98855,-1.55194 0.56686,-0.35034 0.7345,0.0511 0.39301,0.94098 C 210.71677,450.18048 210,450.49745 210,449.05902 Z m 25.8125,-3.74213 c 0.72187,-0.28887 1.58437,-0.25335 1.91667,0.0789 0.33229,0.33229 -0.25834,0.56864 -1.3125,0.52522 -1.16495,-0.048 -1.4019,-0.28494 -0.60417,-0.60416 z M 475.59296,277.7396 c 11.50895,-8.8733 21.75506,-18.36747 21.05122,-19.50631 -0.33037,-0.53455 -4.77297,-1.27038 -9.87243,-1.63517 -5.09946,-0.36479 -12.57263,-1.13521 -16.60705,-1.71205 -4.03441,-0.57684 -7.59072,-0.79339 -7.90289,-0.48121 -1.0071,1.00709 3.00938,29.59577 4.15641,29.58474 0.59498,-0.006 4.72361,-2.81822 9.17474,-6.25 z M 454.18803,193.25 c 7.59582,-10.27401 16.14648,-24.56048 19.90061,-33.25 5.34639,-12.37505 7.35112,-22.28495 7.38378,-36.5 0.043,-18.70935 -2.55905,-22.10959 -11.64468,-15.21674 -2.38026,1.80579 -5.68373,5.29719 -7.34105,7.75865 -10.06811,14.95321 -17.77019,51.57893 -15.46178,73.52545 0.51675,4.91295 0.94755,9.04514 0.95732,9.18264 0.01,0.1375 0.45358,0.25 0.98623,0.25 0.53265,0 2.88145,-2.5875 5.21957,-5.75 z"
         id="path1512" />
      <path
         style="fill:#5c5c5b"
         d="m 84,693.64606 c -2.565264,-1.30976 -5.789824,-4.12928 -7.5,-6.55791 l -3,-4.2603 -0.252094,-221.16393 c -0.238284,-209.04904 -0.156118,-221.35175 1.5,-224.59282 0.963652,-1.88589 3.481323,-4.81089 5.594825,-6.5 L 84.185463,227.5 253.77349,227.2414 c 157.50199,-0.24017 169.72093,-0.37886 171.45279,-1.94618 1.02562,-0.92818 4.81931,-5.65574 8.43043,-10.50569 l 6.56567,-8.81811 -1.68817,-13.23571 c -6.011,-47.12781 -2.06123,-85.8014 11.53585,-112.951569 6.48197,-12.942971 17.13066,-17.213615 27.12205,-10.877264 15.02599,9.529203 24.788,45.379083 20.85825,76.599623 -2.60053,20.66032 -12.79342,47.92038 -26.23943,70.17524 -3.93463,6.5123 -5.23688,9.49231 -4.47919,10.25 0.70635,0.70635 10.46918,1.06826 28.81737,1.06826 h 27.74911 l 2.43465,-3.25 c 1.33906,-1.7875 5.00253,-8.08898 8.14106,-14.00329 3.13853,-5.91431 6.07441,-10.52585 6.52419,-10.24787 0.44978,0.27798 1.54578,4.89196 2.43555,10.25329 0.88977,5.36133 1.94369,11.32287 2.34205,13.24787 l 0.72428,3.5 86.5,0.5 86.5,0.5 4.84187,2.84599 c 3.45057,2.02821 5.38385,4.03964 6.72804,7 1.82952,4.02926 1.88683,10.69739 1.90813,222.03799 0.0164,162.51535 -0.27296,218.86834 -1.1386,221.75758 -1.73145,5.77906 -7.02971,11.39453 -12.51399,13.26322 -4.24722,1.44717 -33.73786,1.59261 -317.75359,1.56705 L 88.5,695.94366 Z M 678.44911,682.65561 C 684.47907,674.74993 679.08874,663 669.43201,663 665.87119,663 659,669.7956 659,673.31725 c 0,3.50688 1.72253,7.74432 4.24093,10.43275 1.66984,1.78258 3.20351,2.25 7.38249,2.25 4.80643,0 5.5013,-0.29696 7.82569,-3.34439 z M 160.09066,678.13922 C 161.4817,676.41928 162,674.19516 162,669.94592 162,661.43326 161.09095,661 143.22974,661 c -14.11278,0 -14.36069,0.0382 -16.71539,2.57902 -1.31458,1.41845 -2.66861,3.84684 -3.00895,5.3964 -0.81624,3.71629 1.77695,9.79342 4.70017,11.01486 1.26194,0.52728 8.52273,0.85768 16.13509,0.73421 13.20765,-0.21422 13.92798,-0.33246 15.75,-2.58527 z m 48.56532,-0.73692 c 0.99101,-1.51249 1.73173,-4.68209 1.77305,-7.58714 0.0584,-4.10429 -0.35338,-5.33326 -2.32103,-6.92757 -2.16732,-1.75609 -3.80119,-1.91229 -17.39372,-1.66287 -14.82998,0.27213 -15.02379,0.30489 -16.93123,2.86186 -3.04775,4.08558 -3.4018,9.87007 -0.80569,13.16342 l 2.1678,2.75 h 15.90437 15.90436 z m 486.14244,-37.27772 c 0.93982,-0.58084 1.2203,-42.52488 1.25505,-187.68629 L 696.09823,265.5 617.29911,264.98125 C 573.9596,264.69594 538.05,264.60287 537.5,264.77443 c -0.55,0.17156 -3.00375,3.33 -5.45277,7.01875 -6.43203,9.68801 -33.34881,36.24302 -46.79723,46.16825 -6.1875,4.56651 -11.25,8.86033 -11.25,9.54182 0,0.68148 1.31098,7.93454 2.91328,16.11791 1.6023,8.18336 3.22535,16.99605 3.60678,19.58374 0.38143,2.5877 1.22668,5.43407 1.87835,6.32528 1.07925,1.47596 1.53762,1.48298 5.14322,0.0787 24.27503,-9.45425 52.76193,-9.19693 72.41671,0.65414 15.95496,7.9967 23.86698,20.19147 29.67435,45.73695 3.19385,14.04915 1.6804,40.89277 -2.94475,52.23018 -0.99455,2.43791 -1.18794,0.49151 -1.18794,-11.95641 V 441.4054 l -3.858,-7.81072 C 574.82661,419.79663 563.32586,410.66259 548,406.87579 c -11.96541,-2.95647 -32.99147,-1.21091 -50.48027,4.19083 -7.72499,2.38601 -7.67515,2.18741 -4.01133,15.98618 1.37962,5.19596 4.80577,19.5722 7.61368,31.9472 2.80791,12.375 8.19122,35.1 11.96291,50.5 8.19093,33.44396 10.18257,45.21216 10.23897,60.5 0.05,13.54298 -1.61707,21.07999 -7.06701,31.95142 -10.27054,20.48748 -31.95737,33.19532 -59.25695,34.72279 -22.34729,1.25038 -41.47308,-6.88671 -53.36251,-22.70315 -6.53709,-8.69625 -9.06172,-17.39605 -8.40265,-28.95521 0.81078,-14.21976 7.12356,-25.40097 20.10989,-35.61865 20.27657,-15.95367 49.68651,-20.70852 72.42508,-11.70932 5.30114,2.09802 8.18167,4.12977 13.56602,9.56869 3.75971,3.7978 7.01115,6.72979 7.22541,6.51552 0.21427,-0.21426 -0.25558,-4.63814 -1.04411,-9.83083 -0.78853,-5.19269 -2.58004,-18.89542 -3.98114,-30.45051 -1.40109,-11.55508 -3.63197,-27.30508 -4.9575,-35 -1.32553,-7.69491 -3.58093,-20.96575 -5.012,-29.49075 -4.42823,-26.37941 -5.798,-33.46711 -6.6484,-34.40118 -2.31443,-2.54216 -41.55915,15.80385 -55.84163,26.10471 -10.54679,7.60658 -22.48057,20.45294 -26.50814,28.53522 -3.02004,6.06042 -3.39675,14.08641 -1.06832,22.76125 0.81194,3.025 1.4816,5.6125 1.48813,5.75 0.007,0.1375 -0.62099,0.25 -1.3945,0.25 -2.65487,0 -14.5122,-14.05629 -18.26825,-21.65614 -3.21409,-6.50327 -3.64418,-8.25176 -3.59509,-14.61543 0.0674,-8.73181 2.73849,-16.95421 8.0292,-24.71593 5.30451,-7.78198 18.59574,-20.59595 30.98972,-29.87697 10.39014,-7.78047 35.13528,-22.70947 48.47042,-29.24271 3.69579,-1.81067 6.9229,-3.82188 7.17136,-4.46935 0.24846,-0.64747 0.0918,-2.92012 -0.34816,-5.05034 -0.43994,-2.13022 -2.06148,-11.97313 -3.60341,-21.87313 -1.54194,-9.9 -2.92738,-18.16829 -3.07877,-18.37397 -0.37471,-0.50909 -3.61681,1.49163 -27.36065,16.88447 -25.77147,16.70733 -42.53652,29.26968 -61,45.7084 -15.25421,13.58138 -19.45255,18.07262 -35.22634,37.68387 -21.90819,27.23803 -30.6339,54.83161 -23.90555,75.59723 2.87837,8.8835 2.66536,10.11941 -0.90692,5.26186 -3.81852,-5.19237 -10.48215,-21.02154 -12.37619,-29.39907 -6.36397,-28.14856 1.42946,-59.11646 21.65084,-86.03155 20.22763,-26.92342 43.833,-46.76802 100.33165,-84.34696 14.81288,-9.85249 27.12971,-18.05171 27.37073,-18.2205 0.59377,-0.41581 -1.68649,-16.49773 -4.07843,-28.76378 -2.29874,-11.7881 -2.7676,-13.50683 -3.67718,-13.47945 -0.37543,0.0113 -4.50761,4.35624 -9.18261,9.6554 -30.76292,34.8701 -38.55424,41.87295 -53.24967,47.86089 C 375.65813,311.46405 362,314.61935 362,312.48568 c 0,-0.28288 3.24542,-4.67038 7.21204,-9.75 C 380.08355,288.81371 396,266.92757 396,265.90052 c 0,-0.54001 -58.39202,-0.80471 -144.25,-0.6539 L 107.5,265.5 107.24736,451.89436 c -0.18361,135.46798 0.0507,186.75986 0.85761,187.73212 0.92256,1.11162 50.50267,1.33001 293.2967,1.29193 160.70255,-0.0252 292.73109,-0.38242 293.39675,-0.79383 z M 473,280.16941 c 13.43483,-10.20613 24,-19.83884 24,-21.88182 C 497,257.57942 496.16304,257 495.1401,257 c -1.02295,0 -8.74908,-0.69087 -17.16918,-1.53528 -10.46204,-1.04917 -15.51234,-1.20672 -15.95062,-0.49757 -0.59816,0.96784 2.41802,25.94836 3.48293,28.84623 0.54553,1.4845 1.10188,1.21407 7.49677,-3.64397 z m -15.39258,-91.42808 c 17.12076,-24.66991 22.64822,-38.41564 24.04632,-59.79851 0.75572,-11.55823 -0.18664,-20.14441 -2.52832,-23.03626 l -1.73715,-2.14529 -3.94413,2.03463 c -2.16928,1.11905 -5.60434,3.76026 -7.63346,5.86937 C 455.09671,122.80152 446.73239,152.56373 446.606,180 c -0.0652,14.16091 0.61413,19.00576 2.66305,18.99133 0.67702,-0.005 4.42929,-4.61726 8.33837,-10.25 z"
         id="path1511" />
      <path
         style="fill:#2d2c2c"
         d="m 100.91005,695 c -13.911972,-0.47677 -14.775062,-0.62843 -18.573583,-3.26374 -2.190999,-1.52006 -4.985313,-4.546 -6.209587,-6.7243 l -2.225952,-3.96054 -0.200464,-220.27571 c -0.19093,-209.79949 -0.115528,-220.43122 1.585412,-223.54543 0.982231,-1.79834 3.637248,-4.61084 5.900038,-6.25 L 85.300077,228 253.40004,227.98635 c 92.45498,-0.008 169.04143,-0.26642 170.19211,-0.57536 1.15069,-0.30893 5.57097,-5.23874 9.82285,-10.95512 l 7.73069,-10.39342 -1.60017,-12.28123 c -4.44513,-34.11607 -4.17486,-58.65394 0.9048,-82.14844 2.70679,-12.519441 8.38894,-28.833789 12.07785,-34.677404 4.8735,-7.720123 12.37459,-11.64935 18.83423,-9.865758 5.35805,1.479429 11.3351,6.45292 14.59694,12.146087 C 493.53852,92.464285 498,111.47622 498,130.54523 c 0,25.52749 -9.19308,55.21721 -25.59749,82.66898 C 468.88113,219.10702 466,224.55836 466,225.32828 466,227.46513 472.66091,228 499.27149,228 h 23.99236 l 3.11807,-3.36197 c 1.71495,-1.84909 5.35108,-7.81159 8.08031,-13.25 2.72922,-5.43842 5.11619,-10.1 5.30437,-10.35907 1.14881,-1.5816 3.11846,6.94666 4.78564,20.72104 0.34949,2.8875 0.70571,5.35398 0.7916,5.48107 0.0859,0.1271 39.5644,0.4646 87.73003,0.75 l 87.57387,0.51893 3.42613,2.355 c 1.88437,1.29525 4.32613,3.54525 5.42613,5 1.98405,2.6239 2.00205,4.39475 2.25668,222.01335 0.17566,150.13281 -0.073,220.59274 -0.78795,223.24778 -1.4183,5.26718 -7.45158,11.41455 -12.46873,12.70454 -4.13565,1.06334 -588.41778,2.17907 -617.58995,1.17933 z m 577.72187,-11.5712 c 2.71932,-2.88332 3.36736,-4.37612 3.36434,-7.75 C 681.98972,668.36698 676.19763,662 669.55254,662 c -3.54319,0 -10.33853,6.34231 -11.09061,10.35122 -0.73456,3.91557 0.83979,8.28345 4.28878,11.89878 2.17085,2.27554 3.4766,2.75 7.5683,2.75 4.37461,0 5.33324,-0.41183 8.31291,-3.5712 z M 160.6553,678.61435 C 162.53919,676.4242 163,674.7345 163,670.01682 c 0,-5.15218 -0.32286,-6.12562 -2.63486,-7.94424 C 157.9995,660.21177 156.37134,660 144.43024,660 c -7.31502,0 -14.37569,0.40896 -15.69038,0.9088 -5.65598,2.15041 -7.92349,11.67905 -4.02641,16.92007 2.3653,3.181 7.15055,3.94033 23.19185,3.68014 9.99338,-0.1621 10.49812,-0.27669 12.75,-2.89466 z m 48.60216,-0.7554 c 1.33817,-1.79367 1.99574,-4.32376 2.04947,-7.88559 0.0684,-4.53177 -0.29446,-5.56588 -2.66967,-7.60895 C 206.0242,660.11675 205.18189,660 191.57909,660 c -16.38909,0 -18.66342,0.88573 -20.58344,8.01615 -1.24119,4.60943 -0.57635,7.98342 2.14971,10.9095 1.88068,2.01867 2.77062,2.10978 18.05995,1.84883 16.08137,-0.27447 16.08185,-0.27455 18.05215,-2.91553 z m 487.15987,-36.94286 c 0.57738,-0.57747 0.90656,-375.92553 0.33019,-376.5019 -0.16427,-0.16428 -36.27006,-0.38028 -80.23508,-0.48 l -79.93639,-0.18133 -1.53803,2.35835 c -9.88953,15.16424 -31.5421,37.2072 -50.28802,51.1947 -6.4625,4.82207 -11.75,9.17832 -11.75,9.68056 0,0.50223 1.575,9.05832 3.5,19.01353 1.925,9.95521 3.5,18.92794 3.5,19.93941 0,1.01146 0.7875,2.76267 1.75,3.89157 l 1.75,2.05254 8.60017,-2.92437 c 4.73009,-1.60841 13.28009,-3.67531 19,-4.59312 23.96762,-3.84583 50.60864,3.51281 63.1205,17.4348 11.58754,12.8935 18.99596,44.03891 15.81151,66.4725 C 589.35086,453.073 588.45421,457 588.0396,457 c -0.4146,0 -0.99999,-3.59166 -1.30088,-7.98146 -1.36112,-19.85839 -16.75495,-37.14883 -38.01405,-42.69758 -12.49857,-3.2622 -34.04778,-1.61172 -51.22467,3.92336 -5.59668,1.80347 -7.06277,2.69687 -7.31309,4.4564 -0.1722,1.21039 1.33432,8.40963 3.34782,15.9983 3.78514,14.26579 5.66681,22.29446 10.0312,42.80098 1.40468,6.6 5.44362,23.475 8.97544,37.5 12.7101,50.4724 13.41183,69.04114 3.39227,89.76487 -8.13333,16.8224 -22.16937,27.4362 -43.31186,32.75164 -27.31549,6.8674 -53.31811,-0.47629 -67.70199,-19.12048 -8.30846,-10.76931 -11.19099,-26.30053 -7.32444,-39.46453 4.9051,-16.69988 23.68536,-32.74779 44.90465,-38.37146 8.49092,-2.25032 23.60611,-3.03007 32.31378,-1.66699 12.96593,2.02965 24.86248,8.99295 30.24594,17.70359 2.02201,3.27167 4.94028,4.61685 4.94028,2.27723 0,-0.61938 -0.66157,-5.23188 -1.47016,-10.25 -0.80859,-5.01813 -2.61988,-18.64787 -4.02508,-30.28832 -1.4052,-11.64045 -3.88927,-28.96545 -5.52016,-38.5 -1.63088,-9.53455 -4.62894,-27.39454 -6.66234,-39.68886 -2.4214,-14.6402 -4.14837,-22.52647 -5.00493,-22.85516 -1.58704,-0.60901 -17.01199,5.27408 -31.31733,11.94445 -25.93017,12.09086 -48.94111,32.62353 -53.992,48.17708 -1.19344,3.67505 -1.02141,9.90252 0.56871,20.58694 l 0.52089,3.5 -6.892,-7.26116 c -23.16339,-24.4041 -17.53652,-48.14605 18.2944,-77.19113 13.78348,-11.1731 33.47179,-23.48505 54.25,-33.92489 9.89432,-4.97132 9.52346,-2.94941 5.25,-28.62282 -1.6479,-9.9 -2.99704,-18.98594 -2.99809,-20.19098 -0.003,-3.34152 -1.66708,-3.67707 -5.77015,-1.16342 -11.18677,6.8533 -51.0166,33.54627 -58.89097,39.46728 -34.34711,25.82677 -65.32939,59.46073 -77.27354,83.88712 -3.2273,6.6 -6.81269,15.49252 -7.96753,19.76116 -2.52483,9.33249 -2.80209,23.10569 -0.61054,30.32991 1.78864,5.8961 1.7698,5.68702 0.43823,4.86407 -2.98312,-1.84367 -11.21337,-23.84872 -12.88678,-34.45514 -3.57281,-22.64527 3.43814,-50.46349 18.27198,-72.5 18.92117,-28.10846 44.28245,-49.99974 104.68739,-90.36375 15.125,-10.10689 27.65023,-19.02177 27.83385,-19.81086 0.83315,-3.5804 -6.26933,-40.85846 -7.98688,-41.91997 -0.99004,-0.61187 -9.92285,8.57217 -19.54489,20.09458 -2.75574,3.3 -10.36355,11.45978 -16.90626,18.13285 -10.94023,11.15823 -12.6608,12.49842 -21.41882,16.68359 -12.39408,5.92273 -28.977,10.54954 -28.977,8.0849 0,-0.32926 3.6614,-5.34158 8.13644,-11.13849 C 385.00225,283.59666 397,266.72785 397,265.30472 397,264.23776 370.57682,264 252,264 c -79.75,0 -145.03019,0.3375 -145.06708,0.75 -0.0369,0.4125 -0.16901,85.06136 -0.29358,188.10858 l -0.2265,187.35859 2.04358,0.81118 c 2.29714,0.91184 587.04859,0.80018 587.96091,-0.11226 z M 476.3871,278.57252 c 11.04865,-8.43005 22.60486,-19.42989 22.01836,-20.95829 -0.5075,-1.32253 -36.0658,-5.28722 -37.20475,-4.14827 -0.92945,0.92945 2.98742,30.9857 4.13343,31.71806 1.30293,0.83263 1.27307,0.8505 11.05296,-6.6115 z m -20.15139,-86.37739 c 8.82422,-12.32956 16.28027,-25.2374 20.11613,-34.82482 7.39896,-18.4931 8.91472,-46.5482 2.84295,-52.61996 l -2.03439,-2.03439 -4.39885,2.57789 c -8.60455,5.0426 -13.79492,12.49324 -19.1383,27.47248 -5.81508,16.3016 -9.37711,42.87888 -7.70801,57.51161 0.55069,4.82787 1.25946,9.19572 1.57504,9.70633 1.10351,1.78552 3.28073,-0.15362 8.74543,-7.78914 z"
         id="path1510" />
      <path
         style="fill:#191818"
         d="m 94,694.23563 c -7.004512,-0.77054 -9.337802,-1.59333 -12.572464,-4.4334 -1.941336,-1.70451 -4.294215,-4.49482 -5.228619,-6.20067 C 74.614908,680.70978 74.5,665.62008 74.5,460.5 c 0,-206.90967 0.10323,-220.18869 1.734911,-223.17116 0.954201,-1.74414 3.204201,-4.21914 5,-5.5 L 84.5,229.5 254.59647,229 c 144.21535,-0.42392 170.35444,-0.71412 171.79194,-1.90726 0.93251,-0.77399 4.2641,-4.98235 7.40353,-9.35191 3.13943,-4.36956 6.25196,-8.68811 6.91672,-9.59678 0.95593,-1.30666 0.76815,-5.20596 -0.89801,-18.64809 -3.03829,-24.51196 -3.04719,-54.6509 -0.0209,-70.68821 3.5844,-18.994891 9.9223,-36.808254 15.87111,-44.607547 3.74611,-4.911407 10.20349,-7.588764 15.07754,-6.25145 7.79119,2.137702 12.26465,6.80144 17.79435,18.551247 5.73188,12.179373 7.56547,21.05269 8.16236,39.5 0.41969,12.97113 0.17662,18.39842 -1.13657,25.37648 -3.98784,21.19083 -12.98613,43.92868 -25.32705,63.99914 -3.33977,5.4316 -5.85016,10.45457 -5.57862,11.16217 0.71212,1.85576 15.02397,2.68213 39.69372,2.29194 L 525.1932,228.5 l 2.26643,-2.84465 c 1.24653,-1.56455 4.67921,-7.60422 7.62817,-13.42147 l 5.36176,-10.57683 1.1926,5.92147 c 0.65594,3.25682 1.50137,8.96808 1.87874,12.6917 0.51421,5.07385 1.14485,7.01572 2.51687,7.75 1.15416,0.61769 33.2798,0.97978 86.9286,0.97978 93.067,0 88.68374,-0.27554 94.53362,5.94246 l 3,3.18877 0.29339,219.68439 c 0.20552,153.89195 -0.0271,220.79396 -0.77664,223.38931 -1.49623,5.18064 -5.33748,9.37437 -10.29519,11.23991 -3.81873,1.43695 -33.75476,1.6113 -313.72156,1.82717 -170.225,0.13125 -310.625,0.11488 -312,-0.0364 z m 583.66385,-7.95477 c 3.46787,-2.24046 5.63999,-7.89283 5.04878,-13.13808 -0.82038,-7.27838 -8.67125,-13.37392 -15.13556,-11.75148 -3.94374,0.98982 -8.4571,5.47623 -9.70744,9.64948 -2.03094,6.77869 2.25379,15.02841 8.77292,16.89121 3.40476,0.97289 8.03297,0.27952 11.0213,-1.65113 z M 159.28699,681.44588 C 162.10705,680.35976 164,675.58172 164,669.54966 c 0,-9.54443 -3.5896,-11.06424 -24.56007,-10.39855 l -11.6219,0.36893 -2.90901,3.25576 C 122.60347,665.35615 122,666.9721 122,670.56544 c 0,5.53674 2.27124,10.23604 5.26819,10.90013 6.0038,1.33037 28.5494,1.31651 32.0188,-0.0197 z m 48.16821,-0.0671 c 4.29522,-1.64823 6.40751,-13.88703 3.23295,-18.73201 -1.20526,-1.83946 -2.70668,-2.46545 -6.86539,-2.86237 -7.02488,-0.67048 -25.74809,-0.27721 -28.47626,0.59813 -5.04996,1.62028 -7.18655,14.00847 -3.27392,18.98257 L 174.14516,682 h 15.84563 c 8.7151,0 16.57408,-0.27953 17.46441,-0.62118 z m 489.48468,-39.91865 c 1.23287,-1.23293 1.56142,-376.36077 0.3307,-377.58641 -0.55648,-0.5542 -145.69614,-1.40157 -159.43734,-0.93086 -0.91671,0.0314 -4.11326,3.5446 -7.10344,7.8071 -9.92168,14.14335 -29.72743,33.57269 -47.09453,46.19952 -4.4744,3.25313 -9.00446,6.702 -10.0668,7.66416 -1.06234,0.96216 -2.86234,1.80604 -4,1.87529 -1.13766,0.0693 -7.91847,3.95351 -15.06847,8.63168 -7.15,4.67817 -16.5063,10.72732 -20.79177,13.44255 -45.66682,28.9341 -90.1306,72.47803 -105.11129,102.9368 -8.27461,16.82397 -10.07953,23.63099 -10.08901,38.04955 l -0.008,12.04954 -1.85531,-4.04954 C 307.421,477.41723 305.69836,456.5159 311.4895,435 321.8527,396.49747 352.6671,363.72979 422.5,316.95271 c 11,-7.36828 23.9375,-16.04293 28.75,-19.27702 4.8125,-3.23408 8.75,-6.42989 8.75,-7.10179 0,-4.75271 -6.42708,-40.83789 -7.6163,-42.76208 -1.20524,-1.95012 -4.32379,-0.50577 -6.8837,3.18818 -1.5246,2.2 -3.07048,4 -3.43529,4 -0.36481,0 -3.3411,3.25328 -6.614,7.22952 -8.56614,10.40699 -27.85331,30.53394 -33.09606,34.53707 -5.98271,4.56814 -17.72262,9.89783 -27.06615,12.2875 -10.76315,2.75275 -11.03671,2.63671 -6.6106,-2.80409 4.16063,-5.11447 14.35658,-18.67838 24.12053,-32.08811 3.37027,-4.6287 5.83015,-8.96622 5.52939,-9.75 C 397.86467,263.20496 376.6068,263 251.89301,263 H 106 l -0.004,174.75 c -0.002,96.1125 -0.29561,181.13186 -0.65245,188.9319 l -0.6488,14.18191 3.40246,0.94723 c 4.9195,1.36957 587.46908,1.02245 588.84233,-0.35087 z M 437,633.69042 c -7.48218,-1.72247 -19.61556,-7.84727 -24.61205,-12.42391 C 401.03402,610.86666 396.53,600.29178 397.17484,585.548 c 0.34579,-7.90623 0.86923,-10.19522 3.59981,-15.74181 10.31181,-20.94627 35.31017,-34.8468 62.56332,-34.78883 18.02739,0.0383 30.99957,5.31551 38.66203,15.72794 3.24827,4.41404 5.16226,6.13443 6.88084,6.18485 2.20367,0.0647 2.33418,-0.20922 1.75376,-3.68015 -0.98703,-5.90251 -4.42835,-32.73763 -5.61047,-43.75 -0.5904,-5.5 -3.32643,-23.44842 -6.08007,-39.88538 -2.75365,-16.43696 -4.85056,-30.04145 -4.65981,-30.2322 0.42428,-0.42429 7.01012,26.56201 9.66842,39.61758 1.06388,5.225 4.69108,20.075 8.06043,33 12.32262,47.27015 13.07222,67.49617 3.26137,88 -7.80111,16.30363 -21.48686,27.2158 -40.77447,32.51101 -7.93627,2.17882 -30.12701,2.87674 -37.5,1.17941 z M 397.36174,490.77045 c -15.40444,-16.73598 -17.99969,-31.56795 -8.60277,-49.16527 3.4689,-6.4961 20.9061,-23.89053 33.29507,-33.21339 10.30885,-7.75755 34.63043,-22.37632 47.69596,-28.66822 8.09559,-3.89855 8.24967,-4.04076 8.23254,-7.59824 -0.01,-1.99393 -0.68289,-7.67533 -1.49619,-12.62533 -1.55336,-9.45419 -1.84275,-13.18973 -0.95285,-12.29983 0.29343,0.29343 1.40779,5.62922 2.47636,11.85731 1.06857,6.2281 2.54984,11.93079 3.29171,12.67266 1.1318,1.13181 2.79127,0.8656 10.31274,-1.65432 13.33262,-4.46684 26.09312,-6.42853 36.88569,-5.67048 23.80812,1.67222 40.30948,9.43068 49.00426,23.04039 9.07496,14.2048 14.78288,44.15565 11.63547,61.05427 l -0.74501,4 -0.74301,-5.33451 c -2.13556,-15.33231 -11.91332,-29.38495 -25.34578,-36.42705 -9.67927,-5.07445 -17.4807,-6.83432 -30.12364,-6.79541 -12.63016,0.0389 -18.65276,0.94835 -34.13857,5.15524 -36.73835,9.98036 -65.44577,24.92414 -82.39479,42.891 -13.46041,14.26875 -16.83963,22.24554 -14.73359,34.77929 0.68436,4.07283 1.04917,7.60027 0.81069,7.83875 -0.23848,0.23848 -2.20241,-1.48811 -4.36429,-3.83686 z M 474.15789,344 c 0,-1.375 0.22698,-1.9375 0.50439,-1.25 0.27741,0.6875 0.27741,1.8125 0,2.5 -0.27741,0.6875 -0.50439,0.125 -0.50439,-1.25 z m -2.07894,-10.58333 c 0.048,-1.16495 0.28494,-1.4019 0.60416,-0.60417 0.28887,0.72187 0.25335,1.58438 -0.0789,1.91667 -0.33229,0.33229 -0.56864,-0.25834 -0.52522,-1.3125 z m 2.49394,-52.25079 c 8.31756,-6.12149 23.33587,-19.36882 24.76079,-21.84097 1.95737,-3.39591 0.0446,-3.98053 -18.84233,-5.75901 -13.64557,-1.28492 -18.99513,-1.46212 -19.80137,-0.65588 -0.80623,0.80623 -0.64232,4.27708 0.60671,12.84733 0.94127,6.45846 1.70957,13.34015 1.70735,15.29265 -0.004,3.20776 1.38768,5.95 3.01885,5.95 0.34259,0 4.19009,-2.62536 8.55,-5.83412 z M 451.66235,199.75 c 1.10603,-1.2375 4.47389,-5.85 7.48412,-10.25 18.59331,-27.17748 24.37104,-43.12032 24.28097,-67 -0.0498,-13.19796 -1.3142,-18.56901 -4.6564,-19.77975 -1.74959,-0.63381 -7.07731,1.64884 -11.21564,4.80529 -13.11392,10.00248 -23.34126,45.5209 -22.33347,77.56167 0.25235,8.02296 0.7822,15.11046 1.17746,15.75 1.10636,1.79013 3.05018,1.38858 5.26296,-1.08721 z"
         id="path1509" />
    </g>
  </g>
</svg>
