<?xml version="1.0" encoding="UTF-8" standalone="no"?>
<!-- Created with Inkscape (http://www.inkscape.org/) -->

<svg
   version="1.1"
   id="svg1"
   width="512"
   height="512"
   viewBox="0 0 512 512"
   sodipodi:docname="io.poly000.waylyrics.svg"
   inkscape:version="1.3 (0e150ed6c4, 2023-07-21)"
   xmlns:inkscape="http://www.inkscape.org/namespaces/inkscape"
   xmlns:sodipodi="http://sodipodi.sourceforge.net/DTD/sodipodi-0.dtd"
   xmlns="http://www.w3.org/2000/svg"
   xmlns:svg="http://www.w3.org/2000/svg">
  <sodipodi:namedview
     id="namedview1"
     pagecolor="#ffffff"
     bordercolor="#000000"
     borderopacity="0.25"
     inkscape:showpageshadow="2"
     inkscape:pageopacity="0.0"
     inkscape:pagecheckerboard="0"
     inkscape:deskcolor="#d1d1d1"
     inkscape:zoom="0.70710678"
     inkscape:cx="216.37468"
     inkscape:cy="379.00924"
     inkscape:window-width="1549"
     inkscape:window-height="1080"
     inkscape:window-x="0"
     inkscape:window-y="0"
     inkscape:window-maximized="0"
     inkscape:current-layer="svg1" />
  <defs
     id="defs1" />
  <g
     id="g1">
    <g
       id="g2"
       style="display:inline">

      <!-- white background -->
      <!-- https://stackoverflow.com/questions/71635155/svg-fill-path-only-applies-to-border-how-can-i-fill-inside-shape -->
      <path
         style="display:inline;fill:#ffffff;opacity:1"
         d="m 190,503.56903 c -10.34612,-2.87884 -19.94729,-10.13669 -26.10627,-19.73463 -1.75367,-2.73286 -4.80966,-9.77509 -6.79111,-15.64942 L 153.5,457.5044 134,457.44384 c -18.02197,-0.056 -20.278,-0.26933 -29.76439,-2.81485 -18.383035,-4.9328 -31.661308,-11.49924 -45.447867,-22.4751 -26.25589,-20.90303 -44.380729,-52.14715 -53.2792815,-91.84435 -1.3796538,-6.15476 -2.5153522,-12.67976 -2.5237743,-14.5 -0.00998,-2.15607 -0.3059851,-2.85116 -0.8493075,-1.99435 C 0.95593606,325.67515 0.01421809,314.21415 0.01421809,298 c 0,-15.35706 0.94703284,-27.68073 1.99666071,-25.9824 0.3902217,0.63139 1.0186521,-1.18256 1.3965121,-4.03101 2.3591557,-17.78419 11.9904681,-46.34885 22.1758301,-65.76935 9.573447,-18.25375 44.122282,-71.45408 47.617939,-73.3249 1.628351,-0.87146 2.587108,-0.70385 4.673718,0.81707 5.873206,4.28097 17.230925,24.18556 24.131352,42.29059 3.50957,9.20823 5.30691,11.22871 7.1165,8 0.46239,-0.825 4.48523,-9.06644 8.93965,-18.31432 l 8.09895,-16.81432 -4.02018,-9.18568 c -15.99689,-36.551152 -16.64239,-79.296615 -1.7175,-113.733459 3.95848,-9.133569 5.89608,-11.9825983 9.43863,-13.878517 3.20574,-1.7156571 6.06896,-0.4996862 17.73735,7.532813 26.98824,18.57865 43.74938,31.865163 60.0462,47.598474 C 213.22603,68.592246 218.27188,73 218.85881,73 c 0.58693,0 3.4395,-0.935091 6.33903,-2.077981 12.89497,-5.082722 36.59389,-9.92346 55.80216,-11.398139 19.00291,-1.458912 48.90413,3.084707 71.85826,10.919171 5.74834,1.961965 7.80106,2.274457 9.38217,1.428274 1.11316,-0.595742 6.74367,-5.53259 12.51226,-10.970772 5.76858,-5.438182 15.85645,-14.053017 22.41749,-19.144078 16.6467,-12.917065 45.5795,-32.4953327 50.11515,-33.9119499 3.33487,-1.0415775 4.10366,-0.9446066 6.46027,0.8148627 7.13853,5.3296802 16.09635,32.5794862 18.27428,55.5906122 2.05307,21.691934 -3.25739,50.35921 -13.00955,70.22896 l -5.14272,10.47813 8.44585,19.27145 c 4.64522,10.59931 10.80658,25.12146 13.69192,32.27146 7.81386,19.36307 13.96571,30.70956 23.58486,43.5 4.75677,6.325 8.86707,12.05992 9.134,12.74426 0.26693,0.68434 0.87498,1.00343 1.35123,0.7091 1.24945,-0.7722 2.25638,4.08831 1.48427,7.16464 -0.36139,1.4399 -0.92004,2.35503 -1.24145,2.03362 -0.32141,-0.3214 -1.95019,1.313 -3.61951,3.632 -4.33532,6.02261 -24.6038,25.81779 -36.05838,35.21638 -11.96613,9.81832 -29.7067,22.32111 -43.50261,30.65877 -5.69921,3.44436 -10.60709,6.90064 -10.9064,7.68061 -0.2993,0.77998 0.86364,7.3227 2.58433,14.53938 6.34751,26.62191 7.57775,36.81321 7.61964,63.12124 0.0631,39.63249 -5.27206,61.05098 -18.50293,74.28186 -20.48219,20.48219 -52.56221,16.65809 -71.57306,-8.53186 -3.00937,-3.9875 -5.78383,-7.24879 -6.16547,-7.24731 -0.38165,0.001 -6.03415,1.35268 -12.56113,3.00267 -20.57715,5.20179 -39.91384,5.00633 -60.78291,-0.6144 l -9.34986,-2.51822 -1.97985,2.81363 c -4.55446,6.47249 -17.22587,18.04623 -22.65111,20.68894 -11.19943,5.45539 -22.94776,6.95434 -32.86904,4.19372 z"
         id="path0"
         inkscape:label="path0" />
       
      <!-- pink fox -->
      <path
         style="display:inline;fill:#fa96ad;opacity:1"
         d="m 189,506.11317 c -7.07538,-2.31571 -14.9923,-7.41549 -20.61243,-13.27776 -6.98519,-7.28614 -9.48454,-11.68307 -13.81886,-24.31061 l -3.08068,-8.97521 -15.99402,0.28025 C 111.58455,460.2488 98.999828,457.56128 79.09692,447.786 65.972394,441.33992 56.067029,433.88137 44,421.35871 32.039439,408.94653 25.607648,399.57018 17.533895,382.77608 7.0697743,361.0098 3.0933467,346.58046 1.0608473,323 -1.1359347,297.51358 0.24122358,269.17223 4.594835,250.27198 8.7403062,232.27532 18.609534,208.71449 30.5334,188.34877 38.93471,173.99951 65.851653,133.04406 69.374582,129.25 c 6.346555,-6.83499 11.712862,-3.27709 21.770019,14.4337 5.748982,10.12404 13.276039,26.15975 14.421539,30.72379 C 105.92401,175.83337 106.63781,177 107.15235,177 108.16163,177 123,146.56966 123,144.49983 c 0,-0.68758 -1.53686,-4.62255 -3.41524,-8.74439 -12.64232,-27.74174 -15.79509,-64.959263 -8.07943,-95.375274 3.04587,-12.0072 9.86762,-27.572897 14.00789,-31.9628613 3.45545,-3.6638424 7.57223,-4.4654999 11.80252,-2.2982953 7.47558,3.8297855 44.78731,31.0008936 56.34682,41.0328136 3.3894,2.941497 10.48728,9.350619 15.77306,14.242493 l 9.6105,8.894315 11.22694,-3.632494 c 38.71268,-12.525553 80.28314,-12.536215 118.97649,-0.03051 6.4336,2.079342 11.30943,3.153081 12.14401,2.674317 C 362.1605,68.859973 368.12321,63.671405 374.644,57.76979 390.08716,43.793042 404.75645,32.411092 424.5,19.086376 443.40184,6.3297212 445.83297,5 450.25417,5 c 4.65577,0 8.7503,4.540921 13.07461,14.5 4.78662,11.023819 6.30241,15.838881 8.56195,27.197906 5.88028,29.561068 2.2894,61.055854 -9.93135,87.105714 l -5.30286,11.30362 3.0693,7.19638 c 1.68812,3.95801 6.63323,15.52138 10.98913,25.69638 4.35591,10.175 9.8236,23.04674 12.15042,28.60386 5.19703,12.41199 9.20663,19.26708 19.05701,32.58124 13.60584,18.39016 13.35818,21.98891 -2.67312,38.84229 -18.7995,19.76353 -45.72513,41.16237 -69.99926,55.63114 -6.1875,3.6881 -11.25,6.81623 -11.25,6.95139 0,0.13517 1.12312,4.44073 2.49582,9.56792 1.3727,5.12719 3.72224,16.29716 5.22119,24.82216 2.51099,14.28072 2.72723,17.6239 2.74899,42.5 0.0302,34.56524 -1.95568,47.46221 -9.68604,62.90361 -4.98468,9.95691 -12.07921,17.17522 -21.87326,22.2549 L 389.5,506.5 H 377 c -12.38316,0 -12.57346,-0.0351 -20.35955,-3.75273 -4.32275,-2.06401 -9.62738,-5.15289 -11.78807,-6.86418 -3.6841,-2.91786 -11.77375,-12.13326 -13.74816,-15.66135 -0.79211,-1.41541 -2.07862,-1.28754 -12.19828,1.21242 -19.35359,4.78111 -44.63587,4.56152 -63.07356,-0.54783 l -7.25085,-2.00931 -3.48262,4.31149 c -6.99342,8.65787 -14.52638,14.88592 -23.09891,19.09756 -8.24982,4.05309 -8.82376,4.18291 -19.5,4.41067 -6.05,0.12906 -12.125,-0.13354 -13.5,-0.58357 z m 124,-49.00759 c 18.07403,-5.87701 26.71345,-15.15334 32.6952,-35.10558 4.08881,-13.63829 4.32892,-45.48883 0.39096,-51.86059 -0.65594,-1.06134 -2.58198,-0.93027 -10.19742,0.69396 -16.22862,3.46125 -30.19122,4.45979 -54.6221,3.90632 -16.66574,-0.37755 -25.85443,-1.06675 -34.2893,-2.57187 -6.33746,-1.13086 -12.2937,-2.35199 -13.2361,-2.71362 -3.19382,-1.22559 -4.09187,3.84655 -4.1689,23.5458 -0.0642,16.41746 0.1901,19.45684 2.25902,27 7.89994,28.80279 26.8013,41.65942 59.66864,40.58639 10.00702,-0.3267 13.57778,-0.9048 21.5,-3.48081 z M 55.285194,385.25 c 0.221775,-0.4125 -0.167284,-5.475 -0.864576,-11.25 -1.591319,-13.17938 -1.807955,-33.64258 -0.365598,-34.534 0.580261,-0.35863 3.45039,1.6134 6.378065,4.38227 5.883367,5.56424 15.866546,12.29448 25.066915,16.89905 5.927804,2.96672 19.73702,8.25268 21.5596,8.25268 1.88128,0 0.82624,-2.86489 -5.00015,-13.57749 C 95.605248,343.55557 87,324.14128 87,321.44689 c 0,-1.89408 -0.474291,-1.99206 12.204915,2.52129 C 107.40688,326.8878 121,329.13812 121,327.57633 c 0,-0.39208 -2.8125,-5.2482 -6.25,-10.79137 -5.34226,-8.61471 -8.04943,-11.6911 -18.639513,-21.18172 -13.477524,-12.07829 -26.211583,-25.946 -29.212747,-31.8134 -3.529984,-6.90127 -2.66919,-9.0017 11.354475,-27.70613 4.707657,-6.27896 9.543821,-13.38746 10.747032,-15.79665 l 2.187657,-4.38036 -2.055127,-10.20335 C 85.972333,190.01725 76.549102,163 74.237459,163 c -1.052741,0 -17.192657,24.31496 -23.575189,35.51628 -10.987223,19.28253 -20.053567,42.77165 -24.530084,63.55264 -4.592022,21.31718 -4.802098,48.8498 -0.531827,69.70125 3.330975,16.26494 11.686553,39.89984 16.785897,47.48123 3.026281,4.49928 11.569099,8.47209 12.898938,5.9986 z M 323.5,348.55894 c 45.67524,-8.21883 90.37264,-29.59113 131.09693,-62.68467 C 465.84401,276.73462 481,262.61545 481,261.27743 c 0,-0.54869 -2.56103,-1.26195 -5.69117,-1.585 -9.70756,-1.00191 -12.78947,-4.62023 -22.37978,-26.275 -12.88049,-29.08392 -19.54521,-40.00246 -32.31906,-52.94696 -8.12973,-8.23834 -15.79731,-13.44381 -25.41349,-17.25304 -6.03538,-2.39078 -7.97995,-2.65266 -19.6965,-2.65266 -11.74646,0 -13.65217,0.25821 -19.76344,2.67786 -14.4635,5.72656 -30.46529,18.99552 -42.51885,35.25737 -5.47274,7.38345 -16.25126,27.79202 -16.23015,30.73095 0.008,1.07736 1.05081,1.9481 2.76244,2.30604 9.01648,1.88558 15.24886,7.5969 15.23688,13.96301 -0.007,3.96732 -5.12804,12.75385 -9.22122,15.82294 -12.24401,9.18065 -23.4712,9.02057 -34.30208,-0.48906 C 267.40725,257.27238 263,249.32252 263,245.56717 c 0,-4.8768 3.0048,-9.23238 7.88352,-11.42748 2.53906,-1.14241 5.74148,-2.20414 7.11648,-2.35941 3.74804,-0.42324 2.99518,-4.29714 -3.21016,-16.51809 -9.34602,-18.40627 -25.63607,-37.16423 -39.68741,-45.69997 -13.64287,-8.2876 -30.33981,-11.52313 -44.40106,-8.60402 -9.76252,2.02669 -21.05495,8.40327 -29.97697,16.92732 -15.36927,14.68371 -24.53368,29.28103 -36.79904,58.61448 -4.62196,11.05373 -7.24782,15.98657 -9.98105,18.75 -3.64032,3.68055 -3.8501,3.75 -11.32666,3.75 C 98.427941,259 95,259.38086 95,259.84635 c 0,1.34534 19.41772,18.98646 32,29.07221 19.80261,15.87343 41.8523,29.95169 60.37793,38.55003 21.28843,9.88063 51.71554,19.18163 70.12207,21.435 4.95,0.60599 10.125,1.29451 11.5,1.53005 6.0735,1.0404 45.91613,-0.33012 54.5,-1.8747 z m -47.41038,-53.67202 c -4.52186,-2.2596 -6.65883,-4.01271 -7.79462,-6.39448 -1.98966,-4.17236 -1.04606,-8.19311 2.27826,-9.70777 2.17024,-0.98883 3.41187,-0.68889 8.98855,2.17139 5.56327,2.8534 7.14991,3.23823 11.31643,2.74477 2.75603,-0.32641 6.47506,-1.67948 8.6234,-3.13738 4.54597,-3.08498 6.8407,-3.22111 9.49836,-0.56345 4.43167,4.43167 1.47481,10.60723 -7.13993,14.91206 -8.73425,4.36456 -17.00203,4.35649 -25.77045,-0.0251 z m -82.40305,-50.14884 c -4.37189,-2.43514 -6.66558,-4.59041 -9.25,-8.69174 -3.18221,-5.05001 -3.43588,-6.04922 -3.42719,-13.5 0.008,-7.08674 0.36418,-8.66495 2.98435,-13.23351 10.41242,-18.1552 35.13011,-17.65423 44.59952,0.90393 4.76094,9.33049 2.48809,23.82887 -4.83777,30.8598 -4.20531,4.03601 -11.79147,6.90407 -18.25548,6.90175 -4.8987,-0.002 -7.06705,-0.59651 -11.81343,-3.24023 z m 17.35625,-28.761 c 3.47526,-1.8599 4.13707,-4.47867 1.86259,-7.37021 -2.36749,-3.00977 -4.48761,-3.29495 -7.07667,-0.95188 -2.27423,2.05815 -2.34495,5.11713 -0.17375,7.51627 1.90158,2.10122 2.73457,2.22581 5.38783,0.80582 z m 149.83431,29.5218 c -12.76063,-6.64686 -17.41205,-21.52346 -10.98041,-35.11861 6.11774,-12.93165 19.98964,-17.973 32.38652,-11.76996 6.73656,3.37077 9.39489,5.85674 12.17939,11.38969 4.62053,9.18122 4.35604,17.58504 -0.82302,26.15032 -6.5425,10.82019 -21.65732,15.1331 -32.76248,9.34856 z M 371.19291,215.25 c 2.71391,-3.16015 2.80354,-3.9848 0.72088,-6.63246 -2.33446,-2.96779 -5.03581,-3.35267 -7.34236,-1.04611 -2.2554,2.2554 -1.94103,6.05628 0.65108,7.87187 2.86014,2.00332 4.11896,1.96256 5.9704,-0.1933 z m -208.38523,-103 c 3.68439,-3.1625 9.49679,-7.775 12.91645,-10.25 3.41967,-2.475 6.23069,-5.249356 6.24672,-6.165236 0.016,-0.91588 -2.78335,-3.793046 -6.22085,-6.393702 -11.78394,-8.915192 -19.11209,-10.551088 -23.11888,-5.160931 -1.73133,2.329083 -2.05758,4.194842 -2.01092,11.5 0.0468,7.330289 1.1633,15.331229 2.92622,20.969869 0.6911,2.21046 2.42486,1.36803 9.26126,-4.5 z m 266.16055,1 c 1.66712,-6.56803 2.43942,-18.045933 1.5937,-23.685574 -1.70512,-11.370536 -10.27127,-11.369657 -26.20819,0.0027 C 400.73327,92.150629 398,94.847246 398,95.835648 c 0,1.009191 3.03194,3.905924 7.25,6.926692 3.9875,2.85566 9.95,7.44093 13.25,10.18949 3.3,2.74856 6.73408,5.00881 7.63129,5.02278 1.11795,0.0174 2.01068,-1.46934 2.83694,-4.72461 z"
         id="path1" />

      <!-- gray line -->
      <path
         style="display:inline;fill:#030203;opacity:1"
         d="m 190,503.56903 c -10.34612,-2.87884 -19.94729,-10.13669 -26.10627,-19.73463 -1.75367,-2.73286 -4.80966,-9.77509 -6.79111,-15.64942 L 153.5,457.5044 134,457.44384 c -18.02197,-0.056 -20.278,-0.26933 -29.76439,-2.81485 -18.383035,-4.9328 -31.661308,-11.49924 -45.447867,-22.4751 -26.25589,-20.90303 -44.380729,-52.14715 -53.2792815,-91.84435 -1.3796538,-6.15476 -2.5153522,-12.67976 -2.5237743,-14.5 -0.00998,-2.15607 -0.3059851,-2.85116 -0.8493075,-1.99435 C 0.95593606,325.67515 0.01421809,314.21415 0.01421809,298 c 0,-15.35706 0.94703284,-27.68073 1.99666071,-25.9824 0.3902217,0.63139 1.0186521,-1.18256 1.3965121,-4.03101 2.3591557,-17.78419 11.9904681,-46.34885 22.1758301,-65.76935 9.573447,-18.25375 44.122282,-71.45408 47.617939,-73.3249 1.628351,-0.87146 2.587108,-0.70385 4.673718,0.81707 5.873206,4.28097 17.230925,24.18556 24.131352,42.29059 3.50957,9.20823 5.30691,11.22871 7.1165,8 0.46239,-0.825 4.48523,-9.06644 8.93965,-18.31432 l 8.09895,-16.81432 -4.02018,-9.18568 c -15.99689,-36.551152 -16.64239,-79.296615 -1.7175,-113.733459 3.95848,-9.133569 5.89608,-11.9825983 9.43863,-13.878517 3.20574,-1.7156571 6.06896,-0.4996862 17.73735,7.532813 26.98824,18.57865 43.74938,31.865163 60.0462,47.598474 C 213.22603,68.592246 218.27188,73 218.85881,73 c 0.58693,0 3.4395,-0.935091 6.33903,-2.077981 12.89497,-5.082722 36.59389,-9.92346 55.80216,-11.398139 19.00291,-1.458912 48.90413,3.084707 71.85826,10.919171 5.74834,1.961965 7.80106,2.274457 9.38217,1.428274 1.11316,-0.595742 6.74367,-5.53259 12.51226,-10.970772 5.76858,-5.438182 15.85645,-14.053017 22.41749,-19.144078 16.6467,-12.917065 45.5795,-32.4953327 50.11515,-33.9119499 3.33487,-1.0415775 4.10366,-0.9446066 6.46027,0.8148627 7.13853,5.3296802 16.09635,32.5794862 18.27428,55.5906122 2.05307,21.691934 -3.25739,50.35921 -13.00955,70.22896 l -5.14272,10.47813 8.44585,19.27145 c 4.64522,10.59931 10.80658,25.12146 13.69192,32.27146 7.81386,19.36307 13.96571,30.70956 23.58486,43.5 4.75677,6.325 8.86707,12.05992 9.134,12.74426 0.26693,0.68434 0.87498,1.00343 1.35123,0.7091 1.24945,-0.7722 2.25638,4.08831 1.48427,7.16464 -0.36139,1.4399 -0.92004,2.35503 -1.24145,2.03362 -0.32141,-0.3214 -1.95019,1.313 -3.61951,3.632 -4.33532,6.02261 -24.6038,25.81779 -36.05838,35.21638 -11.96613,9.81832 -29.7067,22.32111 -43.50261,30.65877 -5.69921,3.44436 -10.60709,6.90064 -10.9064,7.68061 -0.2993,0.77998 0.86364,7.3227 2.58433,14.53938 6.34751,26.62191 7.57775,36.81321 7.61964,63.12124 0.0631,39.63249 -5.27206,61.05098 -18.50293,74.28186 -20.48219,20.48219 -52.56221,16.65809 -71.57306,-8.53186 -3.00937,-3.9875 -5.78383,-7.24879 -6.16547,-7.24731 -0.38165,0.001 -6.03415,1.35268 -12.56113,3.00267 -20.57715,5.20179 -39.91384,5.00633 -60.78291,-0.6144 l -9.34986,-2.51822 -1.97985,2.81363 c -4.55446,6.47249 -17.22587,18.04623 -22.65111,20.68894 -11.19943,5.45539 -22.94776,6.95434 -32.86904,4.19372 z m 26.74588,-23.15551 c 7.92146,-5.45596 12.77593,-12.22601 15.79311,-22.02508 2.3329,-7.5767 4.72317,-11.38844 7.14148,-11.38844 0.56265,0 4.06219,1.99615 7.77677,4.4359 14.18262,9.31518 25.70047,12.14041 45.97721,11.27785 15.70858,-0.66824 24.12491,-3.17372 36.13352,-10.75667 4.31761,-2.72639 8.39897,-4.95708 9.06968,-4.95708 2.31861,0 4.31028,3.10952 6.32524,9.8754 3.94641,13.25131 13.64344,24.35078 23.74793,27.18252 2.31595,0.64903 7.04204,0.99978 10.50243,0.77944 12.35394,-0.78664 20.46583,-9.62818 23.81022,-25.95189 2.56202,-12.50507 4.29921,-38.84995 3.48728,-52.88547 -1.25141,-21.63266 -6.76695,-52.68477 -9.9176,-55.83542 -1.22273,-1.22273 -2.69755,-0.86875 -10.7551,2.58146 -20.73788,8.87985 -46.89627,15.92977 -69.80004,18.81172 -13.46134,1.69381 -39.06267,1.88214 -52.82742,0.38859 -21.90356,-2.37664 -48.91196,-9.33455 -68.34859,-17.60796 -5.8509,-2.4905 -11.44739,-4.3723 -12.43666,-4.18179 -2.11135,0.40661 -4.16794,7.6641 -7.60677,26.8434 -1.96185,10.94174 -2.24606,15.99051 -2.27991,40.5 -0.0435,31.49557 1.14898,41.07041 6.48922,52.10483 3.44231,7.11277 6.48162,10.42397 12.28518,13.38421 3.49083,1.78057 5.48074,2.06933 11.96888,1.73682 7.1043,-0.36408 8.27671,-0.73959 13.46394,-4.31234 z M 150.75,436.69098 c 0.92034,-0.59566 1.25,-5.35366 1.25,-18.04153 0,-18.29333 1.75489,-35.37184 5.12352,-49.86182 1.11399,-4.7918 1.87943,-9.70371 1.70096,-10.91535 -0.22174,-1.50544 -2.50498,-3.49632 -7.21096,-6.28763 -13.14294,-7.79561 -27.22201,-22.97649 -37.76082,-40.71592 -3.06716,-5.1628 -6.94682,-9.40894 -15.639939,-17.11735 -13.040707,-11.56352 -27.835571,-27.64629 -29.85468,-32.45355 -1.842497,-4.38677 -0.943784,-6.3398 9.036616,-19.63784 C 88.405721,226.98872 92.994241,219.25445 92.997429,215.36047 93.008002,202.44877 79.00827,160 74.739382,160 c -1.923882,0 -4.492126,3.03024 -11.44177,13.5 -19.981943,30.10315 -33.43608,59.61343 -39.310944,86.22454 -3.139544,14.22106 -4.480578,37.69544 -3.082502,53.95823 1.425281,16.57924 3.123397,25.23396 7.680815,39.14653 14.153411,43.20653 42.828478,73.04745 79.436529,82.6662 8.48146,2.2285 11.16151,2.46491 25.47849,2.24749 8.8,-0.13365 16.5625,-0.60705 17.25,-1.05201 z M 326.5,350.57501 c 43.35088,-7.87948 90.77403,-30.91754 131.16458,-63.71945 C 473.56114,273.94567 488,259.49722 488,256.5 c 0,-0.67375 -3.36969,-5.42186 -7.48821,-10.55136 -8.79653,-10.95585 -12.04961,-17.30252 -25.37154,-49.49921 -5.47324,-13.22781 -13.17802,-30.96222 -17.12174,-39.40979 l -7.17041,-15.35922 2.0538,-2.59021 C 447.29944,120.93239 452.62124,101.2212 451.69051,69.5 c -0.40707,-13.873684 -0.9302,-18.471208 -2.84465,-25 -3.26083,-11.12029 -3.60487,-11.100645 -22.37855,1.277827 -19.45635,12.828594 -27.7901,19.595818 -45.75454,37.153904 L 365.92554,97.384476 358.67821,93.75248 C 349.21794,89.011468 338.41307,85.532625 323,82.265169 c -11.25319,-2.385593 -14.59464,-2.649906 -33.5,-2.649906 -18.90536,0 -22.24681,0.264313 -33.5,2.649906 -14.80046,3.137586 -25.20735,6.422808 -36.05746,11.382525 L 212.00215,97.27734 199.34986,84.079134 C 192.39111,76.820121 182.37812,67.272941 177.09879,62.86318 165.8758,53.488759 140.19511,36 137.6526,36 c -4.89447,0 -8.04431,19.016113 -7.37102,44.5 0.66577,25.1992 3.731,37.30822 13.40968,52.97414 2.36981,3.83577 4.30874,7.55427 4.30874,8.26332 0,0.70906 -3.09663,7.4707 -6.8814,15.02587 -6.95671,13.88701 -15.41733,32.43637 -23.1417,50.73667 -9.10898,21.58067 -15.33334,32.45548 -24.146532,42.18731 -2.656702,2.93363 -4.835818,6.1166 -4.842479,7.07328 -0.02906,4.17354 36.335211,35.59913 58.012111,50.1334 36.8455,24.70476 77.06123,40.6028 114,45.06636 11.9478,1.44374 54.93758,0.5345 65.5,-1.38534 z M 281.33975,294.5651 c -7.92018,-2.477 -12.72694,-7.36846 -11.57388,-11.7778 0.6514,-2.49094 4.73394,-2.27966 8.55738,0.44287 2.29969,1.63753 4.93909,2.33229 9.93227,2.61443 6.01731,0.34 7.25515,0.0832 10.75094,-2.23018 4.59502,-3.04084 7.5484,-3.32963 8.84019,-0.86442 2.10103,4.00952 -3.06768,9.30843 -11.578,11.86966 -5.56863,1.67592 -9.44101,1.66176 -14.9289,-0.0546 z m 0.97906,-29.61046 c -4.48231,-1.37542 -13.80642,-10.21679 -15.65993,-14.84916 -1.95505,-4.88615 -0.69297,-10.38181 2.92923,-12.75517 3.49899,-2.29263 12.83011,-4.31839 19.91189,-4.32282 13.44259,-0.008 22.7,5.01258 22.7,12.3119 0,5.95999 -6.4066,14.13049 -14.26726,18.19539 -3.85381,1.99289 -11.48504,2.68684 -15.61393,1.41986 z m -82.55477,-19.95035 c -8.92936,-2.68867 -15.66584,-10.79698 -16.47717,-19.83262 -0.77417,-8.62181 1.01604,-13.60828 7.03991,-19.60902 4.29845,-4.28194 6.14527,-5.36913 10.92175,-6.42939 7.59127,-1.68508 14.77309,0.24332 20.07201,5.38956 5.76196,5.59595 7.13705,8.95265 7.15961,17.47718 0.0168,6.35969 -0.38865,8.19486 -2.66692,12.07018 -5.26964,8.96362 -16.68293,13.75433 -26.04919,10.93411 z m 14.78141,-28.45884 c 2.9997,-2.99969 3.13134,-6.41533 0.38197,-9.91059 -2.45599,-3.12229 -8.17355,-3.62708 -11.09868,-0.97987 -2.35441,2.13071 -2.45794,8.99227 -0.17375,11.51627 2.43711,2.69298 7.88471,2.37995 10.89046,-0.62581 z M 364.5,244.56943 c -5.56217,-2.03319 -12.91524,-10.19004 -14.3607,-15.93051 -1.48842,-5.91105 -1.44397,-7.24019 0.45844,-13.70742 3.095,-10.52147 15.02052,-18.46852 24.60812,-16.39861 17.19551,3.71242 25.65159,23.7006 15.78741,37.31771 -5.89601,8.13919 -17.56939,11.98086 -26.49327,8.71883 z m 9.42742,-28.20429 C 375.06734,214.91597 376,212.72666 376,211.5 c 0,-3.92345 -3.69283,-7.5 -7.74384,-7.5 -5.02512,0 -7.25616,2.33623 -7.25616,7.59828 0,3.2978 0.51335,4.64788 2.22251,5.84502 3.52744,2.47071 8.29073,1.99097 10.70491,-1.07816 z"
         id="path2"
         inkscape:label="path2" />
      
    </g>
  </g>
</svg>
